<svg width="269" height="220" viewBox="0 0 269 220" fill="none" xmlns="http://www.w3.org/2000/svg">
<g clip-path="url(#clip0_846_1763)">
<mask id="mask0_846_1763" style="mask-type:luminance" maskUnits="userSpaceOnUse" x="0" y="1" width="267" height="153">
<path d="M183.622 153.643L191.712 115.161L201.349 124.376L266.685 11.0857L266.624 11.0836L266.632 11.0772L210.155 27.4351L215.682 1.15088C136.105 3.66485 92.8813 37.5886 69.4211 72.8012C58.7792 68.5695 48.4685 65.9642 39.2343 65.357L0.972656 153.643H183.622Z" fill="white"/>
</mask>
<g mask="url(#mask0_846_1763)">
<path d="M41.6445 153.643C41.6445 153.643 46.5982 6.49095 215.682 1.15088L183.622 153.645L41.6445 153.643Z" fill="#B4FAFF"/>
<path d="M158.325 153.643H0.974609L39.2341 65.3569C78.6041 67.9473 137.521 106.814 158.325 153.643Z" fill="#77DDFD"/>
<path d="M144.944 149.138L144.906 149.208C163.039 122.548 163.886 113.532 164.619 105.702C164.74 104.413 164.859 103.154 165.05 101.856C165.084 101.655 165.311 101.143 165.538 100.631C165.765 100.122 165.993 99.61 166.027 99.4083C165.182 98.7479 163.893 97.9156 162.795 97.2383C161.895 98.5632 161.098 99.7438 160.559 100.546C160.321 100.903 160.08 101.258 159.837 101.612C159.829 101.621 159.706 101.882 159.529 102.253C159.228 102.886 158.776 103.842 158.48 104.417L158.438 104.502C157.361 106.676 156.293 108.831 155.922 111.224C155.892 111.42 155.875 111.991 155.85 112.855C155.754 115.955 155.546 122.798 154.274 129.357C153.085 135.515 149.495 142.409 144.944 149.138Z" fill="#462615"/>
<g filter="url(#filter0_di_846_1763)">
<path d="M266.684 11.0859L201.348 124.376L168.219 92.6987L266.684 11.0859Z" fill="url(#paint0_linear_846_1763)"/>
</g>
<g filter="url(#filter1_di_846_1763)">
<path d="M149.16 77.5914L266.625 11.0815L266.34 11.3724L168.219 92.6986L177.525 101.595L162.55 116.811L149.16 77.5914Z" fill="#9DDBF5"/>
</g>
<path d="M145.709 96.8515C145.709 96.8515 149.858 88.6853 151.55 84.5874L152.675 87.8785L151.316 89.6875L145.709 96.8515ZM144.906 149.208L144.944 149.14C149.493 142.411 153.085 135.514 154.274 129.359C155.546 122.798 155.754 115.955 155.85 112.855C155.875 111.993 155.892 111.419 155.922 111.226C156.289 108.869 157.327 106.746 158.385 104.608L162.551 116.81L162.561 116.8C160.406 123.643 155.746 133.274 144.906 149.208Z" fill="#F4B995"/>
<path d="M157.3 101.427C156.417 103.226 155.635 105.037 155.344 107.037C155.228 107.827 154.926 108.927 154.601 110.118C153.998 112.322 153.306 114.849 153.523 116.335C154.323 121.783 153.722 133.905 144.906 149.208C155.746 133.274 160.406 123.643 162.561 116.8L162.551 116.81L157.3 101.427Z" fill="#462615"/>
<path d="M157.3 101.427C156.417 103.226 155.635 105.037 155.344 107.037C155.228 107.827 154.926 108.927 154.601 110.118C153.998 112.322 153.306 114.849 153.523 116.335C154.323 121.783 153.722 133.905 144.906 149.208C155.746 133.274 160.406 123.643 162.561 116.8L162.551 116.81L157.3 101.427Z" fill="#F4B995"/>
<g filter="url(#filter2_di_846_1763)">
<path d="M168.275 92.7536L168.167 92.6899L162.553 116.81L177.628 101.697L168.277 92.7536H168.275Z" fill="#0A6E9C"/>
</g>
<path d="M113.568 55.4071L149.163 77.5934L266.634 11.0771L113.568 55.4071Z" fill="white"/>
<path d="M136.972 69.9921L149.166 77.5935L149.238 77.551L151.557 84.5791C149.864 88.6707 145.709 96.8517 145.709 96.8517L151.314 89.6877C151.678 89.21 154.979 84.7978 156.678 82.5259C157.345 81.6362 158.134 80.8548 158.954 80.1053C159.918 79.222 160.806 78.2581 161.617 77.2283C163.821 74.4043 167.403 69.8647 167.403 69.8647C167.675 69.4384 168.049 69.0873 168.493 68.8433C168.936 68.5993 169.433 68.4704 169.938 68.4683C170.444 68.4662 170.942 68.591 171.387 68.8312C171.832 69.0715 172.21 69.4195 172.486 69.8435C172.496 69.8583 172.507 69.8753 172.52 69.8859C172.52 69.8966 172.524 69.9029 172.53 69.9072C173.527 71.3842 174.116 73.0978 174.239 74.8751C174.362 76.6524 174.014 78.4308 173.231 80.031C172.911 80.7024 172.6 81.3777 172.297 82.0566L172.22 82.2222C171.258 84.3455 170.146 86.8022 168.691 88.7535C166.844 91.225 162.324 97.9261 160.559 100.546L159.837 101.614C159.731 101.826 159.629 102.039 159.529 102.253C159.228 102.886 158.776 103.842 158.481 104.417L158.438 104.502C157.362 106.676 156.294 108.833 155.922 111.224C155.892 111.42 155.875 111.991 155.85 112.855C155.754 115.955 155.546 122.798 154.274 129.359C152.83 136.833 147.845 145.401 141.904 153.431H91.0449L121.37 132.317C123.975 129.516 125.532 125.9 125.776 122.083L127.156 89.6665L127.287 88.108C127.92 80.0905 132.521 74.4638 136.972 69.9921Z" fill="#FFE7D8"/>
<path d="M170.669 74.5782C170.669 74.5782 170.873 70.9559 167.393 69.7944L162.857 75.5167C162.857 75.5167 164.968 76.1431 166.853 82.0437L170.669 74.5782Z" fill="#F4B995"/>
</g>
</g>
<path d="M12.0186 211.992H10.7026V216.486H9.48463V206.686H10.7026V210.844H12.0046L15.1406 206.686H16.7086L13.1246 211.404L17.0306 216.486H15.4626L12.0186 211.992ZM24.7408 212.734C24.7408 212.874 24.7268 213.028 24.7128 213.168H18.2588C18.4548 214.568 19.4908 215.492 20.9188 215.492C21.9688 215.492 22.8088 215.002 23.2848 214.176H24.5308C23.9008 215.744 22.5708 216.654 20.9188 216.654C18.7348 216.654 17.0688 214.96 17.0688 212.706C17.0688 210.452 18.7348 208.758 20.9188 208.758C23.2148 208.758 24.7408 210.522 24.7408 212.734ZM20.9188 209.892C19.5468 209.892 18.5388 210.746 18.2868 212.062H23.5368C23.2848 210.718 22.2628 209.892 20.9188 209.892ZM33.5865 212.734C33.5865 212.874 33.5725 213.028 33.5585 213.168H27.1045C27.3005 214.568 28.3365 215.492 29.7645 215.492C30.8145 215.492 31.6545 215.002 32.1305 214.176H33.3765C32.7465 215.744 31.4165 216.654 29.7645 216.654C27.5805 216.654 25.9145 214.96 25.9145 212.706C25.9145 210.452 27.5805 208.758 29.7645 208.758C32.0605 208.758 33.5865 210.522 33.5865 212.734ZM29.7645 209.892C28.3925 209.892 27.3845 210.746 27.1325 212.062H32.3825C32.1305 210.718 31.1085 209.892 29.7645 209.892ZM39.3662 208.758C41.6202 208.758 43.2582 210.438 43.2582 212.706C43.2582 214.96 41.6202 216.654 39.3662 216.654C38.2322 216.654 37.2382 216.206 36.5522 215.478V219.188H35.3622V208.926H36.1742L36.4122 210.088C37.1122 209.262 38.1622 208.758 39.3662 208.758ZM39.2822 215.506C40.8922 215.506 42.0542 214.316 42.0542 212.706C42.0542 211.096 40.8922 209.906 39.2822 209.906C37.6862 209.906 36.4962 211.11 36.4962 212.706C36.4962 214.302 37.6862 215.506 39.2822 215.506ZM52.4489 215.38V216.486H51.4689C49.8449 216.486 48.8509 215.478 48.8509 213.84V210.004H47.5209V209.794L49.8589 207.33H50.0409V208.926H52.4069V210.004H50.0409V213.798C50.0409 214.82 50.6009 215.38 51.6229 215.38H52.4489ZM58.1677 208.884V210.018H57.3977C56.0117 210.018 55.2417 210.914 55.2417 212.384V216.486H54.0517V208.926H54.8917L55.0877 210.074C55.6197 209.304 56.4177 208.884 57.4957 208.884H58.1677ZM66.6116 208.926V216.486H65.6176L65.4916 215.338C64.8056 216.15 63.7556 216.654 62.5236 216.654C60.2976 216.654 58.6176 214.96 58.6176 212.706C58.6176 210.438 60.2976 208.758 62.5236 208.758C63.7696 208.758 64.8196 209.262 65.5056 210.088L65.6596 208.926H66.6116ZM62.6216 215.506C64.2176 215.506 65.3936 214.316 65.3936 212.706C65.3936 211.096 64.2176 209.906 62.6216 209.906C61.0256 209.906 59.8356 211.11 59.8356 212.706C59.8356 214.302 61.0256 215.506 62.6216 215.506ZM72.3407 216.654C70.1007 216.654 68.4067 214.96 68.4067 212.706C68.4067 210.452 70.1007 208.758 72.3407 208.758C74.1327 208.758 75.5467 209.836 76.0087 211.474H74.8327C74.3847 210.508 73.4467 209.906 72.3407 209.906C70.7867 209.906 69.6247 211.124 69.6247 212.706C69.6247 214.288 70.8007 215.506 72.3407 215.506C73.4467 215.506 74.3567 214.904 74.8187 213.896H76.0227C75.5607 215.562 74.1187 216.654 72.3407 216.654ZM80.0843 213.098H79.0063V216.486H77.8163V206.224H79.0063V211.992H80.0983L82.4363 208.926H83.8783L81.1203 212.552L84.1583 216.486H82.6743L80.0843 213.098ZM92.4673 216.654C90.1853 216.654 88.4633 214.974 88.4633 212.706C88.4633 210.424 90.1853 208.758 92.4673 208.758C94.7633 208.758 96.4853 210.438 96.4853 212.706C96.4853 214.974 94.7633 216.654 92.4673 216.654ZM92.4673 215.506C94.0913 215.506 95.2673 214.33 95.2673 212.706C95.2673 211.082 94.0913 209.906 92.4673 209.906C90.8573 209.906 89.6813 211.082 89.6813 212.706C89.6813 214.33 90.8573 215.506 92.4673 215.506ZM102.203 209.976H99.8928V216.486H98.7028V209.976H97.2188V208.982H98.7028V208.366C98.7028 206.756 99.4308 205.958 101.125 205.958H102.203V206.91H101.349C100.271 206.91 99.8508 207.316 99.8508 208.394V208.982H102.203V209.976ZM106.978 206.252H108.266V207.61H106.978V206.252ZM105.06 218.096H105.508C106.474 218.096 107.02 217.55 107.02 216.584V208.926H108.21V216.668C108.21 218.18 107.202 219.188 105.676 219.188H105.06V218.096ZM114.001 216.654C111.719 216.654 109.997 214.974 109.997 212.706C109.997 210.424 111.719 208.758 114.001 208.758C116.297 208.758 118.019 210.438 118.019 212.706C118.019 214.974 116.297 216.654 114.001 216.654ZM114.001 215.506C115.625 215.506 116.801 214.33 116.801 212.706C116.801 211.082 115.625 209.906 114.001 209.906C112.391 209.906 111.215 211.082 111.215 212.706C111.215 214.33 112.391 215.506 114.001 215.506ZM123.817 208.758C126.085 208.758 127.709 210.438 127.709 212.706C127.709 214.96 126.085 216.654 123.817 216.654C122.627 216.654 121.605 216.178 120.905 215.408L120.751 216.486H119.827V206.224H121.017V209.878C121.703 209.178 122.683 208.758 123.817 208.758ZM123.719 215.506C125.329 215.506 126.491 214.316 126.491 212.706C126.491 211.096 125.329 209.906 123.719 209.906C122.123 209.906 120.933 211.11 120.933 212.706C120.933 214.288 122.123 215.506 123.719 215.506ZM140.576 208.926V216.486H139.582L139.456 215.338C138.77 216.15 137.72 216.654 136.488 216.654C134.262 216.654 132.582 214.96 132.582 212.706C132.582 210.438 134.262 208.758 136.488 208.758C137.734 208.758 138.784 209.262 139.47 210.088L139.624 208.926H140.576ZM136.586 215.506C138.182 215.506 139.358 214.316 139.358 212.706C139.358 211.096 138.182 209.906 136.586 209.906C134.99 209.906 133.8 211.11 133.8 212.706C133.8 214.302 134.99 215.506 136.586 215.506ZM146.978 208.758C149.232 208.758 150.87 210.438 150.87 212.706C150.87 214.96 149.232 216.654 146.978 216.654C145.844 216.654 144.85 216.206 144.164 215.478V219.188H142.974V208.926H143.786L144.024 210.088C144.724 209.262 145.774 208.758 146.978 208.758ZM146.894 215.506C148.504 215.506 149.666 214.316 149.666 212.706C149.666 211.096 148.504 209.906 146.894 209.906C145.298 209.906 144.108 211.11 144.108 212.706C144.108 214.302 145.298 215.506 146.894 215.506ZM156.685 208.758C158.939 208.758 160.577 210.438 160.577 212.706C160.577 214.96 158.939 216.654 156.685 216.654C155.551 216.654 154.557 216.206 153.871 215.478V219.188H152.681V208.926H153.493L153.731 210.088C154.431 209.262 155.481 208.758 156.685 208.758ZM156.601 215.506C158.211 215.506 159.373 214.316 159.373 212.706C159.373 211.096 158.211 209.906 156.601 209.906C155.005 209.906 153.815 211.11 153.815 212.706C153.815 214.302 155.005 215.506 156.601 215.506ZM162.388 206.224H163.578V216.486H162.388V206.224ZM165.914 206.252H167.202V207.61H165.914V206.252ZM165.97 208.926H167.16V216.486H165.97V208.926ZM172.884 216.654C170.644 216.654 168.95 214.96 168.95 212.706C168.95 210.452 170.644 208.758 172.884 208.758C174.676 208.758 176.09 209.836 176.552 211.474H175.376C174.928 210.508 173.99 209.906 172.884 209.906C171.33 209.906 170.168 211.124 170.168 212.706C170.168 214.288 171.344 215.506 172.884 215.506C173.99 215.506 174.9 214.904 175.362 213.896H176.566C176.104 215.562 174.662 216.654 172.884 216.654ZM185.625 208.926V216.486H184.631L184.505 215.338C183.819 216.15 182.769 216.654 181.537 216.654C179.311 216.654 177.631 214.96 177.631 212.706C177.631 210.438 179.311 208.758 181.537 208.758C182.783 208.758 183.833 209.262 184.519 210.088L184.673 208.926H185.625ZM181.635 215.506C183.231 215.506 184.407 214.316 184.407 212.706C184.407 211.096 183.231 209.906 181.635 209.906C180.039 209.906 178.849 211.11 178.849 212.706C178.849 214.302 180.039 215.506 181.635 215.506ZM191.97 215.38V216.486H190.99C189.366 216.486 188.372 215.478 188.372 213.84V210.004H187.042V209.794L189.38 207.33H189.562V208.926H191.928V210.004H189.562V213.798C189.562 214.82 190.122 215.38 191.144 215.38H191.97ZM193.517 206.252H194.805V207.61H193.517V206.252ZM193.573 208.926H194.763V216.486H193.573V208.926ZM200.557 216.654C198.275 216.654 196.553 214.974 196.553 212.706C196.553 210.424 198.275 208.758 200.557 208.758C202.853 208.758 204.575 210.438 204.575 212.706C204.575 214.974 202.853 216.654 200.557 216.654ZM200.557 215.506C202.181 215.506 203.357 214.33 203.357 212.706C203.357 211.082 202.181 209.906 200.557 209.906C198.947 209.906 197.771 211.082 197.771 212.706C197.771 214.33 198.947 215.506 200.557 215.506ZM210.164 208.758C211.956 208.758 213.076 210.116 213.076 211.964V216.486H211.886V212.244C211.886 210.704 211.172 209.85 209.856 209.85C208.568 209.85 207.574 210.942 207.574 212.356V216.486H206.384V208.926H207.224L207.462 210.116C208.022 209.276 208.988 208.758 210.164 208.758ZM217.76 216.654C215.954 216.654 214.792 215.688 214.736 214.162H215.898C215.968 215.072 216.738 215.548 217.788 215.548C218.824 215.548 219.566 215.114 219.566 214.372C219.566 213.49 218.628 213.308 217.606 213.14C216.318 212.916 214.876 212.65 214.876 210.942C214.876 209.64 216.01 208.758 217.718 208.758C219.426 208.758 220.532 209.668 220.574 211.096H219.454C219.398 210.284 218.754 209.822 217.704 209.822C216.668 209.822 216.024 210.256 216.024 210.914C216.024 211.712 216.892 211.852 217.9 212.02C219.216 212.23 220.742 212.468 220.742 214.316C220.742 215.73 219.552 216.654 217.76 216.654ZM229.988 208.758C231.78 208.758 232.9 209.99 232.9 211.964V216.486H231.71V212.244C231.71 210.704 230.996 209.85 229.68 209.85C228.392 209.85 227.398 210.942 227.398 212.356V216.486H226.208V206.224H227.398V209.948C227.972 209.206 228.896 208.758 229.988 208.758ZM242.26 212.734C242.26 212.874 242.246 213.028 242.232 213.168H235.778C235.974 214.568 237.01 215.492 238.438 215.492C239.488 215.492 240.328 215.002 240.804 214.176H242.05C241.42 215.744 240.09 216.654 238.438 216.654C236.254 216.654 234.588 214.96 234.588 212.706C234.588 210.452 236.254 208.758 238.438 208.758C240.734 208.758 242.26 210.522 242.26 212.734ZM238.438 209.892C237.066 209.892 236.058 210.746 235.806 212.062H241.056C240.804 210.718 239.782 209.892 238.438 209.892ZM248.152 208.884V210.018H247.382C245.996 210.018 245.226 210.914 245.226 212.384V216.486H244.036V208.926H244.876L245.072 210.074C245.604 209.304 246.402 208.884 247.48 208.884H248.152ZM256.274 212.734C256.274 212.874 256.26 213.028 256.246 213.168H249.792C249.988 214.568 251.024 215.492 252.452 215.492C253.502 215.492 254.342 215.002 254.818 214.176H256.064C255.434 215.744 254.104 216.654 252.452 216.654C250.268 216.654 248.602 214.96 248.602 212.706C248.602 210.452 250.268 208.758 252.452 208.758C254.748 208.758 256.274 210.522 256.274 212.734ZM252.452 209.892C251.08 209.892 250.072 210.746 249.82 212.062H255.07C254.818 210.718 253.796 209.892 252.452 209.892ZM257.593 215.002H258.965V216.486H257.593V215.002Z" fill="black"/>
<path d="M71.8926 177.286V188.486H69.8766L64.8046 181.494V188.486H62.4206V177.286H64.6126L69.5246 184.118V177.286H71.8926ZM78.2789 188.726C75.5909 188.726 73.6069 186.774 73.6069 184.166C73.6069 181.542 75.5909 179.606 78.2789 179.606C80.9349 179.606 82.9349 181.542 82.9349 184.166C82.9349 186.774 80.9349 188.726 78.2789 188.726ZM78.2789 186.534C79.6229 186.534 80.5669 185.558 80.5669 184.166C80.5669 182.774 79.6229 181.798 78.2789 181.798C76.9189 181.798 75.9749 182.774 75.9749 184.166C75.9749 185.558 76.9189 186.534 78.2789 186.534ZM97.2481 179.83V188.47H95.4081L95.2161 187.702C94.4801 188.342 93.5041 188.726 92.4161 188.726C89.8081 188.726 87.8881 186.774 87.8881 184.15C87.8881 181.542 89.8081 179.606 92.4161 179.606C93.5201 179.606 94.5121 179.99 95.2481 180.662L95.5041 179.83H97.2481ZM92.6081 186.518C93.9681 186.518 94.9601 185.51 94.9601 184.15C94.9601 182.79 93.9681 181.782 92.6081 181.782C91.2481 181.782 90.2561 182.806 90.2561 184.15C90.2561 185.51 91.2481 186.518 92.6081 186.518ZM104.215 179.606C106.807 179.606 108.743 181.542 108.743 184.166C108.743 186.774 106.807 188.742 104.215 188.742C103.319 188.742 102.503 188.486 101.831 188.022V191.606H99.495V179.846H101.047L101.447 180.63C102.167 179.974 103.127 179.606 104.215 179.606ZM104.023 186.534C105.383 186.534 106.375 185.526 106.375 184.166C106.375 182.806 105.383 181.798 104.023 181.798C102.663 181.798 101.671 182.806 101.671 184.166C101.671 185.526 102.663 186.534 104.023 186.534ZM115.121 179.606C117.713 179.606 119.649 181.542 119.649 184.166C119.649 186.774 117.713 188.742 115.121 188.742C114.225 188.742 113.409 188.486 112.737 188.022V191.606H110.401V179.846H111.953L112.353 180.63C113.073 179.974 114.033 179.606 115.121 179.606ZM114.929 186.534C116.289 186.534 117.281 185.526 117.281 184.166C117.281 182.806 116.289 181.798 114.929 181.798C113.569 181.798 112.577 182.806 112.577 184.166C112.577 185.526 113.569 186.534 114.929 186.534ZM121.308 176.726H123.644V188.486H121.308V176.726ZM125.886 176.518H128.222V178.694H125.886V176.518ZM125.886 179.846H128.222V188.486H125.886V179.846ZM134.48 188.726C131.888 188.726 129.904 186.726 129.904 184.134C129.904 181.558 131.872 179.606 134.496 179.606C136.736 179.606 138.48 181.014 138.896 183.142H136.576C136.192 182.294 135.424 181.798 134.48 181.798C133.216 181.798 132.272 182.822 132.272 184.15C132.272 185.494 133.232 186.534 134.48 186.534C135.424 186.534 136.176 186.006 136.576 185.078H138.928C138.512 187.254 136.752 188.726 134.48 188.726ZM149.264 179.83V188.47H147.424L147.232 187.702C146.496 188.342 145.52 188.726 144.432 188.726C141.824 188.726 139.904 186.774 139.904 184.15C139.904 181.542 141.824 179.606 144.432 179.606C145.536 179.606 146.528 179.99 147.264 180.662L147.52 179.83H149.264ZM144.624 186.518C145.984 186.518 146.976 185.51 146.976 184.15C146.976 182.79 145.984 181.782 144.624 181.782C143.264 181.782 142.272 182.806 142.272 184.15C142.272 185.51 143.264 186.518 144.624 186.518ZM156.791 186.406V188.486H155.143C153.239 188.486 152.071 187.318 152.071 185.398V181.718H150.503V181.222L153.927 177.59H154.359V179.846H156.743V181.718H154.407V185.094C154.407 185.926 154.887 186.406 155.735 186.406H156.791ZM158.386 176.518H160.722V178.694H158.386V176.518ZM158.386 179.846H160.722V188.486H158.386V179.846ZM167.076 188.726C164.388 188.726 162.404 186.774 162.404 184.166C162.404 181.542 164.388 179.606 167.076 179.606C169.732 179.606 171.732 181.542 171.732 184.166C171.732 186.774 169.732 188.726 167.076 188.726ZM167.076 186.534C168.42 186.534 169.364 185.558 169.364 184.166C169.364 182.774 168.42 181.798 167.076 181.798C165.716 181.798 164.772 182.774 164.772 184.166C164.772 185.558 165.716 186.534 167.076 186.534ZM178.345 179.638C180.313 179.638 181.529 181.062 181.529 183.254V188.486H179.193V183.622C179.193 182.326 178.697 181.686 177.689 181.686C176.489 181.686 175.753 182.55 175.753 183.942V188.486H173.417V179.846H175.017L175.481 180.918C176.137 180.134 177.161 179.638 178.345 179.638ZM186.739 188.726C184.563 188.726 183.123 187.494 183.107 185.638H185.379C185.395 186.406 185.987 186.79 186.819 186.79C187.475 186.79 188.051 186.502 188.051 185.926C188.051 185.334 187.299 185.158 186.387 184.998C185.011 184.774 183.251 184.406 183.251 182.358C183.251 180.726 184.643 179.606 186.739 179.606C188.819 179.606 190.179 180.758 190.195 182.486H187.971C187.971 181.798 187.491 181.462 186.675 181.462C185.939 181.462 185.523 181.798 185.523 182.294C185.523 182.87 186.259 182.998 187.155 183.158C188.563 183.414 190.355 183.718 190.355 185.814C190.355 187.59 188.915 188.726 186.739 188.726ZM204.006 179.846L200.23 188.374C199.206 190.71 198.294 191.606 196.342 191.606H195.382V189.494H196.198C197.318 189.494 197.542 189.174 198.15 187.894L198.182 187.83L194.518 179.846H197.062L199.366 185.158L201.51 179.846H204.006ZM213.192 184.134C213.192 184.358 213.176 184.598 213.144 184.822H206.616C206.808 186.006 207.592 186.646 208.728 186.646C209.528 186.646 210.2 186.262 210.552 185.654H213.016C212.376 187.526 210.728 188.726 208.728 188.726C206.168 188.726 204.248 186.758 204.248 184.166C204.248 181.558 206.152 179.606 208.728 179.606C211.384 179.606 213.192 181.654 213.192 184.134ZM208.728 181.59C207.688 181.59 206.952 182.198 206.68 183.222H210.856C210.536 182.166 209.768 181.59 208.728 181.59ZM220.009 186.406V188.486H218.361C216.457 188.486 215.289 187.318 215.289 185.398V181.718H213.721V181.222L217.145 177.59H217.577V179.846H219.961V181.718H217.625V185.094C217.625 185.926 218.105 186.406 218.953 186.406H220.009Z" fill="black"/>
<defs>
<filter id="filter0_di_846_1763" x="168.219" y="11.0859" width="100.588" height="115.413" filterUnits="userSpaceOnUse" color-interpolation-filters="sRGB">
<feFlood flood-opacity="0" result="BackgroundImageFix"/>
<feColorMatrix in="SourceAlpha" type="matrix" values="0 0 0 0 0 0 0 0 0 0 0 0 0 0 0 0 0 0 127 0" result="hardAlpha"/>
<feOffset dx="1.06164" dy="1.06164"/>
<feGaussianBlur stdDeviation="0.530822"/>
<feColorMatrix type="matrix" values="0 0 0 0 0 0 0 0 0 0 0 0 0 0 0 0 0 0 0.3 0"/>
<feBlend mode="normal" in2="BackgroundImageFix" result="effect1_dropShadow_846_1763"/>
<feBlend mode="normal" in="SourceGraphic" in2="effect1_dropShadow_846_1763" result="shape"/>
<feColorMatrix in="SourceAlpha" type="matrix" values="0 0 0 0 0 0 0 0 0 0 0 0 0 0 0 0 0 0 127 0" result="hardAlpha"/>
<feOffset dx="1.06164" dy="1.06164"/>
<feGaussianBlur stdDeviation="0.530822"/>
<feComposite in2="hardAlpha" operator="arithmetic" k2="-1" k3="1"/>
<feColorMatrix type="matrix" values="0 0 0 0 0 0 0 0 0 0 0 0 0 0 0 0 0 0 0.3 0"/>
<feBlend mode="normal" in2="shape" result="effect2_innerShadow_846_1763"/>
</filter>
<filter id="filter1_di_846_1763" x="149.16" y="11.0815" width="119.588" height="107.852" filterUnits="userSpaceOnUse" color-interpolation-filters="sRGB">
<feFlood flood-opacity="0" result="BackgroundImageFix"/>
<feColorMatrix in="SourceAlpha" type="matrix" values="0 0 0 0 0 0 0 0 0 0 0 0 0 0 0 0 0 0 127 0" result="hardAlpha"/>
<feOffset dx="1.06164" dy="1.06164"/>
<feGaussianBlur stdDeviation="0.530822"/>
<feColorMatrix type="matrix" values="0 0 0 0 0 0 0 0 0 0 0 0 0 0 0 0 0 0 0.3 0"/>
<feBlend mode="normal" in2="BackgroundImageFix" result="effect1_dropShadow_846_1763"/>
<feBlend mode="normal" in="SourceGraphic" in2="effect1_dropShadow_846_1763" result="shape"/>
<feColorMatrix in="SourceAlpha" type="matrix" values="0 0 0 0 0 0 0 0 0 0 0 0 0 0 0 0 0 0 127 0" result="hardAlpha"/>
<feOffset dx="1.06164" dy="1.06164"/>
<feGaussianBlur stdDeviation="0.530822"/>
<feComposite in2="hardAlpha" operator="arithmetic" k2="-1" k3="1"/>
<feColorMatrix type="matrix" values="0 0 0 0 0 0 0 0 0 0 0 0 0 0 0 0 0 0 0.3 0"/>
<feBlend mode="normal" in2="shape" result="effect2_innerShadow_846_1763"/>
</filter>
<filter id="filter2_di_846_1763" x="162.553" y="92.6899" width="17.1995" height="26.2439" filterUnits="userSpaceOnUse" color-interpolation-filters="sRGB">
<feFlood flood-opacity="0" result="BackgroundImageFix"/>
<feColorMatrix in="SourceAlpha" type="matrix" values="0 0 0 0 0 0 0 0 0 0 0 0 0 0 0 0 0 0 127 0" result="hardAlpha"/>
<feOffset dx="1.06164" dy="1.06164"/>
<feGaussianBlur stdDeviation="0.530822"/>
<feColorMatrix type="matrix" values="0 0 0 0 0 0 0 0 0 0 0 0 0 0 0 0 0 0 0.3 0"/>
<feBlend mode="normal" in2="BackgroundImageFix" result="effect1_dropShadow_846_1763"/>
<feBlend mode="normal" in="SourceGraphic" in2="effect1_dropShadow_846_1763" result="shape"/>
<feColorMatrix in="SourceAlpha" type="matrix" values="0 0 0 0 0 0 0 0 0 0 0 0 0 0 0 0 0 0 127 0" result="hardAlpha"/>
<feOffset dx="1.06164" dy="1.06164"/>
<feGaussianBlur stdDeviation="0.530822"/>
<feComposite in2="hardAlpha" operator="arithmetic" k2="-1" k3="1"/>
<feColorMatrix type="matrix" values="0 0 0 0 0 0 0 0 0 0 0 0 0 0 0 0 0 0 0.3 0"/>
<feBlend mode="normal" in2="shape" result="effect2_innerShadow_846_1763"/>
</filter>
<linearGradient id="paint0_linear_846_1763" x1="245.899" y1="12.1348" x2="228.134" y2="128.75" gradientUnits="userSpaceOnUse">
<stop stop-color="#00AFFF"/>
<stop offset="1" stop-color="#0082BD"/>
</linearGradient>
<clipPath id="clip0_846_1763">
<rect width="268" height="155" fill="white" transform="translate(0.140625 0.486328)"/>
</clipPath>
</defs>
</svg>
