<svg width="507" height="900" viewBox="0 0 507 900" fill="none" xmlns="http://www.w3.org/2000/svg">
<rect width="507" height="900" fill="#1E1E1E"/>
<rect x="0.229492" width="507.166" height="900" fill="#02012D"/>
<rect x="5.34211" y="1.9519" width="141.525" height="140.16" rx="36" transform="matrix(0.909112 -0.416552 0.426416 0.904527 38.4271 40.6968)" stroke="url(#paint0_linear_0_1)" stroke-width="8"/>
<path d="M85.7011 713.542L91.9333 710.686C116.283 699.53 134.221 691.318 148.885 686.629C163.46 681.968 174.292 680.964 184.501 683.779C187.654 684.649 190.731 685.773 193.702 687.141C203.322 691.57 210.955 699.322 219.092 712.281C227.278 725.319 235.697 743.161 247.118 767.388C258.539 791.615 266.945 809.462 271.777 824.038C276.579 838.525 277.667 849.275 274.9 859.38C274.045 862.501 272.933 865.545 271.574 868.482C267.175 877.991 259.413 885.507 246.402 893.486C233.312 901.513 215.38 909.737 191.03 920.894L182.336 924.877C157.944 936.054 139.982 944.276 125.309 948.924C110.73 953.542 99.9194 954.452 89.7481 951.464C87.3108 950.748 84.9221 949.876 82.5974 948.851C72.896 944.578 65.2182 936.913 57.0505 923.983C48.8307 910.971 40.4006 893.106 28.9595 868.837C17.2588 844.017 8.647 825.732 3.74595 810.809C-1.12477 795.979 -2.1454 784.987 0.870045 774.666C1.59202 772.195 2.47638 769.775 3.51746 767.421C7.86566 757.588 15.7325 749.843 29.017 741.646C42.3842 733.398 60.7553 724.972 85.7011 713.542Z" stroke="url(#paint1_linear_0_1)" stroke-width="8"/>
<rect x="5.34211" y="1.9519" width="229.045" height="226.88" rx="59.4127" transform="matrix(0.909112 -0.416552 0.426416 0.904527 42.4843 223.153)" stroke="url(#paint2_linear_0_1)" stroke-width="8"/>
<rect x="5.34211" y="1.9519" width="179.644" height="177.93" rx="43" transform="matrix(0.909112 -0.416552 0.426416 0.904527 240.279 692.575)" stroke="url(#paint3_linear_0_1)" stroke-width="8"/>
<rect x="5.34211" y="1.9519" width="179.644" height="177.93" rx="42" transform="matrix(0.909112 -0.416552 0.426416 0.904527 275.781 112.575)" stroke="url(#paint4_linear_0_1)" stroke-width="8"/>
<rect x="0.229492" width="507.166" height="900" fill="url(#paint5_linear_0_1)" fill-opacity="0.65"/>
<defs>
<linearGradient id="paint0_linear_0_1" x1="13.7326" y1="141.992" x2="147.016" y2="106.661" gradientUnits="userSpaceOnUse">
<stop stop-color="#110B8B"/>
<stop offset="1" stop-color="#110B8B" stop-opacity="0"/>
</linearGradient>
<linearGradient id="paint1_linear_0_1" x1="304.617" y1="578.95" x2="92.1601" y2="874.48" gradientUnits="userSpaceOnUse">
<stop offset="0.191455" stop-color="#110B8B"/>
<stop offset="1" stop-color="#110B8B" stop-opacity="0"/>
</linearGradient>
<linearGradient id="paint2_linear_0_1" x1="-28.8225" y1="126.864" x2="315.919" y2="2.03349" gradientUnits="userSpaceOnUse">
<stop stop-color="#110B8B"/>
<stop offset="1" stop-color="#110B8B" stop-opacity="0"/>
</linearGradient>
<linearGradient id="paint3_linear_0_1" x1="213.435" y1="-34.0028" x2="-227.186" y2="102.776" gradientUnits="userSpaceOnUse">
<stop offset="0.0885417" stop-color="#110B8B"/>
<stop offset="1" stop-color="#110B8B" stop-opacity="0"/>
</linearGradient>
<linearGradient id="paint4_linear_0_1" x1="-27.8607" y1="137.897" x2="117.836" y2="38.31" gradientUnits="userSpaceOnUse">
<stop stop-color="#110B8B"/>
<stop offset="1" stop-color="#110B8B" stop-opacity="0"/>
</linearGradient>
<linearGradient id="paint5_linear_0_1" x1="10.3728" y1="900" x2="496.569" y2="-5.81113" gradientUnits="userSpaceOnUse">
<stop stop-color="#02012D"/>
<stop offset="1" stop-color="#02012D" stop-opacity="0"/>
</linearGradient>
</defs>
</svg>
