<svg width="720" height="283" viewBox="0 0 720 283" fill="none" xmlns="http://www.w3.org/2000/svg">
<path fill-rule="evenodd" clip-rule="evenodd" d="M77.7091 141.219H-0.000976562V167.098H32.3079L38.8533 179.366L45.3988 167.098H77.7091V141.219Z" fill="#9ED4FF"/>
<path d="M11.9568 151.498V158.148H10.8868V152.468H9.71676V151.498H11.9568ZM13.5045 156.868H14.7245V158.148H13.5045V156.868ZM18.2894 158.268C16.6694 158.268 15.6594 156.938 15.6594 154.818C15.6594 152.688 16.6594 151.378 18.2894 151.378C19.8994 151.378 20.9094 152.688 20.9094 154.818C20.9094 156.938 19.8894 158.268 18.2894 158.268ZM18.2894 157.248C19.2494 157.248 19.8194 156.358 19.8194 154.818C19.8194 153.288 19.2394 152.398 18.2894 152.398C17.3194 152.398 16.7494 153.288 16.7494 154.818C16.7494 156.358 17.3094 157.248 18.2894 157.248ZM24.5589 158.268C22.9389 158.268 21.9289 156.938 21.9289 154.818C21.9289 152.688 22.9289 151.378 24.5589 151.378C26.1689 151.378 27.1789 152.688 27.1789 154.818C27.1789 156.938 26.1589 158.268 24.5589 158.268ZM24.5589 157.248C25.5189 157.248 26.0889 156.358 26.0889 154.818C26.0889 153.288 25.5089 152.398 24.5589 152.398C23.5889 152.398 23.0189 153.288 23.0189 154.818C23.0189 156.358 23.5789 157.248 24.5589 157.248ZM30.8285 158.268C29.2085 158.268 28.1985 156.938 28.1985 154.818C28.1985 152.688 29.1985 151.378 30.8285 151.378C32.4385 151.378 33.4485 152.688 33.4485 154.818C33.4485 156.938 32.4285 158.268 30.8285 158.268ZM30.8285 157.248C31.7885 157.248 32.3585 156.358 32.3585 154.818C32.3585 153.288 31.7785 152.398 30.8285 152.398C29.8585 152.398 29.2885 153.288 29.2885 154.818C29.2885 156.358 29.8485 157.248 30.8285 157.248ZM34.618 154.808H37.828V155.888H34.618V154.808ZM43.0768 157.128V158.148H38.5268V157.858C41.4368 154.678 41.7868 154.138 41.7868 153.368C41.7868 152.788 41.3868 152.388 40.7868 152.388C40.1568 152.388 39.7468 152.798 39.7468 153.378V153.528H38.6668V153.378C38.6668 152.178 39.5168 151.368 40.7768 151.368C42.0168 151.368 42.8768 152.198 42.8768 153.368C42.8768 154.238 42.5268 154.948 40.5968 157.128H43.0768ZM44.1783 156.868H45.3983V158.148H44.1783V156.868ZM48.6479 153.888C50.0079 153.888 50.9779 154.828 50.9779 156.058C50.9779 157.328 49.9979 158.268 48.7079 158.268C47.4279 158.268 46.4779 157.368 46.4479 156.138H47.5279C47.5579 156.798 48.0479 157.248 48.7079 157.248C49.3879 157.248 49.8879 156.748 49.8879 156.058C49.8879 155.358 49.3479 154.838 48.6079 154.838H46.8479L46.7179 154.678L47.0779 151.498H50.5179V152.478H47.9479L47.7979 153.888H48.6479ZM54.5199 158.268C52.8999 158.268 51.8899 156.938 51.8899 154.818C51.8899 152.688 52.8899 151.378 54.5199 151.378C56.1299 151.378 57.1399 152.688 57.1399 154.818C57.1399 156.938 56.1199 158.268 54.5199 158.268ZM54.5199 157.248C55.4799 157.248 56.0499 156.358 56.0499 154.818C56.0499 153.288 55.4699 152.398 54.5199 152.398C53.5499 152.398 52.9799 153.288 52.9799 154.818C52.9799 156.358 53.5399 157.248 54.5199 157.248ZM60.7894 158.268C59.1694 158.268 58.1594 156.938 58.1594 154.818C58.1594 152.688 59.1594 151.378 60.7894 151.378C62.3994 151.378 63.4094 152.688 63.4094 154.818C63.4094 156.938 62.3894 158.268 60.7894 158.268ZM60.7894 157.248C61.7494 157.248 62.3194 156.358 62.3194 154.818C62.3194 153.288 61.7394 152.398 60.7894 152.398C59.8194 152.398 59.2494 153.288 59.2494 154.818C59.2494 156.358 59.8094 157.248 60.7894 157.248ZM69.2989 156.188C69.2989 157.328 68.4989 158.058 67.3089 158.208V158.978H66.4089V158.218C65.0989 158.068 64.3189 157.248 64.3189 155.998H65.4389C65.4389 156.758 66.0589 157.178 66.8389 157.178C67.5589 157.178 68.1789 156.798 68.1789 156.198C68.1789 155.538 67.4689 155.378 66.6689 155.188C65.6289 154.958 64.4289 154.678 64.4289 153.248C64.4289 152.168 65.1589 151.488 66.3289 151.348V150.638H67.2489V151.358C68.4289 151.518 69.1089 152.288 69.1089 153.438H68.0089C68.0089 152.738 67.4589 152.358 66.7589 152.358C66.0889 152.358 65.5289 152.658 65.5289 153.198C65.5289 153.818 66.2189 153.978 67.0089 154.168C68.0589 154.408 69.2989 154.708 69.2989 156.188Z" fill="black"/>
<path d="M29.3008 195.249C30.0977 200.525 35.0206 204.156 40.2965 203.359C45.5723 202.562 49.2032 197.639 48.4063 192.363C47.6093 187.087 42.6864 183.456 37.4106 184.253C32.1347 185.05 28.5039 189.973 29.3008 195.249ZM258.42 160.64C259.217 165.916 264.14 169.547 269.416 168.75C274.692 167.953 278.322 163.03 277.526 157.755C276.729 152.479 271.806 148.848 266.53 149.645C261.254 150.442 257.623 155.365 258.42 160.64ZM39.1241 195.597L268.243 160.989L267.702 157.406L38.583 192.015L39.1241 195.597Z" fill="#1CB8FF"/>
<path fill-rule="evenodd" clip-rule="evenodd" d="M306.827 104.615H229.117V130.495H261.426L267.972 142.763L274.517 130.495H306.827V104.615Z" fill="#9ED4FF"/>
<path d="M241.406 118.351V119.371H236.856V119.081C239.766 115.901 240.116 115.361 240.116 114.591C240.116 114.011 239.716 113.611 239.116 113.611C238.486 113.611 238.076 114.021 238.076 114.601V114.751H236.996V114.601C236.996 113.401 237.846 112.591 239.106 112.591C240.346 112.591 241.206 113.421 241.206 114.591C241.206 115.461 240.856 116.171 238.926 118.351H241.406ZM242.507 118.091H243.727V119.371H242.507V118.091ZM246.977 115.111C248.337 115.111 249.307 116.051 249.307 117.281C249.307 118.551 248.327 119.491 247.037 119.491C245.757 119.491 244.807 118.591 244.777 117.361H245.857C245.887 118.021 246.377 118.471 247.037 118.471C247.717 118.471 248.217 117.971 248.217 117.281C248.217 116.581 247.677 116.061 246.937 116.061H245.177L245.047 115.901L245.407 112.721H248.847V113.701H246.277L246.127 115.111H246.977ZM252.849 119.491C251.229 119.491 250.219 118.161 250.219 116.041C250.219 113.911 251.219 112.601 252.849 112.601C254.459 112.601 255.469 113.911 255.469 116.041C255.469 118.161 254.449 119.491 252.849 119.491ZM252.849 118.471C253.809 118.471 254.379 117.581 254.379 116.041C254.379 114.511 253.799 113.621 252.849 113.621C251.879 113.621 251.309 114.511 251.309 116.041C251.309 117.581 251.869 118.471 252.849 118.471ZM259.119 119.491C257.499 119.491 256.489 118.161 256.489 116.041C256.489 113.911 257.489 112.601 259.119 112.601C260.729 112.601 261.739 113.911 261.739 116.041C261.739 118.161 260.719 119.491 259.119 119.491ZM259.119 118.471C260.079 118.471 260.649 117.581 260.649 116.041C260.649 114.511 260.069 113.621 259.119 113.621C258.149 113.621 257.579 114.511 257.579 116.041C257.579 117.581 258.139 118.471 259.119 118.471ZM262.908 116.031H266.118V117.111H262.908V116.031ZM271.95 118.021H271.31V119.371H270.27V118.021H266.96V117.801L269.23 112.721H270.33L268.39 117.071H270.29L270.47 115.221H271.31V117.071H271.95V118.021ZM272.888 118.091H274.108V119.371H272.888V118.091ZM277.358 115.111C278.718 115.111 279.688 116.051 279.688 117.281C279.688 118.551 278.708 119.491 277.418 119.491C276.138 119.491 275.188 118.591 275.158 117.361H276.238C276.268 118.021 276.758 118.471 277.418 118.471C278.098 118.471 278.598 117.971 278.598 117.281C278.598 116.581 278.058 116.061 277.318 116.061H275.558L275.428 115.901L275.788 112.721H279.228V113.701H276.658L276.508 115.111H277.358ZM283.23 119.491C281.61 119.491 280.6 118.161 280.6 116.041C280.6 113.911 281.6 112.601 283.23 112.601C284.84 112.601 285.85 113.911 285.85 116.041C285.85 118.161 284.83 119.491 283.23 119.491ZM283.23 118.471C284.19 118.471 284.76 117.581 284.76 116.041C284.76 114.511 284.18 113.621 283.23 113.621C282.26 113.621 281.69 114.511 281.69 116.041C281.69 117.581 282.25 118.471 283.23 118.471ZM289.499 119.491C287.879 119.491 286.869 118.161 286.869 116.041C286.869 113.911 287.869 112.601 289.499 112.601C291.109 112.601 292.119 113.911 292.119 116.041C292.119 118.161 291.099 119.491 289.499 119.491ZM289.499 118.471C290.459 118.471 291.029 117.581 291.029 116.041C291.029 114.511 290.449 113.621 289.499 113.621C288.529 113.621 287.959 114.511 287.959 116.041C287.959 117.581 288.519 118.471 289.499 118.471ZM298.009 117.411C298.009 118.551 297.209 119.281 296.019 119.431V120.201H295.119V119.441C293.809 119.291 293.029 118.471 293.029 117.221H294.149C294.149 117.981 294.769 118.401 295.549 118.401C296.269 118.401 296.889 118.021 296.889 117.421C296.889 116.761 296.179 116.601 295.379 116.411C294.339 116.181 293.139 115.901 293.139 114.471C293.139 113.391 293.869 112.711 295.039 112.571V111.861H295.959V112.581C297.139 112.741 297.819 113.511 297.819 114.661H296.719C296.719 113.961 296.169 113.581 295.469 113.581C294.799 113.581 294.239 113.881 294.239 114.421C294.239 115.041 294.929 115.201 295.719 115.391C296.769 115.631 298.009 115.931 298.009 117.411Z" fill="black"/>
<path d="M258.445 160.791C259.325 166.053 264.304 169.606 269.567 168.726C274.83 167.846 278.382 162.867 277.502 157.604C276.622 152.341 271.643 148.789 266.38 149.669C261.118 150.549 257.565 155.528 258.445 160.791ZM470.802 125.282C471.682 130.545 476.661 134.098 481.924 133.218C487.187 132.338 490.739 127.358 489.859 122.096C488.979 116.833 484 113.28 478.737 114.16C473.475 115.04 469.922 120.02 470.802 125.282ZM268.272 160.984L480.629 125.476L480.032 121.902L267.675 157.411L268.272 160.984Z" fill="#1CB8FF"/>
<path fill-rule="evenodd" clip-rule="evenodd" d="M519.185 69.3896H441.475V95.2689H473.783L480.328 107.537L486.874 95.2689H519.185V69.3896Z" fill="#9ED4FF"/>
<path d="M452.342 82.7954H451.702V84.1454H450.662V82.7954H447.352V82.5754L449.622 77.4954H450.722L448.782 81.8454H450.682L450.862 79.9954H451.702V81.8454H452.342V82.7954ZM453.28 82.8654H454.5V84.1454H453.28V82.8654ZM457.75 79.8854C459.11 79.8854 460.08 80.8254 460.08 82.0554C460.08 83.3254 459.1 84.2654 457.81 84.2654C456.53 84.2654 455.58 83.3654 455.55 82.1354H456.63C456.66 82.7954 457.15 83.2454 457.81 83.2454C458.49 83.2454 458.99 82.7454 458.99 82.0554C458.99 81.3554 458.45 80.8354 457.71 80.8354H455.95L455.82 80.6754L456.18 77.4954H459.62V78.4754H457.05L456.9 79.8854H457.75ZM463.622 84.2654C462.002 84.2654 460.992 82.9354 460.992 80.8154C460.992 78.6854 461.992 77.3754 463.622 77.3754C465.232 77.3754 466.242 78.6854 466.242 80.8154C466.242 82.9354 465.222 84.2654 463.622 84.2654ZM463.622 83.2454C464.582 83.2454 465.152 82.3554 465.152 80.8154C465.152 79.2854 464.572 78.3954 463.622 78.3954C462.652 78.3954 462.082 79.2854 462.082 80.8154C462.082 82.3554 462.642 83.2454 463.622 83.2454ZM469.892 84.2654C468.272 84.2654 467.262 82.9354 467.262 80.8154C467.262 78.6854 468.262 77.3754 469.892 77.3754C471.502 77.3754 472.512 78.6854 472.512 80.8154C472.512 82.9354 471.492 84.2654 469.892 84.2654ZM469.892 83.2454C470.852 83.2454 471.422 82.3554 471.422 80.8154C471.422 79.2854 470.842 78.3954 469.892 78.3954C468.922 78.3954 468.352 79.2854 468.352 80.8154C468.352 82.3554 468.912 83.2454 469.892 83.2454ZM473.681 80.8054H476.891V81.8854H473.681V80.8054ZM479.682 77.4954V84.1454H478.612V78.4654H477.442V77.4954H479.682ZM483.72 84.2654C482.1 84.2654 481.09 82.9354 481.09 80.8154C481.09 78.6854 482.09 77.3754 483.72 77.3754C485.33 77.3754 486.34 78.6854 486.34 80.8154C486.34 82.9354 485.32 84.2654 483.72 84.2654ZM483.72 83.2454C484.68 83.2454 485.25 82.3554 485.25 80.8154C485.25 79.2854 484.67 78.3954 483.72 78.3954C482.75 78.3954 482.18 79.2854 482.18 80.8154C482.18 82.3554 482.74 83.2454 483.72 83.2454ZM487.275 82.8654H488.495V84.1454H487.275V82.8654ZM492.06 84.2654C490.44 84.2654 489.43 82.9354 489.43 80.8154C489.43 78.6854 490.43 77.3754 492.06 77.3754C493.67 77.3754 494.68 78.6854 494.68 80.8154C494.68 82.9354 493.66 84.2654 492.06 84.2654ZM492.06 83.2454C493.02 83.2454 493.59 82.3554 493.59 80.8154C493.59 79.2854 493.01 78.3954 492.06 78.3954C491.09 78.3954 490.52 79.2854 490.52 80.8154C490.52 82.3554 491.08 83.2454 492.06 83.2454ZM498.329 84.2654C496.709 84.2654 495.699 82.9354 495.699 80.8154C495.699 78.6854 496.699 77.3754 498.329 77.3754C499.939 77.3754 500.949 78.6854 500.949 80.8154C500.949 82.9354 499.929 84.2654 498.329 84.2654ZM498.329 83.2454C499.289 83.2454 499.859 82.3554 499.859 80.8154C499.859 79.2854 499.279 78.3954 498.329 78.3954C497.359 78.3954 496.789 79.2854 496.789 80.8154C496.789 82.3554 497.349 83.2454 498.329 83.2454ZM504.599 84.2654C502.979 84.2654 501.969 82.9354 501.969 80.8154C501.969 78.6854 502.969 77.3754 504.599 77.3754C506.209 77.3754 507.219 78.6854 507.219 80.8154C507.219 82.9354 506.199 84.2654 504.599 84.2654ZM504.599 83.2454C505.559 83.2454 506.129 82.3554 506.129 80.8154C506.129 79.2854 505.549 78.3954 504.599 78.3954C503.629 78.3954 503.059 79.2854 503.059 80.8154C503.059 82.3554 503.619 83.2454 504.599 83.2454ZM513.108 82.1854C513.108 83.3254 512.308 84.0554 511.118 84.2054V84.9754H510.218V84.2154C508.908 84.0654 508.128 83.2454 508.128 81.9954H509.248C509.248 82.7554 509.868 83.1754 510.648 83.1754C511.368 83.1754 511.988 82.7954 511.988 82.1954C511.988 81.5354 511.278 81.3754 510.478 81.1854C509.438 80.9554 508.238 80.6754 508.238 79.2454C508.238 78.1654 508.968 77.4854 510.138 77.3454V76.6354H511.058V77.3554C512.238 77.5154 512.918 78.2854 512.918 79.4354H511.818C511.818 78.7354 511.268 78.3554 510.568 78.3554C509.898 78.3554 509.338 78.6554 509.338 79.1954C509.338 79.8154 510.028 79.9754 510.818 80.1654C511.868 80.4054 513.108 80.7054 513.108 82.1854Z" fill="black"/>
<path d="M471.215 126.889C472.982 131.923 478.496 134.572 483.531 132.805C488.565 131.038 491.214 125.524 489.447 120.489C487.68 115.455 482.166 112.806 477.131 114.573C472.097 116.34 469.448 121.854 471.215 126.889ZM671.925 56.4382C673.692 61.4728 679.206 64.1215 684.24 62.3543C689.275 60.5872 691.924 55.0733 690.156 50.0387C688.389 45.0042 682.875 42.3555 677.841 44.1226C672.806 45.8898 670.158 51.4037 671.925 56.4382ZM480.931 125.398L681.64 54.9477L680.441 51.5292L479.731 121.98L480.931 125.398Z" fill="#1CB8FF"/>
<path fill-rule="evenodd" clip-rule="evenodd" d="M719.896 0.691406H642.186V26.5707H674.494L681.039 38.8386L687.585 26.5707H719.896V0.691406Z" fill="#9ED4FF"/>
<path d="M663.94 13.4871C663.94 14.6271 663.14 15.3571 661.95 15.5071V16.2771H661.05V15.5171C659.74 15.3671 658.96 14.5471 658.96 13.2971H660.08C660.08 14.0571 660.7 14.4771 661.48 14.4771C662.2 14.4771 662.82 14.0971 662.82 13.4971C662.82 12.8371 662.11 12.6771 661.31 12.4871C660.27 12.2571 659.07 11.9771 659.07 10.5471C659.07 9.46714 659.8 8.78714 660.97 8.64714V7.93714H661.89V8.65714C663.07 8.81714 663.75 9.58714 663.75 10.7371H662.65C662.65 10.0371 662.1 9.65714 661.4 9.65714C660.73 9.65714 660.17 9.95714 660.17 10.4971C660.17 11.1171 660.86 11.2771 661.65 11.4671C662.7 11.7071 663.94 12.0071 663.94 13.4871ZM666.862 8.79714V15.4471H665.792V9.76714H664.622V8.79714H666.862ZM670.899 15.5671C669.279 15.5671 668.269 14.2371 668.269 12.1171C668.269 9.98714 669.269 8.67714 670.899 8.67714C672.509 8.67714 673.519 9.98714 673.519 12.1171C673.519 14.2371 672.499 15.5671 670.899 15.5671ZM670.899 14.5471C671.859 14.5471 672.429 13.6571 672.429 12.1171C672.429 10.5871 671.849 9.69714 670.899 9.69714C669.929 9.69714 669.359 10.5871 669.359 12.1171C669.359 13.6571 669.919 14.5471 670.899 14.5471ZM674.454 14.1671H675.674V15.4471H674.454V14.1671ZM679.239 15.5671C677.619 15.5671 676.609 14.2371 676.609 12.1171C676.609 9.98714 677.609 8.67714 679.239 8.67714C680.849 8.67714 681.859 9.98714 681.859 12.1171C681.859 14.2371 680.839 15.5671 679.239 15.5671ZM679.239 14.5471C680.199 14.5471 680.769 13.6571 680.769 12.1171C680.769 10.5871 680.189 9.69714 679.239 9.69714C678.269 9.69714 677.699 10.5871 677.699 12.1171C677.699 13.6571 678.259 14.5471 679.239 14.5471ZM685.509 15.5671C683.889 15.5671 682.879 14.2371 682.879 12.1171C682.879 9.98714 683.879 8.67714 685.509 8.67714C687.119 8.67714 688.129 9.98714 688.129 12.1171C688.129 14.2371 687.109 15.5671 685.509 15.5671ZM685.509 14.5471C686.469 14.5471 687.039 13.6571 687.039 12.1171C687.039 10.5871 686.459 9.69714 685.509 9.69714C684.539 9.69714 683.969 10.5871 683.969 12.1171C683.969 13.6571 684.529 14.5471 685.509 14.5471ZM691.778 15.5671C690.158 15.5671 689.148 14.2371 689.148 12.1171C689.148 9.98714 690.148 8.67714 691.778 8.67714C693.388 8.67714 694.398 9.98714 694.398 12.1171C694.398 14.2371 693.378 15.5671 691.778 15.5671ZM691.778 14.5471C692.738 14.5471 693.308 13.6571 693.308 12.1171C693.308 10.5871 692.728 9.69714 691.778 9.69714C690.808 9.69714 690.238 10.5871 690.238 12.1171C690.238 13.6571 690.798 14.5471 691.778 14.5471ZM702.657 12.2771L700.967 10.5871V14.7671H699.977V10.5871L698.287 12.2771L697.667 11.5871L700.407 8.87714H700.537L703.267 11.5871L702.657 12.2771Z" fill="black"/>
<path d="M24.1217 271.59C24.9897 272.01 25.5077 272.906 25.5077 273.956C25.5077 275.496 24.1777 276.7 22.4977 276.7H18.4657V266.9H22.4137C24.0517 266.9 25.2557 267.978 25.2557 269.42C25.2557 270.274 24.8217 271.128 24.1217 271.59ZM23.6597 269.658C23.6597 268.916 23.0857 268.384 22.3157 268.384H20.0477V270.932H22.3157C23.0997 270.932 23.6597 270.372 23.6597 269.658ZM22.3997 275.16C23.2537 275.16 23.8697 274.586 23.8697 273.774C23.8697 272.976 23.2537 272.388 22.3997 272.388H20.0477V275.16H22.3997ZM34.5175 272.934C34.5175 273.102 34.5035 273.284 34.4895 273.452H28.3575C28.5395 274.67 29.4215 275.426 30.6675 275.426C31.5635 275.426 32.3055 275.006 32.6975 274.32H34.3355C33.7335 275.916 32.3475 276.882 30.6675 276.882C28.4555 276.882 26.7755 275.174 26.7755 272.92C26.7755 270.652 28.4555 268.958 30.6675 268.958C32.9775 268.958 34.5175 270.736 34.5175 272.934ZM30.6675 270.358C29.4915 270.358 28.6515 271.058 28.3855 272.192H32.9635C32.6835 271.044 31.8155 270.358 30.6675 270.358ZM43.3775 269.14V275.706C43.3775 278.128 41.9355 279.598 39.5975 279.598C37.6655 279.598 36.2935 278.59 35.9015 276.924H37.4555C37.7495 277.764 38.6315 278.212 39.5835 278.212C40.8995 278.212 41.8515 277.358 41.8515 275.916V275.58C41.1935 276.14 40.3255 276.476 39.3455 276.476C37.2455 276.476 35.6075 274.838 35.6075 272.724C35.6075 270.61 37.2455 268.958 39.3455 268.958C40.4515 268.958 41.4315 269.392 42.1035 270.12L42.3555 269.14H43.3775ZM39.5275 275.034C40.8715 275.034 41.8515 274.054 41.8515 272.724C41.8515 271.38 40.8715 270.4 39.5275 270.4C38.1835 270.4 37.1895 271.394 37.1895 272.724C37.1895 274.04 38.1835 275.034 39.5275 275.034ZM45.5594 266.368H47.1694V267.964H45.5594V266.368ZM45.5874 269.14H47.1414V276.7H45.5874V269.14ZM53.3512 268.972C55.1152 268.972 56.2212 270.288 56.2212 272.15V276.7H54.6672V272.458C54.6672 271.086 54.0652 270.358 52.9312 270.358C51.7412 270.358 50.9012 271.31 50.9012 272.654V276.7H49.3472V269.14H50.4252L50.7332 270.19C51.3072 269.434 52.2452 268.972 53.3512 268.972ZM62.3336 268.972C64.0976 268.972 65.2036 270.288 65.2036 272.15V276.7H63.6496V272.458C63.6496 271.086 63.0476 270.358 61.9136 270.358C60.7236 270.358 59.8836 271.31 59.8836 272.654V276.7H58.3296V269.14H59.4076L59.7156 270.19C60.2896 269.434 61.2276 268.972 62.3336 268.972ZM74.4941 272.934C74.4941 273.102 74.4801 273.284 74.4661 273.452H68.3341C68.5161 274.67 69.3981 275.426 70.6441 275.426C71.5401 275.426 72.2821 275.006 72.6741 274.32H74.3121C73.7101 275.916 72.3241 276.882 70.6441 276.882C68.4321 276.882 66.7521 275.174 66.7521 272.92C66.7521 270.652 68.4321 268.958 70.6441 268.958C72.9541 268.958 74.4941 270.736 74.4941 272.934ZM70.6441 270.358C69.4681 270.358 68.6281 271.058 68.3621 272.192H72.9401C72.6601 271.044 71.7921 270.358 70.6441 270.358ZM80.4421 269.098V270.568H79.6301C78.3421 270.568 77.6981 271.296 77.6981 272.668V276.7H76.1441V269.14H77.1941L77.4601 270.176C78.0061 269.448 78.7481 269.098 79.7701 269.098H80.4421Z" fill="black"/>
<path d="M254.086 276.7L252.938 269.602L249.76 276.546H249.354L246.162 269.602L245.014 276.7H243.376L244.972 266.9H246.554L249.55 273.564L252.546 266.9H254.142L255.724 276.7H254.086ZM257.347 266.368H258.957V267.964H257.347V266.368ZM257.375 269.14H258.929V276.7H257.375V269.14ZM268.554 266.424V276.7H267.378L267.182 275.846C266.496 276.504 265.572 276.882 264.508 276.882C262.226 276.882 260.574 275.188 260.574 272.92C260.574 270.638 262.226 268.958 264.508 268.958C265.474 268.958 266.342 269.28 267 269.84V266.424H268.554ZM264.634 275.398C266.062 275.398 267.112 274.32 267.112 272.92C267.112 271.506 266.062 270.442 264.634 270.442C263.206 270.442 262.17 271.492 262.17 272.92C262.17 274.348 263.206 275.398 264.634 275.398ZM278.193 266.424V276.7H277.017L276.821 275.846C276.135 276.504 275.211 276.882 274.147 276.882C271.865 276.882 270.213 275.188 270.213 272.92C270.213 270.638 271.865 268.958 274.147 268.958C275.113 268.958 275.981 269.28 276.639 269.84V266.424H278.193ZM274.273 275.398C275.701 275.398 276.751 274.32 276.751 272.92C276.751 271.506 275.701 270.442 274.273 270.442C272.845 270.442 271.809 271.492 271.809 272.92C271.809 274.348 272.845 275.398 274.273 275.398ZM280.412 266.424H281.966V276.7H280.412V266.424ZM291.353 272.934C291.353 273.102 291.339 273.284 291.325 273.452H285.193C285.375 274.67 286.257 275.426 287.503 275.426C288.399 275.426 289.141 275.006 289.533 274.32H291.171C290.569 275.916 289.183 276.882 287.503 276.882C285.291 276.882 283.611 275.174 283.611 272.92C283.611 270.652 285.291 268.958 287.503 268.958C289.813 268.958 291.353 270.736 291.353 272.934ZM287.503 270.358C286.327 270.358 285.487 271.058 285.221 272.192H289.799C289.519 271.044 288.651 270.358 287.503 270.358Z" fill="black"/>
<path d="M458.696 276.854C456.498 276.854 455 275.622 455 273.62H456.624C456.624 274.712 457.534 275.314 458.682 275.314C459.718 275.314 460.614 274.768 460.614 273.872C460.614 272.892 459.564 272.64 458.374 272.36C456.876 271.996 455.154 271.59 455.154 269.56C455.154 267.796 456.498 266.76 458.584 266.76C460.712 266.76 461.972 267.908 461.972 269.756H460.376C460.376 268.776 459.578 268.258 458.556 268.258C457.576 268.258 456.764 268.706 456.764 269.504C456.764 270.4 457.772 270.652 458.934 270.932C460.46 271.31 462.252 271.744 462.252 273.844C462.252 275.804 460.67 276.854 458.696 276.854ZM471.162 272.934C471.162 273.102 471.148 273.284 471.134 273.452H465.002C465.184 274.67 466.066 275.426 467.312 275.426C468.208 275.426 468.95 275.006 469.342 274.32H470.98C470.378 275.916 468.992 276.882 467.312 276.882C465.1 276.882 463.42 275.174 463.42 272.92C463.42 270.652 465.1 268.958 467.312 268.958C469.622 268.958 471.162 270.736 471.162 272.934ZM467.312 270.358C466.136 270.358 465.296 271.058 465.03 272.192H469.608C469.328 271.044 468.46 270.358 467.312 270.358ZM476.816 268.972C478.58 268.972 479.686 270.288 479.686 272.15V276.7H478.132V272.458C478.132 271.086 477.53 270.358 476.396 270.358C475.206 270.358 474.366 271.31 474.366 272.654V276.7H472.812V269.14H473.89L474.198 270.19C474.772 269.434 475.71 268.972 476.816 268.972ZM481.766 266.368H483.376V267.964H481.766V266.368ZM481.794 269.14H483.348V276.7H481.794V269.14ZM489.04 276.882C486.73 276.882 484.994 275.188 484.994 272.92C484.994 270.638 486.73 268.958 489.04 268.958C491.35 268.958 493.086 270.638 493.086 272.92C493.086 275.188 491.35 276.882 489.04 276.882ZM489.04 275.398C490.468 275.398 491.504 274.362 491.504 272.92C491.504 271.478 490.468 270.442 489.04 270.442C487.612 270.442 486.576 271.478 486.576 272.92C486.576 274.362 487.612 275.398 489.04 275.398ZM499.04 269.098V270.568H498.228C496.94 270.568 496.296 271.296 496.296 272.668V276.7H494.742V269.14H495.792L496.058 270.176C496.604 269.448 497.346 269.098 498.368 269.098H499.04Z" fill="black"/>
<path d="M668.624 268.398H665.74V276.7H664.144V268.398H661.26V266.9H668.624V268.398ZM674.295 276.882C671.327 276.882 669.129 274.698 669.129 271.8C669.129 268.902 671.327 266.718 674.295 266.718C677.277 266.718 679.461 268.888 679.461 271.8C679.461 274.712 677.277 276.882 674.295 276.882ZM674.295 275.342C676.325 275.342 677.823 273.816 677.823 271.8C677.823 269.77 676.325 268.258 674.295 268.258C672.279 268.258 670.767 269.784 670.767 271.8C670.767 273.802 672.279 275.342 674.295 275.342ZM684.951 266.9C686.841 266.9 688.283 268.272 688.283 270.134C688.283 271.982 686.855 273.368 684.951 273.368H682.935V276.7H681.325V266.9H684.951ZM684.867 271.842C685.917 271.842 686.659 271.128 686.659 270.134C686.659 269.154 685.917 268.426 684.867 268.426H682.935V271.842H684.867Z" fill="black"/>
<path d="M17.2197 250.806L702.675 250.806" stroke="black" stroke-width="1.44917" stroke-linecap="round"/>
</svg>
