<svg width="81" height="72" viewBox="0 0 81 72" fill="none" xmlns="http://www.w3.org/2000/svg">
<g clip-path="url(#clip0_78_2344)">
<path d="M77.5521 25.8735C75.7776 26.0341 74.4068 27.4863 74.3265 29.2602L74.1648 32.6476L74.0036 29.2602C73.9233 27.4863 72.552 26.0346 70.778 25.8735C72.552 25.7123 73.9233 24.2607 74.0036 22.4862L74.1648 19.5026L74.3265 22.4862C74.4068 24.2607 75.7776 25.7123 77.5521 25.8735ZM68.2785 16.7605L68.3593 17.4057C68.4402 17.9701 69.0046 18.2924 69.4886 18.0504L70.1333 17.7281L69.5689 18.1313C69.0849 18.4536 69.0849 19.0988 69.5689 19.4217L70.1333 19.8249L69.4886 19.502C69.0046 19.26 68.3593 19.5829 68.3593 20.1473L68.2785 21.0345V20.309C68.1982 19.7441 67.6338 19.4217 67.1497 19.6638L66.5045 19.9861L67.0689 19.5829C67.5529 19.2606 67.5529 18.6153 67.0689 18.2924L66.5045 17.8089L67.1497 18.1313C67.6338 18.3733 68.2785 18.0504 68.2785 17.486V16.7605Z" fill="#D5E0D5"/>
<path d="M21.8281 33.6949C17.3121 34.5822 12.9572 36.1141 8.92518 38.2918C6.10279 39.8238 4.00593 42.3238 2.95749 45.3074C1.3447 49.9043 2.39313 54.9847 5.78045 58.5332C8.52199 61.4359 12.1508 63.2908 16.1833 63.694C20.9409 64.2589 25.699 64.0972 30.4571 63.2105L27.0697 32.6465L21.8281 33.6949Z" fill="url(#paint0_radial_78_2344)"/>
<path d="M21.8281 33.6949C17.3121 34.5822 12.9572 36.1141 8.92518 38.2918C6.10279 39.8238 4.00593 42.3238 2.95749 45.3074C1.3447 49.9043 2.39313 54.9847 5.78045 58.5332C8.52199 61.4359 12.1508 63.2908 16.1833 63.694C20.9409 64.2589 25.699 64.0972 30.4571 63.2105L27.0697 32.6465L21.8281 33.6949Z" fill="url(#paint1_radial_78_2344)"/>
<path d="M63.1982 4.25952C59.4858 2.95011 55.7761 1.63306 52.0692 0.308382C50.2952 -0.256541 48.4404 0.0663513 46.9085 0.38869L14.2482 6.59841L26.7474 71.9999L76.0203 62.5645L65.295 6.43724C65.2142 5.87232 64.8918 5.14678 64.0046 4.58186C63.7626 4.50155 63.5205 4.34038 63.1982 4.25952Z" fill="url(#paint2_linear_78_2344)"/>
<path d="M22.9568 52.6458C23.6823 51.6783 24.3275 50.7107 24.8919 49.6623L25.0536 49.4202L34.4081 46.3558C36.4241 45.7106 37.4725 43.5334 36.9081 41.5983C36.2629 39.6626 34.3272 38.5333 32.3112 39.0173C28.6824 39.9046 24.9728 40.711 21.2631 41.2754L20.7796 41.3557L22.9568 52.6458Z" fill="#9AAA97"/>
<path d="M63.1981 4.25973C59.0049 2.80865 53.1181 0.630932 52.0696 0.308594C54.0856 1.03413 58.682 7.48588 58.682 7.48588C59.8113 6.92096 61.3432 3.2113 64.0853 4.66293C63.7624 4.50231 63.521 4.34059 63.1981 4.25973Z" fill="url(#paint3_linear_78_2344)"/>
<path d="M45.9404 17.8072L28.2794 21.1945C28.0373 21.2748 27.7953 21.1136 27.7953 20.8716C27.715 20.6296 27.8762 20.3881 28.1182 20.3881L45.7787 17.0008C46.0207 16.9199 46.2628 17.0816 46.2628 17.3231C46.3431 17.5651 46.1819 17.7269 45.9404 17.8072ZM57.5535 30.3075L31.022 35.3885C30.78 35.4688 30.5385 35.3076 30.5385 35.0656C30.4577 34.8235 30.6188 34.5821 30.8609 34.5821L57.3923 29.5011C57.6343 29.4208 57.8763 29.5819 57.8763 29.824C57.8763 30.066 57.7955 30.3075 57.5535 30.3075ZM58.3593 34.6629L31.8279 39.7434C31.5858 39.8237 31.3444 39.6625 31.3444 39.4205C31.2635 39.179 31.4247 38.937 31.6667 38.937L58.1981 33.8565C58.4402 33.7757 58.6822 33.9368 58.6822 34.1789C58.7625 34.4209 58.6013 34.6629 58.3593 34.6629ZM59.1657 39.0981L32.6343 44.1786C32.3922 44.2589 32.1508 44.0977 32.1508 43.8557C32.0699 43.6136 32.2311 43.3722 32.4731 43.3722L59.0045 38.2912C59.2466 38.2109 59.4886 38.372 59.4886 38.6141C59.5689 38.7752 59.4077 39.0173 59.1657 39.0981ZM60.053 43.453L33.5215 48.5334C33.2795 48.6143 33.0375 48.4526 33.0375 48.2111C32.9572 47.9691 33.1183 47.727 33.3604 47.727L59.8918 42.6461C60.1338 42.5652 60.3753 42.7264 60.3753 42.9684C60.3753 43.2104 60.295 43.3722 60.053 43.453ZM60.8588 47.8068L34.3274 52.8872C34.0853 52.9681 33.8433 52.8069 33.8433 52.5649C33.763 52.3229 33.9242 52.0808 34.1662 52.0808L60.6976 47.0004C60.9397 46.9201 61.1811 47.0813 61.1811 47.3233C61.262 47.5648 61.1008 47.8068 60.8588 47.8068Z" fill="#00AFFF"/>
<path d="M14.3278 56.0325C18.2795 54.5006 21.7471 51.7585 24.1669 48.2106L24.3275 47.9685L34.0049 46.0329C36.1017 45.6297 37.3922 43.6137 36.989 41.5977C36.5858 39.5817 34.731 38.2912 32.7953 38.5332C29.0747 39.0191 25.3347 39.342 21.586 39.5008L18.5216 39.662L12.3118 39.9849" fill="url(#paint4_radial_78_2344)"/>
<path d="M14.3278 56.0325C18.2795 54.5006 21.7471 51.7585 24.1669 48.2106L24.3275 47.9685L34.0049 46.0329C36.1017 45.6297 37.3922 43.6137 36.989 41.5977C36.5858 39.5817 34.731 38.2912 32.7953 38.5332C29.0747 39.0191 25.3347 39.342 21.586 39.5008L18.5216 39.662L12.3118 39.9849" fill="url(#paint5_radial_78_2344)"/>
<path opacity="0.5" d="M34.0852 39.2588C34.0049 38.9359 33.682 38.6136 33.2788 38.4524H32.8756C31.908 38.613 30.8596 38.6944 29.892 38.7747C29.2468 39.0976 28.8436 39.5811 28.9239 40.0652C29.0856 40.7907 30.2952 41.1939 31.7469 40.9525C33.1176 40.7907 34.1661 39.9843 34.0852 39.2588Z" fill="url(#paint6_radial_78_2344)"/>
<path opacity="0.5" d="M34.0852 39.2589C34.0852 39.1786 34.0049 39.0977 34.0049 39.0168C34.1661 39.7424 33.0368 40.5493 31.666 40.7914C30.3756 41.0328 29.2468 40.7105 28.9245 40.1461C29.0851 40.8717 30.2953 41.2749 31.7469 41.0328C33.1177 40.7914 34.1661 39.985 34.0852 39.2589Z" fill="url(#paint7_radial_78_2344)"/>
<path d="M76.8273 25.2277C75.0534 25.3883 73.6826 26.8405 73.6017 28.6145L73.4406 32.0018L73.2794 28.6145C73.1985 26.8405 71.8278 25.3889 70.0533 25.2277C71.8278 25.0666 73.1985 23.6149 73.2794 21.8404L73.4406 18.8568L73.6017 21.8404C73.6826 23.6149 75.0534 24.9857 76.8273 25.2277ZM67.5526 16.1147L67.6335 16.76C67.7138 17.3243 68.2782 17.6467 68.7622 17.4047L69.4075 17.0823L68.8431 17.4855C68.359 17.8079 68.359 18.4531 68.8431 18.776L69.4075 19.1792L68.7622 18.8563C68.2782 18.6143 67.6335 18.9371 67.6335 19.5015L67.5526 20.1467L67.4718 19.6627C67.3915 19.0983 66.8271 18.776 66.343 19.0175L65.6978 19.3403L66.2622 18.9371C66.7462 18.6143 66.7462 17.9696 66.2622 17.6467L65.6978 17.2435L66.343 17.5664C66.8271 17.8079 67.4718 17.4855 67.4718 16.9211L67.5526 16.1147Z" fill="#FCCD81"/>
</g>
<defs>
<radialGradient id="paint0_radial_78_2344" cx="0" cy="0" r="1" gradientUnits="userSpaceOnUse" gradientTransform="translate(21.199 45.6464) rotate(-16.7388) scale(25.1957 17.4101)">
<stop offset="0.613" stop-color="#A18085"/>
<stop offset="1" stop-color="#6D565B"/>
</radialGradient>
<radialGradient id="paint1_radial_78_2344" cx="0" cy="0" r="1" gradientUnits="userSpaceOnUse" gradientTransform="translate(31.495 43.2211) rotate(-16.739) scale(19.0243 9.58558)">
<stop offset="0.72" stop-color="#969164"/>
<stop offset="1" stop-color="#6D565B" stop-opacity="0"/>
</radialGradient>
<linearGradient id="paint2_linear_78_2344" x1="38.1472" y1="65.3149" x2="54.7376" y2="8.12757" gradientUnits="userSpaceOnUse">
<stop offset="0.35" stop-color="#F2F7F2"/>
<stop offset="0.79" stop-color="#DDE6DD"/>
<stop offset="0.93" stop-color="#D5E0D5"/>
</linearGradient>
<linearGradient id="paint3_linear_78_2344" x1="55.1202" y1="7.18404" x2="57.2426" y2="2.51678" gradientUnits="userSpaceOnUse">
<stop offset="0.264" stop-color="#E4EBE4"/>
<stop offset="1" stop-color="#F2F7F2"/>
</linearGradient>
<radialGradient id="paint4_radial_78_2344" cx="0" cy="0" r="1" gradientUnits="userSpaceOnUse" gradientTransform="translate(12.231 48.4825) rotate(-51.5898) scale(17.4828 10.6646)">
<stop offset="0.613" stop-color="#A18085"/>
<stop offset="1" stop-color="#6D565B"/>
</radialGradient>
<radialGradient id="paint5_radial_78_2344" cx="0" cy="0" r="1" gradientUnits="userSpaceOnUse" gradientTransform="translate(29.0549 35.4078) rotate(-9.735) scale(22.8219 12.4598)">
<stop offset="0.613" stop-color="#A18080"/>
<stop offset="1" stop-color="#A18085" stop-opacity="0"/>
</radialGradient>
<radialGradient id="paint6_radial_78_2344" cx="0" cy="0" r="1" gradientUnits="userSpaceOnUse" gradientTransform="translate(29.8721 38.2497) scale(5.33284)">
<stop offset="0.426" stop-color="#E4EBE4"/>
<stop offset="1" stop-color="#D5E0D5" stop-opacity="0"/>
</radialGradient>
<radialGradient id="paint7_radial_78_2344" cx="0" cy="0" r="1" gradientUnits="userSpaceOnUse" gradientTransform="translate(29.8799 38.8285) scale(5.00849)">
<stop offset="0.426" stop-color="#E4EBE4"/>
<stop offset="1" stop-color="#D5E0D5" stop-opacity="0"/>
</radialGradient>
<clipPath id="clip0_78_2344">
<rect width="80.3077" height="72" fill="white"/>
</clipPath>
</defs>
</svg>
