<svg width="100" height="101" viewBox="0 0 100 101" fill="none" xmlns="http://www.w3.org/2000/svg">
<mask id="mask0_131_1547" style="mask-type:alpha" maskUnits="userSpaceOnUse" x="0" y="0" width="100" height="101">
<rect y="0.155762" width="100" height="100" rx="50" fill="black"/>
</mask>
<g mask="url(#mask0_131_1547)">
</g>
<g clip-path="url(#clip0_131_1547)">
<path d="M49.9995 44.9841V56.966H66.6503C65.9191 60.8193 63.725 64.0821 60.4342 66.2759L70.4753 74.0669C76.3256 68.6668 79.7008 60.7351 79.7008 51.3129C79.7008 49.1191 79.5039 47.0094 79.1382 44.9845L49.9995 44.9841Z" fill="#4285F4"/>
<path d="M32.6602 56.4983L30.3955 58.2318L22.3794 64.4758C27.4702 74.573 37.9043 81.5485 49.9986 81.5485C58.3519 81.5485 65.3552 78.7921 70.4744 74.067L60.4333 66.2759C57.6769 68.1322 54.1611 69.2574 49.9986 69.2574C41.9545 69.2574 35.12 63.8291 32.6728 56.5162L32.6602 56.4983Z" fill="#34A853"/>
<path d="M22.3797 36.7432C20.2703 40.9057 19.061 45.6029 19.061 50.6093C19.061 55.6157 20.2703 60.3128 22.3797 64.4754C22.3797 64.5033 32.6741 56.4875 32.6741 56.4875C32.0553 54.6311 31.6896 52.6624 31.6896 50.6089C31.6896 48.5554 32.0553 46.5867 32.6741 44.7304L22.3797 36.7432Z" fill="#FBBC05"/>
<path d="M49.9992 31.9897C54.5557 31.9897 58.6059 33.5648 61.8404 36.6025L70.7001 27.7428C65.3279 22.7364 58.3528 19.6704 49.9992 19.6704C37.905 19.6704 27.4702 26.6176 22.3794 36.7431L32.6735 44.731C35.1203 37.4181 41.9551 31.9897 49.9992 31.9897Z" fill="#EA4335"/>
</g>
<defs>
<clipPath id="clip0_131_1547">
<rect width="61.8779" height="61.8779" fill="white" transform="translate(19.061 19.6704)"/>
</clipPath>
</defs>
</svg>
