<svg width="268" height="310" viewBox="0 0 268 310" fill="none" xmlns="http://www.w3.org/2000/svg">
<mask id="mask0_846_1653" style="mask-type:luminance" maskUnits="userSpaceOnUse" x="0" y="1" width="268" height="243">
<path d="M146.193 243.586C162.844 243.608 179.319 240.18 194.579 233.516C211.358 226.17 226.256 215.121 238.158 201.199C256.978 179.244 267.302 151.269 267.257 122.351C267.257 55.3979 213.054 1.11914 146.193 1.11914C110.118 1.11914 77.7281 16.9195 55.5511 41.9891H45.7196C45.6541 41.2319 45.5344 40.4804 45.3613 39.7403C45.0766 38.4797 44.6198 37.2642 44.0038 36.1281C43.6822 35.5397 43.3088 34.9811 42.8881 34.4589C42.4493 33.91 41.9466 33.4151 41.3908 32.9849C40.8021 32.5268 40.1456 32.1632 39.4449 31.9071C38.7119 31.6459 37.9357 31.5273 37.1582 31.5575C36.3923 31.5991 35.6416 31.788 34.9472 32.1139C34.2265 32.4635 33.572 32.9356 33.0129 33.5093L32.8381 33.6899C32.7537 33.7773 32.675 33.8676 32.5964 33.9579L32.5061 34.0657L32.4361 34.1531C32.3571 34.252 32.2794 34.352 32.2031 34.4531L32.1157 34.5696C32.0487 34.6628 31.9817 34.7531 31.9205 34.8493C31.5721 35.3735 31.2662 35.9249 31.0058 36.4981C30.5096 37.6052 30.1487 38.7681 29.9309 39.9617C29.8028 40.6318 29.7133 41.3087 29.6629 41.9891H32.474C32.5294 41.5172 32.6109 41.0482 32.7216 40.5909C32.9459 39.6529 33.2809 38.7498 33.7354 37.9604C33.9597 37.5642 34.216 37.203 34.4928 36.8767C34.7666 36.5476 35.0695 36.2738 35.3783 36.0553C35.6842 35.8368 36.0017 35.6882 36.3018 35.6008C36.5804 35.5245 36.8712 35.5027 37.1582 35.5367C37.4308 35.5808 37.6933 35.6735 37.9331 35.8106C38.1807 35.9562 38.4254 36.1572 38.6613 36.399C39.1391 36.8855 39.5556 37.5759 39.8848 38.3333C40.214 39.0936 40.4587 39.9384 40.6131 40.8094C40.6859 41.1968 40.7412 41.593 40.7791 41.9891H5.12636C2.32984 41.9891 0.0664062 44.2555 0.0664062 47.0491V187.012C0.0664062 189.809 2.33275 192.072 5.12636 192.072H47.1441C69.0502 223.23 105.248 243.586 146.193 243.586Z" fill="white"/>
</mask>
<g mask="url(#mask0_846_1653)">
<path d="M146.195 243.586C213.055 243.586 267.258 189.308 267.258 122.351C267.258 55.3979 213.055 1.11914 146.195 1.11914C79.3349 1.11914 25.1348 55.3979 25.1348 122.351C25.1348 189.308 79.3349 243.586 146.195 243.586Z" fill="#6FCFFB" fill-opacity="0.79"/>
<g filter="url(#filter0_di_846_1653)">
<path d="M184.242 41.9893H5.1215C2.32857 41.9893 0.0644531 44.2534 0.0644531 47.0463V187.015C0.0644531 189.808 2.32857 192.072 5.1215 192.072H184.242C187.035 192.072 189.299 189.808 189.299 187.015V47.0463C189.299 44.2534 187.035 41.9893 184.242 41.9893Z" fill="url(#paint0_linear_846_1653)"/>
</g>
<g filter="url(#filter1_d_846_1653)">
<path d="M8.9668 50.5737H182.159V183.706H8.9668V50.5737Z" fill="white"/>
</g>
<path d="M89.4944 104.797H61.168V133.124H89.4944V104.797Z" fill="#00AFFF"/>
<path d="M51.8616 68.7803H23.5352V97.1067H51.8616V68.7803ZM51.8616 104.797H23.5352V133.124H51.8616V104.797ZM23.5381 140.808H51.8616V169.135H23.5352L23.5381 140.808ZM89.4952 68.7803H61.1688V97.1067H89.4952V68.7803ZM61.1717 140.808H89.4981V169.135H61.1717V140.808ZM127.126 68.7803H98.8024V97.1067H127.129L127.126 68.7803ZM98.8024 104.797H127.129V133.124H98.8024V104.797ZM127.126 140.808H98.8024V169.135H127.129L127.126 140.808ZM136.436 68.7803H164.762V97.1067H136.436V68.7803ZM164.762 104.797H136.436V133.124H164.762V104.797ZM136.436 140.808H164.762V169.135H136.436V140.808Z" fill="#F3F2F1"/>
<path d="M238.159 201.199C228.197 193.695 220.119 187.417 218.479 185.661C214.704 181.614 212.041 181.256 209.323 180.892C208.295 180.752 207.264 180.612 206.16 180.274C202.958 179.29 202.227 178.264 200.348 175.648C199.865 174.973 199.302 174.192 198.606 173.277C195.198 168.82 186.226 160.09 183.251 158.543C181.777 157.774 179.77 155.697 177.373 153.215C174.938 150.695 172.1 147.759 169.013 145.356C164.241 141.644 160.183 142.437 157.448 142.967C156.673 143.118 156.003 143.25 155.452 143.25C154.2 143.25 153.55 142.853 152.906 142.463C152.28 142.078 151.662 141.703 150.5 141.703C149.218 141.703 148.342 142.547 147.406 143.451C146.629 144.199 145.807 144.989 144.68 145.356C143.436 145.761 142.708 145.335 141.717 144.758C140.736 144.188 139.5 143.465 137.252 143.25C133.068 142.85 129.841 148.015 128.745 149.769C128.658 149.912 128.582 150.031 128.521 150.121C127.717 151.359 125.631 152.539 123.278 150.928C121.949 150.019 118.669 146.908 115.838 144.225C113.662 142.163 111.751 140.351 111.189 139.975C110.524 139.535 109.636 138.554 108.66 137.485C107.719 136.448 106.703 135.329 105.738 134.528C102.039 131.446 99.4228 130.129 97.2584 130.316C95.0911 130.502 92.985 131.306 93.2967 135.332C93.5414 138.545 104.133 150.518 108.925 155.939C110.134 157.308 110.976 158.255 111.186 158.543C112.24 159.967 115.471 165.193 116.604 167.116C117.437 168.532 118.127 170.787 118.899 173.295C119.872 176.461 120.971 180.041 122.64 182.873C122.64 182.873 121.378 182.887 111.867 177.734C99.9821 171.296 87.6599 177.364 86.7948 180.953C85.9267 184.545 89.1456 187.516 97.9372 189.561C106.729 191.6 120.225 201.076 121.836 202.746L122.11 203.037C123.616 204.616 125.165 206.247 132.052 207.823C136.436 208.825 140.17 210.319 143.931 211.823C146.436 212.825 148.953 213.83 151.677 214.695C157.124 216.428 159.024 216.326 159.292 216.058C169.65 213.128 173.775 216.256 181.308 221.966C182.689 223.014 184.184 224.145 185.853 225.345C187.982 226.877 191.032 229.79 194.577 233.516C211.356 226.169 226.256 215.12 238.159 201.199Z" fill="url(#paint1_linear_846_1653)"/>
<path d="M88.8548 178.678L95.8781 180.63L95.5344 188.981C95.5344 188.981 85.7786 187.213 86.2825 182.214C86.5068 179.98 87.9954 178.923 88.8548 178.678ZM93.1602 132.203C93.1602 132.827 93.1602 134.379 97.4162 132.538C99.3796 131.688 100.868 131.49 101.5 131.495C100.72 130.158 97.1482 130.126 95.9655 130.371C94.4362 130.688 93.1632 131.973 93.1632 132.206L93.1602 132.203Z" fill="#F7C8B8"/>
<path d="M45.7907 43.4893C45.7848 44.7419 45.6567 46.0003 45.3654 47.2384C45.0741 48.4764 44.6429 49.697 44.005 50.8505C43.6904 51.4331 43.3175 51.9866 42.8893 52.5197C42.4512 53.0684 41.9495 53.5632 41.3949 53.9937C40.8239 54.4365 40.1714 54.8123 39.449 55.0715C38.7265 55.3308 37.9342 55.4561 37.1593 55.4211C36.3946 55.3801 35.6449 55.1922 34.9512 54.8676C34.2302 54.5172 33.5749 54.0452 33.0141 53.4723L32.8393 53.2917C32.7548 53.2043 32.6761 53.114 32.5975 53.0237L32.5072 52.9159L32.4431 52.8372C32.361 52.7363 32.2813 52.6333 32.2042 52.5284L32.1168 52.4119C31.7054 51.834 31.3475 51.2197 31.0478 50.5767H34.9454C35.0882 50.7049 35.2338 50.8214 35.3795 50.9234C35.6853 51.1418 36.0028 51.2904 36.3029 51.3778C36.6058 51.4564 36.8855 51.4739 37.1593 51.439C37.4319 51.3965 37.6945 51.3047 37.9342 51.1681C38.2024 51.0046 38.4474 50.8056 38.6625 50.5767C39.1402 50.0902 39.5568 49.4027 39.8859 48.6454C40.218 47.8821 40.4598 47.0374 40.6142 46.1693C40.9368 44.3972 40.9368 42.5814 40.6142 40.8093C40.4665 39.9589 40.2221 39.1281 39.8859 38.3332C39.5957 37.6212 39.1814 36.9663 38.6625 36.3989C38.4472 36.171 38.2022 35.9731 37.9342 35.8105C37.6944 35.6735 37.432 35.5807 37.1593 35.5367C36.8724 35.5027 36.5816 35.5244 36.3029 35.6007C36.0028 35.6881 35.6853 35.8367 35.3795 36.0552C35.0505 36.2902 34.7529 36.5663 34.4939 36.8767C34.2078 37.2132 33.9542 37.576 33.7365 37.9603C33.2821 38.7497 32.95 39.6499 32.7228 40.5879C32.6117 41.0494 32.529 41.5174 32.4751 41.9891H29.6641C29.7136 41.3132 29.801 40.6345 29.9321 39.9616C30.1498 38.768 30.5107 37.6051 31.007 36.498C31.3152 35.8216 31.6868 35.1759 32.1168 34.5695L32.2042 34.453L32.4373 34.153L32.5072 34.0656L32.5975 33.9578C32.6761 33.8704 32.7548 33.7772 32.8393 33.6898L33.0141 33.5063C33.5733 32.9336 34.2278 32.4625 34.9483 32.1138C35.6212 31.7992 36.3815 31.5982 37.1593 31.5604C37.9342 31.5225 38.7236 31.6477 39.4461 31.9041C40.1685 32.1663 40.8239 32.545 41.392 32.9848C41.9658 33.4276 42.464 33.9257 42.8893 34.4588C43.3175 34.9919 43.6904 35.5483 44.005 36.128C44.6429 37.2816 45.0741 38.5021 45.3625 39.7402C45.6538 40.9782 45.7848 42.2367 45.7907 43.4893ZM152.53 43.4893C152.525 44.7419 152.396 46.0003 152.108 47.2384C151.817 48.4764 151.386 49.697 150.748 50.8505C150.433 51.4331 150.06 51.9866 149.632 52.5197C149.194 53.0683 148.692 53.5631 148.138 53.9937C147.567 54.4365 146.914 54.8123 146.192 55.0715C145.466 55.3308 144.677 55.4561 143.902 55.4211C143.137 55.3801 142.388 55.1922 141.694 54.8676C140.973 54.5171 140.318 54.0451 139.757 53.4723L139.582 53.2917C139.495 53.2043 139.419 53.114 139.34 53.0237L139.247 52.9159L139.186 52.8372C139.104 52.7353 139.023 52.6323 138.944 52.5284L138.859 52.4119C138.793 52.3187 138.726 52.2284 138.664 52.1323C138.333 51.636 138.041 51.115 137.79 50.5738H141.688C141.828 50.7049 141.974 50.8214 142.119 50.9234C142.428 51.1418 142.745 51.2904 143.046 51.3778C143.323 51.4535 143.613 51.4743 143.899 51.439C144.172 51.3963 144.434 51.3045 144.674 51.1681C144.943 51.0048 145.189 50.8059 145.405 50.5767C145.883 50.0902 146.299 49.4027 146.629 48.6454C146.958 47.8821 147.2 47.0374 147.357 46.1693C147.679 44.3972 147.679 42.5814 147.357 40.8093C147.209 39.9589 146.965 39.1282 146.629 38.3332C146.338 37.6212 145.924 36.9663 145.405 36.3989C145.19 36.171 144.945 35.9731 144.677 35.8105C144.436 35.6732 144.173 35.5805 143.899 35.5367C143.612 35.5027 143.321 35.5244 143.043 35.6007C142.745 35.6881 142.428 35.8367 142.119 36.0552C141.813 36.2737 141.507 36.5504 141.234 36.8767C140.948 37.2132 140.694 37.576 140.476 37.9603C140.017 38.7846 139.676 39.669 139.463 40.5879C139.352 41.0495 139.271 41.5174 139.218 41.9891H136.404C136.456 41.3132 136.544 40.6345 136.675 39.9616C136.891 38.7679 137.251 37.6049 137.747 36.498C138.009 35.9387 138.3 35.3823 138.664 34.8492C138.726 34.7531 138.793 34.6627 138.859 34.5695L138.947 34.453C139.02 34.3511 139.098 34.252 139.18 34.153L139.247 34.0656L139.34 33.9578L139.579 33.6898L139.754 33.5063C140.313 32.9337 140.968 32.4625 141.688 32.1138C142.364 31.7992 143.124 31.5982 143.902 31.5604C144.674 31.5225 145.466 31.6477 146.189 31.9041C146.911 32.1663 147.564 32.545 148.135 32.9848C148.706 33.4276 149.204 33.9257 149.632 34.4588C150.057 34.9919 150.43 35.5483 150.745 36.128C151.363 37.2634 151.821 38.479 152.105 39.7402C152.396 40.9782 152.525 42.2367 152.53 43.4893Z" fill="#E0A961"/>
</g>
<path d="M15.256 306.612C13.1 306.612 11.644 305.394 11.644 303.462H12.89C12.89 304.68 13.884 305.408 15.242 305.408C16.474 305.408 17.454 304.75 17.454 303.714C17.454 302.566 16.292 302.3 15.018 302.006C13.506 301.642 11.826 301.236 11.826 299.29C11.826 297.596 13.142 296.56 15.158 296.56C17.202 296.56 18.434 297.694 18.434 299.458H17.216C17.216 298.38 16.334 297.736 15.144 297.736C13.954 297.736 13.058 298.31 13.058 299.234C13.058 300.312 14.178 300.578 15.438 300.872C16.978 301.25 18.714 301.67 18.714 303.7C18.714 305.562 17.216 306.612 15.256 306.612ZM23.8895 306.654C21.6495 306.654 19.9555 304.96 19.9555 302.706C19.9555 300.452 21.6495 298.758 23.8895 298.758C25.6815 298.758 27.0955 299.836 27.5575 301.474H26.3815C25.9335 300.508 24.9955 299.906 23.8895 299.906C22.3355 299.906 21.1735 301.124 21.1735 302.706C21.1735 304.288 22.3495 305.506 23.8895 305.506C24.9955 305.506 25.9055 304.904 26.3675 303.896H27.5715C27.1095 305.562 25.6675 306.654 23.8895 306.654ZM33.0192 298.758C34.8112 298.758 35.9312 299.99 35.9312 301.964V306.486H34.7412V302.244C34.7412 300.704 34.0272 299.85 32.7112 299.85C31.4232 299.85 30.4292 300.942 30.4292 302.356V306.486H29.2392V296.224H30.4292V299.948C31.0032 299.206 31.9272 298.758 33.0192 298.758ZM45.2916 302.734C45.2916 302.874 45.2776 303.028 45.2636 303.168H38.8096C39.0056 304.568 40.0416 305.492 41.4696 305.492C42.5196 305.492 43.3596 305.002 43.8356 304.176H45.0816C44.4516 305.744 43.1216 306.654 41.4696 306.654C39.2856 306.654 37.6196 304.96 37.6196 302.706C37.6196 300.452 39.2856 298.758 41.4696 298.758C43.7656 298.758 45.2916 300.522 45.2916 302.734ZM41.4696 299.892C40.0976 299.892 39.0896 300.746 38.8376 302.062H44.0876C43.8356 300.718 42.8136 299.892 41.4696 299.892ZM54.3473 296.224V306.486H53.4373L53.2693 305.408C52.5693 306.178 51.5473 306.654 50.3713 306.654C48.0893 306.654 46.4653 304.96 46.4653 302.706C46.4653 300.438 48.0893 298.758 50.3713 298.758C51.4913 298.758 52.4713 299.178 53.1573 299.878V296.224H54.3473ZM50.4553 305.506C52.0513 305.506 53.2413 304.288 53.2413 302.706C53.2413 301.11 52.0513 299.906 50.4553 299.906C48.8593 299.906 47.6833 301.096 47.6833 302.706C47.6833 304.316 48.8593 305.506 50.4553 305.506ZM59.9806 306.654C57.9506 306.654 56.6206 305.324 56.6206 303.294V298.926H57.8106V303.098C57.8106 304.596 58.6506 305.506 59.9806 305.506C61.3246 305.506 62.1366 304.582 62.1366 303.098V298.926H63.3266V303.294C63.3266 305.324 62.0246 306.654 59.9806 306.654ZM65.6063 296.224H66.7963V306.486H65.6063V296.224ZM76.2584 302.734C76.2584 302.874 76.2444 303.028 76.2304 303.168H69.7764C69.9724 304.568 71.0084 305.492 72.4364 305.492C73.4864 305.492 74.3264 305.002 74.8024 304.176H76.0484C75.4184 305.744 74.0884 306.654 72.4364 306.654C70.2524 306.654 68.5864 304.96 68.5864 302.706C68.5864 300.452 70.2524 298.758 72.4364 298.758C74.7324 298.758 76.2584 300.522 76.2584 302.734ZM72.4364 299.892C71.0644 299.892 70.0564 300.746 69.8044 302.062H75.0544C74.8024 300.718 73.7804 299.892 72.4364 299.892ZM85.3141 296.224V306.486H84.4041L84.2361 305.408C83.5361 306.178 82.5141 306.654 81.3381 306.654C79.0561 306.654 77.4321 304.96 77.4321 302.706C77.4321 300.438 79.0561 298.758 81.3381 298.758C82.4581 298.758 83.4381 299.178 84.1241 299.878V296.224H85.3141ZM81.4221 305.506C83.0181 305.506 84.2081 304.288 84.2081 302.706C84.2081 301.11 83.0181 299.906 81.4221 299.906C79.8261 299.906 78.6501 301.096 78.6501 302.706C78.6501 304.316 79.8261 305.506 81.4221 305.506ZM91.3355 296.252H92.6235V297.61H91.3355V296.252ZM91.3915 298.926H92.5815V306.486H91.3915V298.926ZM98.7535 298.758C100.546 298.758 101.666 300.116 101.666 301.964V306.486H100.476V302.244C100.476 300.704 99.7615 299.85 98.4455 299.85C97.1575 299.85 96.1635 300.942 96.1635 302.356V306.486H94.9735V298.926H95.8135L96.0515 300.116C96.6115 299.276 97.5775 298.758 98.7535 298.758ZM107.836 305.38V306.486H106.856C105.232 306.486 104.238 305.478 104.238 303.84V300.004H102.908V299.794L105.246 297.33H105.428V298.926H107.794V300.004H105.428V303.798C105.428 304.82 105.988 305.38 107.01 305.38H107.836ZM116.413 302.734C116.413 302.874 116.399 303.028 116.385 303.168H109.931C110.127 304.568 111.163 305.492 112.591 305.492C113.641 305.492 114.481 305.002 114.957 304.176H116.203C115.573 305.744 114.243 306.654 112.591 306.654C110.407 306.654 108.741 304.96 108.741 302.706C108.741 300.452 110.407 298.758 112.591 298.758C114.887 298.758 116.413 300.522 116.413 302.734ZM112.591 299.892C111.219 299.892 110.211 300.746 109.959 302.062H115.209C114.957 300.718 113.935 299.892 112.591 299.892ZM122.304 298.884V300.018H121.534C120.148 300.018 119.378 300.914 119.378 302.384V306.486H118.188V298.926H119.028L119.224 300.074C119.756 299.304 120.554 298.884 121.632 298.884H122.304ZM130.141 298.926L126.949 306.486H125.871L122.595 298.926H123.841L126.403 304.946L128.923 298.926H130.141ZM131.544 296.252H132.832V297.61H131.544V296.252ZM131.6 298.926H132.79V306.486H131.6V298.926ZM142.253 302.734C142.253 302.874 142.239 303.028 142.225 303.168H135.771C135.967 304.568 137.003 305.492 138.431 305.492C139.481 305.492 140.321 305.002 140.797 304.176H142.043C141.413 305.744 140.083 306.654 138.431 306.654C136.247 306.654 134.581 304.96 134.581 302.706C134.581 300.452 136.247 298.758 138.431 298.758C140.727 298.758 142.253 300.522 142.253 302.734ZM138.431 299.892C137.059 299.892 136.051 300.746 135.799 302.062H141.049C140.797 300.718 139.775 299.892 138.431 299.892ZM154.335 298.926L151.759 306.486H150.793L148.651 301.334L146.523 306.486H145.557L142.995 298.926H144.241L146.117 304.498L148.441 299.038H148.875L151.199 304.54L153.131 298.926H154.335ZM158.071 306.654C156.265 306.654 155.103 305.688 155.047 304.162H156.209C156.279 305.072 157.049 305.548 158.099 305.548C159.135 305.548 159.877 305.114 159.877 304.372C159.877 303.49 158.939 303.308 157.917 303.14C156.629 302.916 155.187 302.65 155.187 300.942C155.187 299.64 156.321 298.758 158.029 298.758C159.737 298.758 160.843 299.668 160.885 301.096H159.765C159.709 300.284 159.065 299.822 158.015 299.822C156.979 299.822 156.335 300.256 156.335 300.914C156.335 301.712 157.203 301.852 158.211 302.02C159.527 302.23 161.053 302.468 161.053 304.316C161.053 305.73 159.863 306.654 158.071 306.654ZM173.91 298.926V306.486H172.916L172.79 305.338C172.104 306.15 171.054 306.654 169.822 306.654C167.596 306.654 165.916 304.96 165.916 302.706C165.916 300.438 167.596 298.758 169.822 298.758C171.068 298.758 172.118 299.262 172.804 300.088L172.958 298.926H173.91ZM169.92 305.506C171.516 305.506 172.692 304.316 172.692 302.706C172.692 301.096 171.516 299.906 169.92 299.906C168.324 299.906 167.134 301.11 167.134 302.706C167.134 304.302 168.324 305.506 169.92 305.506ZM180.312 298.758C182.566 298.758 184.204 300.438 184.204 302.706C184.204 304.96 182.566 306.654 180.312 306.654C179.178 306.654 178.184 306.206 177.498 305.478V309.188H176.308V298.926H177.12L177.358 300.088C178.058 299.262 179.108 298.758 180.312 298.758ZM180.228 305.506C181.838 305.506 183 304.316 183 302.706C183 301.096 181.838 299.906 180.228 299.906C178.632 299.906 177.442 301.11 177.442 302.706C177.442 304.302 178.632 305.506 180.228 305.506ZM190.019 298.758C192.273 298.758 193.911 300.438 193.911 302.706C193.911 304.96 192.273 306.654 190.019 306.654C188.885 306.654 187.891 306.206 187.205 305.478V309.188H186.015V298.926H186.827L187.065 300.088C187.765 299.262 188.815 298.758 190.019 298.758ZM189.935 305.506C191.545 305.506 192.707 304.316 192.707 302.706C192.707 301.096 191.545 299.906 189.935 299.906C188.339 299.906 187.149 301.11 187.149 302.706C187.149 304.302 188.339 305.506 189.935 305.506ZM202.792 302.734C202.792 302.874 202.778 303.028 202.764 303.168H196.31C196.506 304.568 197.542 305.492 198.97 305.492C200.02 305.492 200.86 305.002 201.336 304.176H202.582C201.952 305.744 200.622 306.654 198.97 306.654C196.786 306.654 195.12 304.96 195.12 302.706C195.12 300.452 196.786 298.758 198.97 298.758C201.266 298.758 202.792 300.522 202.792 302.734ZM198.97 299.892C197.598 299.892 196.59 300.746 196.338 302.062H201.588C201.336 300.718 200.314 299.892 198.97 299.892ZM211.959 298.926V306.486H210.965L210.839 305.338C210.153 306.15 209.103 306.654 207.871 306.654C205.645 306.654 203.965 304.96 203.965 302.706C203.965 300.438 205.645 298.758 207.871 298.758C209.117 298.758 210.167 299.262 210.853 300.088L211.007 298.926H211.959ZM207.969 305.506C209.565 305.506 210.741 304.316 210.741 302.706C210.741 301.096 209.565 299.906 207.969 299.906C206.373 299.906 205.183 301.11 205.183 302.706C205.183 304.302 206.373 305.506 207.969 305.506ZM218.472 298.884V300.018H217.702C216.316 300.018 215.546 300.914 215.546 302.384V306.486H214.356V298.926H215.196L215.392 300.074C215.924 299.304 216.722 298.884 217.8 298.884H218.472ZM226.804 298.758C228.596 298.758 229.716 299.99 229.716 301.964V306.486H228.526V302.244C228.526 300.704 227.812 299.85 226.496 299.85C225.208 299.85 224.214 300.942 224.214 302.356V306.486H223.024V296.224H224.214V299.948C224.788 299.206 225.712 298.758 226.804 298.758ZM239.077 302.734C239.077 302.874 239.063 303.028 239.049 303.168H232.595C232.791 304.568 233.827 305.492 235.255 305.492C236.305 305.492 237.145 305.002 237.621 304.176H238.867C238.237 305.744 236.907 306.654 235.255 306.654C233.071 306.654 231.405 304.96 231.405 302.706C231.405 300.452 233.071 298.758 235.255 298.758C237.551 298.758 239.077 300.522 239.077 302.734ZM235.255 299.892C233.883 299.892 232.875 300.746 232.623 302.062H237.873C237.621 300.718 236.599 299.892 235.255 299.892ZM244.968 298.884V300.018H244.198C242.812 300.018 242.042 300.914 242.042 302.384V306.486H240.852V298.926H241.692L241.888 300.074C242.42 299.304 243.218 298.884 244.296 298.884H244.968ZM253.09 302.734C253.09 302.874 253.076 303.028 253.062 303.168H246.608C246.804 304.568 247.84 305.492 249.268 305.492C250.318 305.492 251.158 305.002 251.634 304.176H252.88C252.25 305.744 250.92 306.654 249.268 306.654C247.084 306.654 245.418 304.96 245.418 302.706C245.418 300.452 247.084 298.758 249.268 298.758C251.564 298.758 253.09 300.522 253.09 302.734ZM249.268 299.892C247.896 299.892 246.888 300.746 246.636 302.062H251.886C251.634 300.718 250.612 299.892 249.268 299.892ZM254.409 305.002H255.781V306.486H254.409V305.002Z" fill="black"/>
<path d="M74.752 267.286V278.486H72.736L67.664 271.494V278.486H65.28V267.286H67.472L72.384 274.118V267.286H74.752ZM81.1383 278.726C78.4503 278.726 76.4663 276.774 76.4663 274.166C76.4663 271.542 78.4503 269.606 81.1383 269.606C83.7943 269.606 85.7943 271.542 85.7943 274.166C85.7943 276.774 83.7943 278.726 81.1383 278.726ZM81.1383 276.534C82.4823 276.534 83.4263 275.558 83.4263 274.166C83.4263 272.774 82.4823 271.798 81.1383 271.798C79.7783 271.798 78.8343 272.774 78.8343 274.166C78.8343 275.558 79.7783 276.534 81.1383 276.534ZM91.3075 266.518H93.6435V268.694H91.3075V266.518ZM91.3075 269.846H93.6435V278.486H91.3075V269.846ZM100.814 269.638C102.782 269.638 103.998 271.062 103.998 273.254V278.486H101.662V273.622C101.662 272.326 101.166 271.686 100.158 271.686C98.9576 271.686 98.2216 272.55 98.2216 273.942V278.486H95.8856V269.846H97.4856L97.9496 270.918C98.6056 270.134 99.6296 269.638 100.814 269.638ZM111.353 276.406V278.486H109.705C107.801 278.486 106.633 277.318 106.633 275.398V271.718H105.065V271.222L108.489 267.59H108.921V269.846H111.305V271.718H108.969V275.094C108.969 275.926 109.449 276.406 110.297 276.406H111.353ZM121.254 274.134C121.254 274.358 121.238 274.598 121.206 274.822H114.678C114.87 276.006 115.654 276.646 116.79 276.646C117.59 276.646 118.262 276.262 118.614 275.654H121.078C120.438 277.526 118.79 278.726 116.79 278.726C114.23 278.726 112.31 276.758 112.31 274.166C112.31 271.558 114.214 269.606 116.79 269.606C119.446 269.606 121.254 271.654 121.254 274.134ZM116.79 271.59C115.75 271.59 115.014 272.198 114.742 273.222H118.918C118.598 272.166 117.83 271.59 116.79 271.59ZM128.101 269.798V272.006H127.093C125.781 272.006 125.253 272.582 125.253 273.99V278.486H122.917V269.846H124.421L124.837 270.902C125.445 270.134 126.229 269.798 127.333 269.798H128.101ZM137.529 269.846L134.089 278.486H131.929L128.425 269.846H130.905L133.033 275.638L135.097 269.846H137.529ZM138.776 266.518H141.112V268.694H138.776V266.518ZM138.776 269.846H141.112V278.486H138.776V269.846ZM151.738 274.134C151.738 274.358 151.722 274.598 151.69 274.822H145.162C145.354 276.006 146.138 276.646 147.274 276.646C148.074 276.646 148.746 276.262 149.098 275.654H151.562C150.922 277.526 149.274 278.726 147.274 278.726C144.714 278.726 142.794 276.758 142.794 274.166C142.794 271.558 144.698 269.606 147.274 269.606C149.93 269.606 151.738 271.654 151.738 274.134ZM147.274 271.59C146.234 271.59 145.498 272.198 145.226 273.222H149.402C149.082 272.166 148.314 271.59 147.274 271.59ZM165.566 269.846L162.734 278.486H160.862L158.894 274.022L156.974 278.486H155.102L152.238 269.846H154.622L156.318 274.998L158.574 269.91H159.23L161.55 275.014L163.246 269.846H165.566ZM169.723 278.726C167.547 278.726 166.107 277.494 166.091 275.638H168.363C168.379 276.406 168.971 276.79 169.803 276.79C170.459 276.79 171.035 276.502 171.035 275.926C171.035 275.334 170.283 275.158 169.371 274.998C167.995 274.774 166.235 274.406 166.235 272.358C166.235 270.726 167.627 269.606 169.723 269.606C171.803 269.606 173.163 270.758 173.179 272.486H170.955C170.955 271.798 170.475 271.462 169.659 271.462C168.923 271.462 168.507 271.798 168.507 272.294C168.507 272.87 169.243 272.998 170.139 273.158C171.547 273.414 173.339 273.718 173.339 275.814C173.339 277.59 171.899 278.726 169.723 278.726ZM186.99 269.846L183.214 278.374C182.19 280.71 181.278 281.606 179.326 281.606H178.366V279.494H179.182C180.302 279.494 180.526 279.174 181.134 277.894L181.166 277.83L177.502 269.846H180.046L182.35 275.158L184.494 269.846H186.99ZM196.176 274.134C196.176 274.358 196.16 274.598 196.128 274.822H189.6C189.792 276.006 190.576 276.646 191.712 276.646C192.512 276.646 193.184 276.262 193.536 275.654H196C195.36 277.526 193.712 278.726 191.712 278.726C189.152 278.726 187.232 276.758 187.232 274.166C187.232 271.558 189.136 269.606 191.712 269.606C194.368 269.606 196.176 271.654 196.176 274.134ZM191.712 271.59C190.672 271.59 189.936 272.198 189.664 273.222H193.84C193.52 272.166 192.752 271.59 191.712 271.59ZM202.994 276.406V278.486H201.346C199.442 278.486 198.274 277.318 198.274 275.398V271.718H196.706V271.222L200.13 267.59H200.562V269.846H202.946V271.718H200.61V275.094C200.61 275.926 201.09 276.406 201.938 276.406H202.994Z" fill="black"/>
<defs>
<filter id="filter0_di_846_1653" x="0.0644531" y="41.9893" width="192.147" height="152.996" filterUnits="userSpaceOnUse" color-interpolation-filters="sRGB">
<feFlood flood-opacity="0" result="BackgroundImageFix"/>
<feColorMatrix in="SourceAlpha" type="matrix" values="0 0 0 0 0 0 0 0 0 0 0 0 0 0 0 0 0 0 127 0" result="hardAlpha"/>
<feOffset dx="1.45652" dy="1.45652"/>
<feGaussianBlur stdDeviation="0.728261"/>
<feColorMatrix type="matrix" values="0 0 0 0 0 0 0 0 0 0 0 0 0 0 0 0 0 0 0.3 0"/>
<feBlend mode="normal" in2="BackgroundImageFix" result="effect1_dropShadow_846_1653"/>
<feBlend mode="normal" in="SourceGraphic" in2="effect1_dropShadow_846_1653" result="shape"/>
<feColorMatrix in="SourceAlpha" type="matrix" values="0 0 0 0 0 0 0 0 0 0 0 0 0 0 0 0 0 0 127 0" result="hardAlpha"/>
<feOffset dx="2.91304" dy="2.91304"/>
<feGaussianBlur stdDeviation="1.45652"/>
<feComposite in2="hardAlpha" operator="arithmetic" k2="-1" k3="1"/>
<feColorMatrix type="matrix" values="0 0 0 0 0 0 0 0 0 0 0 0 0 0 0 0 0 0 0.3 0"/>
<feBlend mode="normal" in2="shape" result="effect2_innerShadow_846_1653"/>
</filter>
<filter id="filter1_d_846_1653" x="8.9668" y="50.5737" width="176.104" height="136.045" filterUnits="userSpaceOnUse" color-interpolation-filters="sRGB">
<feFlood flood-opacity="0" result="BackgroundImageFix"/>
<feColorMatrix in="SourceAlpha" type="matrix" values="0 0 0 0 0 0 0 0 0 0 0 0 0 0 0 0 0 0 127 0" result="hardAlpha"/>
<feOffset dx="1.45652" dy="1.45652"/>
<feGaussianBlur stdDeviation="0.728261"/>
<feColorMatrix type="matrix" values="0 0 0 0 0 0 0 0 0 0 0 0 0 0 0 0 0 0 0.3 0"/>
<feBlend mode="normal" in2="BackgroundImageFix" result="effect1_dropShadow_846_1653"/>
<feBlend mode="normal" in="SourceGraphic" in2="effect1_dropShadow_846_1653" result="shape"/>
</filter>
<linearGradient id="paint0_linear_846_1653" x1="0.0644556" y1="34.9484" x2="110.693" y2="184.792" gradientUnits="userSpaceOnUse">
<stop offset="0.187" stop-color="#237EA3"/>
<stop offset="0.835" stop-color="#1D465C"/>
</linearGradient>
<linearGradient id="paint1_linear_846_1653" x1="102.406" y1="130.254" x2="252.489" y2="304.72" gradientUnits="userSpaceOnUse">
<stop stop-color="#F39E78"/>
<stop offset="1" stop-color="#DF7838"/>
</linearGradient>
</defs>
</svg>
