<svg width="86" height="86" viewBox="0 0 86 86" fill="none" xmlns="http://www.w3.org/2000/svg">
<path d="M62.1171 27.6632C62.1171 38.8915 53.0012 47.8688 41.9256 47.8688C30.7104 47.8688 21.7342 38.879 21.7342 27.6632C21.7342 16.4493 30.8499 7.47172 41.9256 7.47172C53.0015 7.47172 62.1171 16.4353 62.1171 27.6632ZM59.2499 27.6632C59.2499 18.0552 51.3885 10.339 41.9256 10.339C32.3194 10.339 24.6014 18.0571 24.6014 27.6632C24.6014 37.2694 32.3194 44.9875 41.9256 44.9875C51.5318 44.9875 59.2499 37.2694 59.2499 27.6632Z" fill="black" stroke="white" stroke-width="0.694911"/>
<path d="M34.511 36.4607L34.2761 36.1084L34.2699 36.1145L31.0809 31.0543L31.0703 31.0374L31.0577 31.0218C30.6068 30.4609 30.7107 29.5518 31.4015 29.0988L31.4156 29.0896L31.4287 29.079C31.9896 28.6281 32.8987 28.732 33.3517 29.4228L33.3517 29.4228L33.3535 29.4256L35.6435 32.8464L35.8933 33.2195L36.1918 32.8841L48.8774 18.6305C49.5007 18.0266 50.4175 17.9608 50.9517 18.4935C51.5623 19.1174 51.6303 20.04 51.0943 20.5759L51.0868 20.5835L51.0797 20.5915L36.8169 36.7201L36.8012 36.7379L36.7881 36.7576C36.6131 37.0201 36.2142 37.16 35.6962 37.1679C35.172 37.0171 34.7163 36.7686 34.511 36.4607Z" fill="black" stroke="white" stroke-width="0.694911"/>
<path d="M49.5793 82.0285V82.376H49.9267H83.736L83.75 82.3901H83.8944C84.5131 82.3901 85.2641 83.044 85.3985 84.0567C85.3866 84.8474 84.6974 85.5401 83.8944 85.5401H1.85175C1.05416 85.5401 0.347456 84.8334 0.347456 84.0358C0.347456 83.2365 1.04173 82.5315 1.85175 82.5315H31.9604H32.3079V82.184V66.0554C32.3079 65.2561 33.0022 64.5511 33.8122 64.5511H35.6639H36.0114V64.2036V54.648V54.3714L35.7418 54.3094C23.488 51.4902 14.6103 40.5055 14.6103 27.6774C14.6103 12.6029 26.8656 0.347456 41.9401 0.347456C57.0146 0.347456 69.2701 12.6029 69.2701 27.6774C69.2701 41.2006 59.4179 52.4794 46.1686 54.5876L45.8758 54.6342V54.9307V64.2036V64.5511H46.2232H48.075C48.8743 64.5511 49.5793 65.2454 49.5793 66.0554V82.0285ZM17.4774 27.6633V28.0107H17.494C17.6588 39.7202 26.1389 49.6807 37.7536 51.6827C52.6495 54.2914 66.4028 43.007 66.4028 27.6633C66.4028 14.1981 55.4053 3.20056 41.9401 3.20056C28.475 3.20056 17.4774 14.1981 17.4774 27.6633ZM39.2641 54.8539L38.8787 54.8116V55.1993V64.1895V64.537H39.2261H42.7883H43.1358V64.1895V55.3406V54.9932H42.7883C41.6561 54.9932 40.529 54.9929 39.2641 54.8539ZM35.3165 82.0285V82.376H35.6639H46.3646H46.712V82.0285V67.7658V67.4183H46.3646H35.6639H35.3165V67.7658V82.0285Z" fill="black" stroke="white" stroke-width="0.694911"/>
<path d="M9.99412 64.5931L9.98558 64.5883L9.97679 64.584C9.77246 64.4843 9.60175 64.2977 9.46123 64.0476C9.32879 63.8118 9.23503 63.5404 9.16889 63.2861C9.18543 62.7487 9.52488 62.2964 9.97984 62.069L9.98707 62.0654L9.99412 62.0614L13.5562 60.0683L13.6419 60.0204L13.6898 59.9347L15.6829 56.3726L15.6829 56.3726L15.6842 56.3702C16.259 55.3241 17.6384 55.3241 18.2132 56.3702L18.2132 56.3702L18.2145 56.3726L20.2077 59.9347L20.2556 60.0204L20.3413 60.0683L23.9034 62.0614L23.9034 62.0614L23.9058 62.0627C24.9519 62.6375 24.9519 64.017 23.9058 64.5918L23.9058 64.5918L23.9034 64.5931L20.3413 66.5862L20.2556 66.6341L20.2077 66.7197L18.2145 70.2819L18.2145 70.2819L18.2132 70.2842C17.6384 71.3304 16.259 71.3304 15.6842 70.2842L15.6842 70.2842L15.6829 70.2819L13.6898 66.7197L13.6419 66.6341L13.5562 66.5862L9.99412 64.5931ZM15.3798 62.3097L15.3659 62.3166L15.3527 62.3248L14.2077 63.0316L13.7287 63.3272L14.2077 63.6229L15.3527 64.3297L15.3659 64.3378L15.3798 64.3448C15.5953 64.4525 15.8235 64.6807 15.9312 64.8962L15.9381 64.9101L15.9463 64.9233L16.6531 66.0683L16.9487 66.5472L17.2444 66.0683L17.9512 64.9233L17.9593 64.9101L17.9663 64.8962C18.074 64.6807 18.3022 64.4525 18.5177 64.3448L18.5316 64.3378L18.5448 64.3297L19.6898 63.6229L20.1687 63.3272L19.6898 63.0316L18.5448 62.3248L18.5316 62.3166L18.5177 62.3097C18.3022 62.202 18.074 61.9738 17.9663 61.7583L17.9593 61.7444L17.9512 61.7312L17.2444 60.5862L16.9487 60.1072L16.6531 60.5862L15.9463 61.7312L15.9381 61.7444L15.9312 61.7583C15.8235 61.9738 15.5953 62.202 15.3798 62.3097Z" fill="black" stroke="white" stroke-width="0.694911"/>
<path d="M69.1997 45.6719L69.2045 45.6634L69.2088 45.6546C69.4401 45.1804 69.9065 44.8461 70.4655 44.8461C71.0209 44.8461 71.4906 45.1912 71.7238 45.6577L71.7274 45.6649L71.7314 45.6719L73.7245 49.2341L73.7724 49.3198L73.858 49.3677L77.4202 51.3608L77.4202 51.3608L77.4225 51.3621C78.4687 51.9369 78.4687 53.3163 77.4225 53.8911L77.4225 53.8911L77.4202 53.8924L73.858 55.8855L73.7724 55.9335L73.7245 56.0191L71.7314 59.5813L71.7314 59.5813L71.7301 59.5836C71.1553 60.6298 69.7758 60.6298 69.201 59.5836L69.201 59.5836L69.1997 59.5813L67.2066 56.0191L67.1587 55.9335L67.0731 55.8855L63.5109 53.8924L63.5109 53.8924L63.5085 53.8911C62.4624 53.3163 62.4624 51.9369 63.5085 51.3621L63.5085 51.3621L63.5109 51.3608L67.0731 49.3677L67.1587 49.3198L67.2066 49.2341L69.1997 45.6719ZM69.522 51.0669L69.445 51.0495C69.3384 51.2735 69.1176 51.5037 68.8349 51.7869L67.7245 52.4723L67.1907 52.8018L67.7531 53.0795L68.8966 53.6441C68.8968 53.6443 68.897 53.6444 68.8972 53.6445C69.1125 53.7524 69.3403 53.9803 69.4479 54.1955L69.4549 54.2094L69.4631 54.2227L70.1698 55.3676L70.4655 55.8466L70.7612 55.3676L71.4679 54.2227L71.4761 54.2094L71.483 54.1955C71.5908 53.9801 71.819 53.7519 72.0344 53.6441L72.0483 53.6372L72.0616 53.629L73.2065 52.9223L73.6855 52.6266L73.2065 52.3309L72.0616 51.6242L72.0483 51.616L72.0344 51.609C71.819 51.5013 71.5908 51.2731 71.483 51.0577L71.4761 51.0438L71.4679 51.0305L70.7612 49.8856L70.4655 49.4066L70.1698 49.8856L69.4631 51.0305L69.522 51.0669Z" fill="black" stroke="white" stroke-width="0.694911"/>
</svg>
