<svg width="86" height="88" viewBox="0 0 86 88" fill="none" xmlns="http://www.w3.org/2000/svg">
<path d="M42.7884 15.7804C51.4473 15.7804 58.5696 22.7653 58.5696 31.5617C58.5696 40.2206 51.5847 47.3429 42.7884 47.3429C33.99 47.3429 27.0071 40.36 27.0071 31.5617C27.0071 22.7653 34.1294 15.7804 42.7884 15.7804ZM42.9297 18.6618C35.7523 18.6618 30.0299 24.5307 30.0299 31.5617C30.0299 38.5952 35.7548 44.3202 42.7884 44.3202C49.809 44.3202 55.8296 38.7491 55.8296 31.5617C55.8296 24.3868 50.1046 18.6618 42.9297 18.6618Z" fill="black" stroke="white" stroke-width="0.694911"/>
<path d="M47.5627 40.4153L47.5376 40.3964L47.5095 40.3824L47.5075 40.3814L43.2482 37.2607L43.0449 37.1118L42.8402 37.2588L38.2865 40.5296C37.678 40.8889 36.9786 40.8631 36.5511 40.5425L36.5368 40.5317L36.5214 40.5225C35.9563 40.1835 35.741 39.5 35.9585 38.9564L35.9633 38.9444L35.9672 38.932L37.6776 33.5181L37.7534 33.2781L37.5489 33.1312L32.9831 29.8518L32.9715 29.8434L32.9592 29.836C32.3941 29.497 32.1788 28.8135 32.3963 28.2699L32.3971 28.2677C32.6388 27.6515 33.2485 27.202 33.7841 27.202H39.4948H39.7497L39.8262 26.959L41.536 21.5329C41.7699 20.8221 42.3515 20.4876 42.9157 20.4876C43.2779 20.4876 43.564 20.5804 43.7853 20.7334C44.0045 20.885 44.179 21.1086 44.2988 21.4025L46.0051 26.8176L46.0817 27.0606H46.3365H52.0472C52.6975 27.0606 53.1716 27.4919 53.424 28.1015C53.5384 28.6785 53.2854 29.3804 52.8451 29.7127L48.2824 32.9899L48.0781 33.1366L48.1537 33.3765L49.8592 38.789C49.979 39.3636 49.7308 40.0665 49.2941 40.4047C48.6865 40.7616 47.9893 40.7352 47.5627 40.4153ZM41.9939 33.9737L42.0929 33.8991C42.533 33.645 43.1495 33.6699 43.555 33.9739C43.5551 33.974 43.5552 33.974 43.5553 33.9741L44.6998 34.836L45.5421 35.4703L45.2419 34.4595L44.8215 33.0445C44.6991 32.4634 44.954 31.75 45.3999 31.4156L45.4005 31.4152L46.5455 30.5529L47.3755 29.9279H46.3365H44.9088C44.5465 29.9279 44.2605 29.8351 44.0392 29.6821C43.8206 29.531 43.6464 29.3081 43.5267 29.0155L43.1074 27.6037L42.7743 26.4824L42.4412 27.6037L42.0216 29.0165C41.7926 29.5836 41.2139 29.9279 40.6399 29.9279H39.2122H38.1732L39.0031 30.5529L40.1481 31.4152L40.1627 31.4261L40.1784 31.4355C40.7434 31.7746 40.9587 32.4581 40.7413 33.0017L40.7354 33.0165L40.7308 33.0318L40.3068 34.4595L40.0065 35.4703L40.8489 34.836L41.9939 33.9737Z" fill="black" stroke="white" stroke-width="0.694911"/>
<path d="M51.3263 50.0068C60.3079 46.5337 66.3888 37.6981 66.3888 27.9996V13.7368V13.3894H66.0413H37.5017C36.7041 13.3894 35.9973 12.6826 35.9973 11.8851C35.9973 11.0858 36.6916 10.3807 37.5017 10.3807H66.0413H66.3888V10.0333V4.60522V4.25777H66.0413H19.6767H19.3292V4.60522V27.8582C19.3292 37.5521 25.4044 46.384 34.379 49.8606L34.378 49.8657C34.9529 50.0911 35.3024 50.6742 35.3024 51.2526V65.374V65.7215H35.6499H50.054H50.4015V65.374V51.394C50.4015 51.0317 50.4942 50.7457 50.6473 50.5243C50.8005 50.3026 51.0276 50.1267 51.3263 50.0068ZM51.3263 50.0068C51.3256 50.0071 51.325 50.0074 51.3243 50.0076L51.199 49.6835L51.328 50.0061C51.3275 50.0064 51.3269 50.0066 51.3263 50.0068ZM63.8421 83.2131V83.5606H64.1896H83.7364L83.7505 83.5747H83.8946C84.5133 83.5747 85.2642 84.2286 85.3987 85.2413C85.3867 86.0319 84.6975 86.7246 83.8946 86.7246H1.85176C1.05416 86.7246 0.347456 86.0179 0.347456 85.2204C0.347456 84.4211 1.04173 83.7161 1.85176 83.7161H20.539H20.8864V83.3686V76.2301C20.8864 75.4308 21.5807 74.7258 22.3907 74.7258H24.2425H24.5899V74.3784V67.2399C24.5899 66.4406 25.2842 65.7356 26.0942 65.7356H31.5223H31.8698V65.3882V52.2562V52.0274L31.6595 51.937C22.8018 48.1289 16.454 39.4085 15.896 29.4079L15.8806 29.1306L15.6067 29.0846C10.6388 28.2498 6.90634 23.9668 6.90634 18.868V11.7296C6.90634 10.9302 7.60062 10.2252 8.41064 10.2252H15.5491H15.8966V9.87778V2.73934C15.8966 1.94003 16.5909 1.23503 17.4009 1.23503H67.3418C68.1411 1.23503 68.8461 1.92931 68.8461 2.73934V9.87778V10.2252H69.1936H76.3321C77.1314 10.2252 77.8364 10.9195 77.8364 11.7296V18.868C77.8364 23.9668 74.1039 28.2498 69.136 29.0846L68.8621 29.1306L68.8467 29.4079C68.2889 39.4057 61.9572 47.9883 53.0792 51.9388L52.873 52.0305V52.2562V65.2327V65.5801H53.2204H58.6343C59.4336 65.5801 60.1386 66.2744 60.1386 67.0844V74.2229V74.5703H60.4861H62.3378C63.1371 74.5703 63.8421 75.2646 63.8421 76.0746V83.2131ZM69.1147 25.8651V26.3015L69.54 26.2038C72.8364 25.4465 75.2377 22.4502 75.2377 19.0094V13.5954V13.248H74.8902H69.4622H69.1147V13.5954V25.8651ZM10.6865 13.248H10.339V13.5954V19.0094C10.339 22.4636 12.7398 25.4612 16.0382 26.2041L16.462 26.2995V25.8651V13.5954V13.248H16.1145H10.6865ZM28.5256 68.6029H28.1781V68.9503V74.3784V74.7258H28.5256H57.0653H57.4127V74.3784V68.9503V68.6029H57.0653H28.5256ZM24.6159 83.2131V83.5606H24.9634H60.6274H60.9749V83.2131V77.785V77.4376H60.6274H24.9634H24.6159V77.785V83.2131Z" fill="black" stroke="white" stroke-width="0.694911"/>
</svg>
