<svg width="86" height="87" viewBox="0 0 86 87" fill="none" xmlns="http://www.w3.org/2000/svg">
<path d="M21.4016 20.3931H49.9413C50.7585 20.3931 51.4456 20.9634 51.4456 21.8974C51.4456 22.6967 50.7513 23.4017 49.9413 23.4017H21.4016C20.604 23.4017 19.8973 22.695 19.8973 21.8974C19.8973 21.0981 20.5915 20.3931 21.4016 20.3931Z" fill="black" stroke="white" stroke-width="0.694911"/>
<path d="M21.4016 29.242H49.9413C50.7389 29.242 51.4456 29.9487 51.4456 30.7463C51.4456 31.5456 50.7513 32.2506 49.9413 32.2506H21.4016C20.604 32.2506 19.8973 31.5439 19.8973 30.7463C19.8973 29.947 20.5915 29.242 21.4016 29.242Z" fill="black" stroke="white" stroke-width="0.694911"/>
<path d="M21.4016 38.2321H49.9413C50.7585 38.2321 51.4456 38.8023 51.4456 39.7364C51.4456 40.5357 50.7513 41.2407 49.9413 41.2407H21.4016C20.604 41.2407 19.8973 40.534 19.8973 39.7364C19.8973 38.9371 20.5915 38.2321 21.4016 38.2321Z" fill="black" stroke="white" stroke-width="0.694911"/>
<path d="M21.4016 47.0811H49.9413C50.7758 47.0811 51.4456 47.6814 51.4456 48.444C51.4456 49.2434 50.7513 49.9483 49.9413 49.9483H21.4016C20.567 49.9483 19.8973 49.348 19.8973 48.5854C19.8973 47.7861 20.5915 47.0811 21.4016 47.0811Z" fill="black" stroke="white" stroke-width="0.694911"/>
<path d="M21.4016 56.0571H49.9413C50.7389 56.0571 51.4456 56.7638 51.4456 57.5614C51.4456 58.3607 50.7513 59.0657 49.9413 59.0657H21.4016C20.604 59.0657 19.8973 58.3589 19.8973 57.5614C19.8973 56.762 20.5915 56.0571 21.4016 56.0571Z" fill="black" stroke="white" stroke-width="0.694911"/>
<path d="M21.4016 64.906H49.9413C50.7389 64.906 51.4456 65.6128 51.4456 66.4104C51.4456 67.2097 50.7513 67.9147 49.9413 67.9147H21.4016C20.604 67.9147 19.8973 67.208 19.8973 66.4104C19.8973 65.611 20.5915 64.906 21.4016 64.906Z" fill="black" stroke="white" stroke-width="0.694911"/>
<path d="M21.4016 73.8962H49.9413C50.7585 73.8962 51.4456 74.4664 51.4456 75.4005C51.4456 76.1998 50.7513 76.9048 49.9413 76.9048H21.4016C20.604 76.9048 19.8973 76.1981 19.8973 75.4005C19.8973 74.6012 20.5915 73.8962 21.4016 73.8962Z" fill="black" stroke="white" stroke-width="0.694911"/>
<path d="M59.7654 82.2422L59.514 82.745H60.0761H83.8946C84.204 82.745 84.5482 82.9026 84.8405 83.1934C85.125 83.4764 85.3348 83.8618 85.3987 84.2734C85.3849 85.0627 84.6965 85.7536 83.8946 85.7536H1.85176C1.05416 85.7536 0.347456 85.0469 0.347456 84.2493C0.347456 83.45 1.04173 82.745 1.85176 82.745H11.2661H11.8242L11.5779 82.2442C11.1822 81.4397 11.0481 80.6464 11.0481 79.8249V17.063C11.0481 13.8392 13.7427 11.2756 16.8355 11.2756H17.9805H18.2982L18.3265 10.9592C18.5927 7.99121 21.0105 5.84753 23.9739 5.84753H25.1189H25.4366L25.465 5.53112C25.7312 2.56315 28.149 0.419477 31.1124 0.419477H68.7837C72.0074 0.419477 74.571 3.11408 74.571 6.20686V68.9829C74.571 72.2066 71.8765 74.7703 68.7837 74.7703H67.6387H67.3212L67.2927 75.0866C67.0265 78.0411 64.608 80.1983 61.6453 80.1983H60.5003H60.1528V80.5458C60.1528 81.2002 60.0233 81.7264 59.7654 82.2422ZM67.4326 71.8383V72.1857H67.7801H68.925C70.5446 72.1857 71.8452 70.8852 71.8452 69.2656V6.5037C71.8452 4.88412 70.5446 3.58358 68.925 3.58358H31.1124C29.8325 3.58358 28.6769 4.37475 28.3467 5.54723L28.2223 5.98889H28.6811H61.6453C64.869 5.98889 67.4326 8.6835 67.4326 11.7763V71.8383ZM61.7866 9.01163H24.3214V8.9975H23.9739C22.6836 8.9975 21.5297 9.7997 21.2053 11.1134L21.099 11.5442H21.5427H54.5067C57.7305 11.5442 60.2942 14.2388 60.2942 17.3315V77.2663V77.6138H60.6416H61.7866C63.4062 77.6138 64.7067 76.3133 64.7067 74.6937V11.9318C64.7067 10.3122 63.4062 9.01163 61.7866 9.01163ZM16.8355 82.7591H17.183V82.745H54.6481C56.2677 82.745 57.5683 81.4445 57.5683 79.8249V17.0488C57.5683 15.4292 56.2677 14.1287 54.6481 14.1287H16.8355C15.2159 14.1287 13.9154 15.4292 13.9154 17.0488V79.839C13.9154 81.4586 15.2159 82.7591 16.8355 82.7591Z" fill="black" stroke="white" stroke-width="0.694911"/>
</svg>
