<svg width="52" height="73" viewBox="0 0 52 73" fill="none" xmlns="http://www.w3.org/2000/svg">
<g clip-path="url(#clip0_241_811)" filter="url(#filter0_d_241_811)">
<path d="M30 1.81894C30 1.21482 30.4897 0.725098 31.0938 0.725098C31.674 0.725098 32.2305 0.955584 32.6408 1.36585L47.3592 16.0843C47.7695 16.4946 48 17.0511 48 17.6313C48 18.2354 47.5103 18.7251 46.9062 18.7251H32C30.8954 18.7251 30 17.8297 30 16.7251V1.81894Z" fill="#D4D2D0"/>
<path d="M4 2.7251C4 1.62053 4.89543 0.725098 6 0.725098H31C32.1046 0.725098 33 1.62053 33 2.7251V13.7251C33 14.8297 33.8954 15.7251 35 15.7251H46C47.1046 15.7251 48 16.6205 48 17.7251V62.7251C48 63.8297 47.1046 64.7251 46 64.7251H6C4.89543 64.7251 4 63.8297 4 62.7251V2.7251Z" fill="#E4E2E0"/>
<rect x="16.5918" y="20.1919" width="19.3643" height="19.3643" rx="4.41408" transform="rotate(3.2351 16.5918 20.1919)" fill="#133FA0"/>
<rect x="20.5801" y="20.4038" width="15.8783" height="15.8783" rx="2.15407" transform="rotate(17.8551 20.5801 20.4038)" fill="white"/>
<rect x="19.8086" y="24.5" width="11.8297" height="11.8297" rx="2.26001" fill="#00AFFF"/>
<path d="M16.5663 45.3147C15.9933 45.3147 15.5873 44.9163 15.5873 44.3509V44.2561H16.1564V44.3206C16.1564 44.5938 16.3158 44.7721 16.5663 44.7721C16.8015 44.7721 16.9609 44.5976 16.9609 44.3206V42.6017H17.5301V44.3509C17.5301 44.9163 17.143 45.3147 16.5663 45.3147ZM19.0271 45.3147C18.3897 45.3147 17.9191 44.8518 17.9191 44.2333C17.9191 43.611 18.3897 43.1519 19.0271 43.1519C19.657 43.1519 20.1313 43.611 20.1313 44.2333C20.1313 44.8518 19.657 45.3147 19.0271 45.3147ZM19.0271 44.7949C19.3459 44.7949 19.5698 44.5634 19.5698 44.2333C19.5698 43.9032 19.3459 43.6717 19.0271 43.6717C18.7046 43.6717 18.4807 43.9032 18.4807 44.2333C18.4807 44.5634 18.7046 44.7949 19.0271 44.7949ZM21.6466 43.1519C22.2727 43.1519 22.7242 43.611 22.7242 44.2333C22.7242 44.8518 22.2727 45.3147 21.6466 45.3147C21.3999 45.3147 21.176 45.2313 21.0053 45.0871L20.9408 45.2578H20.531V42.4689H21.085V43.3188C21.2443 43.2126 21.4341 43.1519 21.6466 43.1519ZM21.601 44.7911C21.9236 44.7911 22.1588 44.552 22.1588 44.2333C22.1588 43.9108 21.9236 43.6717 21.601 43.6717C21.2823 43.6717 21.0432 43.9108 21.0432 44.2333C21.0432 44.552 21.2823 44.7911 21.601 44.7911ZM25.2772 42.6017V45.2578H24.7042V44.1612H23.7062V45.2578H23.1295V42.6017H23.7062V43.6262H24.7042V42.6017H25.2772ZM26.7524 45.3147C26.1718 45.3147 25.7886 44.9467 25.7886 44.3927V43.2088H26.3426V44.3282C26.3426 44.6203 26.4943 44.7949 26.7524 44.7949C27.0066 44.7949 27.1584 44.6165 27.1584 44.3282V43.2088H27.7124V44.3927C27.7124 44.9467 27.3329 45.3147 26.7524 45.3147ZM29.385 43.1595C29.8518 43.1595 30.1402 43.4972 30.1402 44.017V45.2578H29.5862V44.1043C29.5862 43.7969 29.4685 43.6451 29.2295 43.6451C28.9449 43.6451 28.7703 43.8501 28.7703 44.1802V45.2578H28.2163V43.2088H28.5958L28.7058 43.463C28.8614 43.2771 29.1043 43.1595 29.385 43.1595ZM31.8846 44.7645V45.2578H31.4937C31.0422 45.2578 30.7652 44.9808 30.7652 44.5255V43.6527H30.3933V43.5351L31.2053 42.6738H31.3078V43.2088H31.8732V43.6527H31.3192V44.4534C31.3192 44.6507 31.433 44.7645 31.6341 44.7645H31.8846ZM34.2326 44.2257C34.2326 44.2788 34.2288 44.3357 34.2212 44.3889H32.6731C32.7186 44.6697 32.9045 44.8214 33.174 44.8214C33.3637 44.8214 33.523 44.7304 33.6065 44.5862H34.1909C34.0391 45.0301 33.6483 45.3147 33.174 45.3147C32.5668 45.3147 32.1115 44.848 32.1115 44.2333C32.1115 43.6148 32.563 43.1519 33.174 43.1519C33.8038 43.1519 34.2326 43.6376 34.2326 44.2257ZM33.174 43.6224C32.9273 43.6224 32.7528 43.7666 32.6883 44.0094H33.6786C33.6027 43.759 33.4206 43.6224 33.174 43.6224ZM35.8564 43.1974V43.721H35.6173C35.3062 43.721 35.181 43.8576 35.181 44.1916V45.2578H34.627V43.2088H34.9837L35.0823 43.4592C35.2265 43.2771 35.4124 43.1974 35.6743 43.1974H35.8564Z" fill="#00AFFF"/>
</g>
<defs>
<filter id="filter0_d_241_811" x="0" y="0.725098" width="52" height="72" filterUnits="userSpaceOnUse" color-interpolation-filters="sRGB">
<feFlood flood-opacity="0" result="BackgroundImageFix"/>
<feColorMatrix in="SourceAlpha" type="matrix" values="0 0 0 0 0 0 0 0 0 0 0 0 0 0 0 0 0 0 127 0" result="hardAlpha"/>
<feOffset dy="4"/>
<feGaussianBlur stdDeviation="2"/>
<feComposite in2="hardAlpha" operator="out"/>
<feColorMatrix type="matrix" values="0 0 0 0 0 0 0 0 0 0 0 0 0 0 0 0 0 0 0.25 0"/>
<feBlend mode="normal" in2="BackgroundImageFix" result="effect1_dropShadow_241_811"/>
<feBlend mode="normal" in="SourceGraphic" in2="effect1_dropShadow_241_811" result="shape"/>
</filter>
<clipPath id="clip0_241_811">
<rect width="44" height="64" fill="white" transform="translate(4 0.725098)"/>
</clipPath>
</defs>
</svg>
