<svg width="411" height="482" viewBox="0 0 411 482" fill="none" xmlns="http://www.w3.org/2000/svg">
<g clip-path="url(#clip0_131_1563)">
<g style="mix-blend-mode:multiply">
<path d="M88.919 383.437L244.988 293.597C251.169 290.032 260.519 289.638 265.867 292.735L362.632 349.234C367.98 352.317 367.308 357.722 361.127 361.287L335.208 376.205L406.435 417.772C411.782 420.854 411.11 426.26 404.93 429.825L319.882 478.785C313.702 482.35 304.351 482.745 299.003 479.647L227.777 438.066L205.087 451.127C198.907 454.692 189.556 455.087 184.209 451.989L87.4288 395.491C82.0813 392.393 82.7534 387.002 88.9337 383.437H88.919Z" fill="#F0F3FF"/>
</g>
<path d="M208.17 331.161L202.545 334.404L196.891 331.131L202.545 327.873L208.17 331.161Z" fill="url(#paint0_linear_131_1563)"/>
<path d="M205.715 339.65C205.584 340.263 200.835 432.704 200.835 432.704L196.54 435.202L198.673 342.236L205.715 339.635V339.65Z" fill="#6582E0"/>
<path d="M196.54 435.202L192.391 432.514L192.566 340.365L198.673 342.25L196.54 435.202Z" fill="#7D9FF4"/>
<path d="M327.67 259.759C327.801 260.373 335.545 349.351 335.545 349.351L339.84 351.849L334.712 262.345L327.67 259.745V259.759Z" fill="#7D9FF4"/>
<path d="M339.84 351.849L343.989 349.161L340.819 260.475L334.712 262.345L339.84 351.849Z" fill="#6582E0"/>
<path d="M121.077 287.329C120.946 287.943 114.692 379.244 114.692 379.244L110.397 381.742L114.035 289.93L121.077 287.329Z" fill="#6582E0"/>
<path d="M110.397 381.728L106.248 379.039L107.928 288.045L114.021 289.915L110.397 381.728Z" fill="#7D9FF4"/>
<path d="M104.654 291.946V284.627L110.177 283.355L242.037 207.454C247.311 204.415 255.274 204.079 259.847 206.709L342.104 254.733L345.45 253.974V262.229H345.421C345.319 264.186 343.858 266.232 341.082 267.824L208.009 344.427C202.735 347.466 194.772 347.802 190.199 345.173L107.693 297.002C105.385 295.672 104.391 293.831 104.654 291.946Z" fill="#7D9FF4"/>
<path d="M190.199 336.976L107.693 288.805C103.135 286.175 103.705 281.573 108.979 278.519L242.051 201.916C247.326 198.877 255.289 198.541 259.862 201.171L342.367 249.342C346.926 251.972 346.356 256.574 341.096 259.628L208.024 336.231C202.749 339.27 194.786 339.606 190.213 336.961L190.199 336.976Z" fill="#F3F6FF"/>
<path d="M229.122 248.962V250.759L208.039 262.652L201.274 253.769C199.93 252.001 199.199 249.853 199.199 247.633V240.868L203.889 240.225L213.81 249.006L229.122 248.977V248.962Z" fill="#7D9FF4"/>
<path d="M216.922 233.548V238.413C216.922 241.116 218.456 243.6 220.867 244.812L229.122 248.962L208.199 260.227L203.378 254.075C202.063 252.41 201.362 250.35 201.362 248.231V239.465L216.922 233.562V233.548Z" fill="#B7CDF9"/>
<path d="M206.475 237.186C206.066 237.42 205.686 237.449 205.409 237.288L207.805 238.676C208.083 238.837 208.448 238.808 208.872 238.574C208.156 238.15 207.191 237.595 206.475 237.186Z" fill="#4334D6"/>
<path d="M207.965 234.6C207.965 235.55 207.307 236.704 206.474 237.186L208.871 238.574C209.703 238.092 210.361 236.938 210.361 235.988C210.361 235.52 210.2 235.184 209.923 235.038L207.526 233.65C207.789 233.811 207.965 234.132 207.965 234.6Z" fill="#4334D6"/>
<path d="M209.938 235.038L207.542 233.65C207.264 233.489 206.899 233.519 206.475 233.752L208.871 235.14C209.295 234.907 209.66 234.877 209.938 235.038Z" fill="#B7CDF9"/>
<path d="M205.424 237.288L207.82 238.676C207.557 238.516 207.381 238.194 207.381 237.712C207.381 236.762 208.039 235.608 208.872 235.141L206.475 233.753C205.657 234.235 204.985 235.374 204.985 236.324C204.985 236.792 205.146 237.128 205.424 237.288Z" fill="#B7CDF9"/>
<path d="M243.206 213.152L174.376 252.892V259.277C174.391 260.037 174.96 260.314 175.647 259.92L241.964 221.626C242.651 221.231 243.221 220.296 243.221 219.537V213.152H243.206ZM208.857 238.589C208.039 239.071 207.367 238.676 207.367 237.727C207.367 236.777 208.024 235.623 208.857 235.155C209.69 234.673 210.362 235.053 210.362 236.003C210.362 236.952 209.704 238.106 208.871 238.589" fill="#45409B"/>
<path d="M208.871 235.141C208.052 235.623 207.38 236.762 207.38 237.712C207.38 238.662 208.052 239.042 208.871 238.574C209.703 238.092 210.361 236.938 210.361 235.988C210.361 235.038 209.689 234.658 208.856 235.141H208.871Z" fill="#B7CDF9"/>
<path d="M243.206 213.152L240.825 211.749L171.994 251.49L174.376 252.892L243.206 213.152Z" fill="#4334D6"/>
<path d="M241.16 169.875L238.764 168.487L238.896 210.77L241.277 212.158L241.16 169.875Z" fill="white"/>
<path d="M241.277 212.158L238.896 210.77L173.894 248.29L176.29 249.693L241.277 212.158Z" fill="white"/>
<path d="M238.501 167.903C238.676 168.005 238.779 168.21 238.779 168.487C239.48 168.897 240.181 169.306 240.897 169.715L241.175 169.875C241.175 169.583 241.073 169.379 240.897 169.291C240.181 168.867 239.217 168.312 238.501 167.903Z" fill="white"/>
<path d="M241.175 172.651L238.779 171.263L173.791 208.783L176.187 210.171L241.175 172.651Z" fill="#B7CDF9"/>
<path d="M177.166 205.744C176.626 206.066 176.173 206.811 176.173 207.41V210.186L241.175 172.666V169.89C241.175 169.291 240.722 169.057 240.167 169.379L177.166 205.759V205.744Z" fill="#0F8FCC"/>
<path d="M241.277 212.158L176.29 249.678L176.173 210.171L241.16 172.651L241.277 212.158Z" fill="#DBFFFF"/>
<path d="M240.167 169.364L238.779 170.167V168.487L240.226 169.335L240.167 169.364Z" fill="#B7CDF9"/>
<path d="M240.898 169.291L238.502 167.903C238.326 167.801 238.064 167.815 237.771 167.976L240.167 169.364C240.46 169.203 240.708 169.189 240.898 169.291Z" fill="#E84F88"/>
<path d="M242.285 167.056L239.889 165.668C239.363 165.361 238.603 165.405 237.755 165.887L240.152 167.275C240.984 166.793 241.744 166.734 242.285 167.056Z" fill="white"/>
<path d="M172.345 258.62L174.741 260.008C174.537 259.891 174.405 259.628 174.405 259.263L172.009 257.875C172.009 258.24 172.141 258.488 172.345 258.62Z" fill="#32327C"/>
<path d="M174.376 252.892L171.994 251.49L172.009 257.889L174.405 259.277L174.376 252.892Z" fill="#32327C"/>
<path d="M176.187 210.171L173.791 208.783L173.893 248.29L176.29 249.693L176.187 210.171Z" fill="#B7CDF9"/>
<path d="M176.173 207.395L173.777 206.007L173.792 208.783L176.188 210.171L176.173 207.395Z" fill="#E84F88"/>
<path d="M177.167 205.744L174.77 204.356C174.23 204.678 173.777 205.423 173.777 206.022L176.173 207.41C176.173 206.811 176.611 206.066 177.167 205.744Z" fill="#E84F88"/>
<path d="M177.152 203.64C175.545 204.575 174.244 206.752 174.244 208.506L174.376 252.878L243.206 213.137L243.075 168.765C243.075 167.012 241.76 166.34 240.152 167.275L177.152 203.655V203.64ZM176.173 210.171V207.395C176.173 206.796 176.611 206.051 177.152 205.73L240.152 169.349C240.708 169.028 241.146 169.262 241.146 169.861L241.263 212.144L176.275 249.663L176.158 210.156" fill="white"/>
<path d="M177.152 203.64L174.756 202.252C173.149 203.187 171.848 205.364 171.848 207.117L174.244 208.505C174.244 206.752 175.53 204.575 177.152 203.64Z" fill="#B7CDF9"/>
<path d="M240.167 167.275L237.77 165.887L174.77 202.252L177.151 203.64L240.167 167.275Z" fill="#B7CDF9"/>
<path d="M174.259 208.506L171.862 207.118L171.994 251.49L174.375 252.892L174.259 208.506Z" fill="#B7CDF9"/>
<path d="M208.521 301.838L178.496 284.393C178.847 284.597 179.066 285.035 179.081 285.664C179.081 286.92 178.19 288.454 177.108 289.083L207.133 306.528C208.214 305.899 209.105 304.365 209.105 303.109C209.105 302.48 208.886 302.042 208.521 301.838Z" fill="#1CB8FF"/>
<path d="M207.133 306.513L177.108 289.068L156.843 300.771L186.868 318.216L207.133 306.513Z" fill="#1CB8FF"/>
<path d="M207.119 301.969L177.095 284.524L156.83 296.227L186.854 313.672L207.119 301.969Z" fill="white"/>
<path d="M207.119 300.42L177.095 282.975L156.83 294.678L186.854 312.123L207.119 300.42Z" fill="#9FBCF4"/>
<path d="M209.485 300.187L179.46 282.742C178.861 282.391 178.014 282.435 177.093 282.975L207.118 300.42C208.038 299.894 208.886 299.836 209.485 300.187Z" fill="#9FBCF4"/>
<path d="M186.868 318.216L156.843 300.771V302.32L186.868 319.765V318.216Z" fill="#9FBCF4"/>
<path d="M186.853 313.672L156.828 296.227L156.843 300.771L186.868 318.216L186.853 313.672Z" fill="white"/>
<path d="M186.854 313.672V318.216L207.133 306.513C208.214 305.885 209.105 304.351 209.105 303.094C209.105 301.838 208.214 301.341 207.118 301.969L186.854 313.672Z" fill="#B7CDF9"/>
<path d="M186.854 312.123L156.829 294.678V296.227L186.854 313.672V312.123Z" fill="#9FBCF4"/>
<path d="M186.854 312.123V313.672L207.119 301.969C208.2 301.341 209.106 301.838 209.106 303.094C209.106 304.351 208.214 305.885 207.133 306.513L186.868 318.216V319.765L207.133 308.062C208.974 306.995 210.45 304.438 210.45 302.32C210.45 300.216 208.945 299.354 207.119 300.42L186.854 312.123Z" fill="#7D9FF4"/>
<path d="M205.657 294.474L182.295 280.901C182.572 281.061 182.748 281.397 182.748 281.894C182.748 282.873 182.061 284.057 181.214 284.553L204.576 298.126C205.423 297.644 206.11 296.446 206.11 295.467C206.11 294.985 205.935 294.635 205.657 294.474Z" fill="#1CB8FF"/>
<path d="M204.561 298.112L181.213 284.539L165.434 293.641L188.796 307.214L204.561 298.112Z" fill="#1CB8FF"/>
<path d="M204.561 294.576L181.199 281.003L165.434 290.105L188.782 303.678L204.561 294.576Z" fill="white"/>
<path d="M204.547 293.378L181.2 279.805L165.42 288.907L188.783 302.48L204.547 293.378Z" fill="#1CB8FF"/>
<path d="M206.387 293.203L183.025 279.629C182.557 279.352 181.9 279.396 181.184 279.805L204.546 293.378C205.262 292.969 205.92 292.925 206.387 293.203Z" fill="#1CB8FF"/>
<path d="M188.796 307.214L165.434 293.641L165.449 294.854L188.796 308.427V307.214Z" fill="#1CB8FF"/>
<path d="M188.782 303.679L165.434 290.105V293.641L188.796 307.214L188.782 303.679Z" fill="white"/>
<path d="M188.782 303.678V307.214L204.561 298.112C205.409 297.63 206.095 296.432 206.095 295.453C206.095 294.474 205.394 294.079 204.547 294.576L188.782 303.678Z" fill="#B7CDF9"/>
<path d="M188.782 302.48L165.42 288.907L165.435 290.105L188.782 303.678V302.48Z" fill="#1CB8FF"/>
<path d="M188.782 302.48V303.679L204.547 294.576C205.394 294.094 206.095 294.474 206.095 295.453C206.095 296.432 205.409 297.615 204.561 298.112L188.797 307.214V308.412L204.561 299.31C205.993 298.492 207.147 296.49 207.133 294.839C207.118 293.188 205.964 292.531 204.532 293.364L188.767 302.466L188.782 302.48Z" fill="#EA6921"/>
<path d="M298.303 252.147V250.759C298.303 251.139 298.054 251.519 297.543 251.811V253.199C298.054 252.907 298.303 252.527 298.303 252.147Z" fill="#7D9FF4"/>
<path d="M241.278 265.75V267.138C241.278 267.517 241.526 267.883 242.023 268.175V266.787C241.526 266.495 241.278 266.129 241.278 265.75Z" fill="#7D9FF4"/>
<path d="M242.023 266.787L242.038 268.16L254.982 275.699V274.311L242.023 266.787Z" fill="#7D9FF4"/>
<path d="M258.591 274.311L258.606 275.699L297.543 253.214V251.826L258.591 274.311Z" fill="#7D9FF4"/>
<path d="M254.983 274.311V275.699C255.976 276.284 257.598 276.284 258.606 275.699V274.311C257.598 274.896 255.976 274.896 254.983 274.311Z" fill="#7D9FF4"/>
<path d="M242.037 264.683C241.029 265.267 241.029 266.202 242.037 266.772L254.997 274.297C255.99 274.881 257.612 274.881 258.606 274.297L297.543 251.811C298.551 251.227 298.551 250.292 297.543 249.722L284.583 242.197C283.59 241.613 281.968 241.613 280.974 242.197L242.037 264.683Z" fill="#B7CDF9"/>
<path d="M283.707 244.257V243.907C283.707 243.907 283.663 244.023 283.59 244.053V244.403C283.663 244.36 283.707 244.301 283.707 244.257Z" fill="#C0CAED"/>
<path d="M255.567 258.488V258.839C255.567 258.839 255.611 258.941 255.669 258.985V258.634C255.669 258.634 255.567 258.532 255.567 258.488Z" fill="#C0CAED"/>
<path d="M255.67 258.634V258.985L256.736 259.599V259.263L255.67 258.634Z" fill="#C0CAED"/>
<path d="M257.276 259.263V259.599L283.59 244.404V244.068L257.276 259.263Z" fill="#C0CAED"/>
<path d="M256.736 259.262V259.613C256.882 259.701 257.13 259.701 257.276 259.613V259.262C257.13 259.35 256.882 259.35 256.736 259.262Z" fill="#C0CAED"/>
<path d="M255.684 258.327C255.538 258.415 255.538 258.546 255.684 258.634L256.75 259.248C256.896 259.335 257.145 259.335 257.291 259.248L283.604 244.053C283.75 243.965 283.75 243.834 283.604 243.746L282.538 243.132C282.392 243.045 282.158 243.045 282.012 243.132L255.698 258.327H255.684Z" fill="#F3F6FF"/>
<path d="M255.508 260.534V260.183C255.508 260.183 255.464 260.3 255.391 260.344V260.694C255.464 260.651 255.508 260.592 255.508 260.534Z" fill="#C0CAED"/>
<path d="M244.843 264.668V265.019C244.843 265.019 244.886 265.136 244.945 265.165V264.814C244.945 264.814 244.843 264.712 244.843 264.668Z" fill="#C0CAED"/>
<path d="M244.959 264.829V265.165L246.026 265.793V265.443L244.959 264.829Z" fill="#C0CAED"/>
<path d="M246.551 265.443V265.793L255.405 260.694L255.391 260.344L246.551 265.443Z" fill="#C0CAED"/>
<path d="M246.026 265.443V265.793C246.172 265.881 246.42 265.881 246.566 265.793V265.443C246.42 265.53 246.187 265.53 246.026 265.443Z" fill="#C0CAED"/>
<path d="M244.959 264.522C244.813 264.61 244.813 264.741 244.959 264.829L246.026 265.443C246.172 265.53 246.42 265.53 246.566 265.443L255.406 260.344C255.552 260.256 255.552 260.124 255.406 260.037L254.339 259.423C254.193 259.336 253.944 259.336 253.798 259.423L244.959 264.522Z" fill="#F3F6FF"/>
<path d="M294.737 250.671V250.321C294.737 250.321 294.693 250.438 294.62 250.482V250.832C294.693 250.788 294.737 250.73 294.737 250.671Z" fill="#C0CAED"/>
<path d="M258.489 260.198V260.548C258.489 260.548 258.532 260.651 258.591 260.694V260.344C258.591 260.344 258.489 260.241 258.489 260.198Z" fill="#C0CAED"/>
<path d="M268.307 265.662V266.013L294.62 250.818V250.467L268.307 265.662Z" fill="#C0CAED"/>
<path d="M258.606 260.344V260.694L267.767 266.013V265.677L258.606 260.344Z" fill="#C0CAED"/>
<path d="M267.767 265.677V266.027C267.913 266.115 268.146 266.115 268.307 266.027V265.677C268.161 265.764 267.913 265.764 267.767 265.677Z" fill="#C0CAED"/>
<path d="M258.606 260.037C258.459 260.124 258.459 260.256 258.606 260.344L267.781 265.676C267.927 265.764 268.161 265.764 268.322 265.676L294.635 250.482C294.781 250.394 294.781 250.262 294.635 250.175L285.46 244.842C285.314 244.754 285.08 244.754 284.934 244.842L258.62 260.037H258.606Z" fill="#F3F6FF"/>
<path d="M262.798 264.77V264.42C262.798 264.42 262.755 264.537 262.681 264.581V264.931C262.755 264.887 262.798 264.829 262.798 264.77Z" fill="#C0CAED"/>
<path d="M247.779 266.378V266.729C247.779 266.729 247.822 266.845 247.881 266.875V266.524C247.881 266.524 247.779 266.422 247.779 266.378Z" fill="#C0CAED"/>
<path d="M247.88 266.524V266.874L253.315 270.03V269.68L247.88 266.524Z" fill="#C0CAED"/>
<path d="M253.842 269.68V270.03L262.696 264.931V264.581L253.842 269.68Z" fill="#C0CAED"/>
<path d="M253.316 269.68V270.03C253.462 270.118 253.696 270.118 253.842 270.03V269.68C253.696 269.767 253.462 269.767 253.316 269.68Z" fill="#C0CAED"/>
<path d="M247.881 266.217C247.735 266.305 247.735 266.436 247.881 266.524L253.317 269.68C253.463 269.768 253.696 269.768 253.843 269.68L262.682 264.581C262.828 264.493 262.828 264.362 262.682 264.274L257.247 261.118C257.101 261.03 256.852 261.03 256.706 261.118L247.867 266.217H247.881Z" fill="#F3F6FF"/>
<path d="M265.473 267.561V267.211C265.473 267.211 265.429 267.327 265.356 267.371V267.722C265.429 267.678 265.473 267.62 265.473 267.561Z" fill="#C0CAED"/>
<path d="M262.39 267.693V268.043C262.39 268.043 262.434 268.146 262.493 268.19V267.839C262.493 267.839 262.39 267.737 262.39 267.693Z" fill="#C0CAED"/>
<path d="M263.793 268.277V268.628L265.356 267.722V267.371L263.793 268.277Z" fill="#C0CAED"/>
<path d="M262.492 267.839V268.189L263.252 268.628V268.277L262.492 267.839Z" fill="#C0CAED"/>
<path d="M263.252 268.277V268.628C263.398 268.715 263.632 268.715 263.793 268.628V268.277C263.647 268.365 263.398 268.365 263.252 268.277Z" fill="#C0CAED"/>
<path d="M262.507 267.532C262.361 267.62 262.361 267.751 262.507 267.839L263.266 268.277C263.413 268.365 263.646 268.365 263.807 268.277L265.37 267.371C265.517 267.284 265.517 267.152 265.37 267.064L264.611 266.626C264.465 266.538 264.216 266.538 264.07 266.626L262.507 267.532Z" fill="#F3F6FF"/>
<path d="M261.162 268.102V267.751C261.162 267.751 261.133 267.868 261.06 267.897V268.248C261.133 268.204 261.162 268.145 261.162 268.102Z" fill="#C0CAED"/>
<path d="M258.08 268.219V268.569C258.08 268.569 258.124 268.686 258.197 268.73V268.379C258.124 268.336 258.08 268.277 258.08 268.219Z" fill="#C0CAED"/>
<path d="M258.182 268.379V268.715L258.941 269.154V268.818L258.182 268.379Z" fill="#C0CAED"/>
<path d="M259.468 268.817V269.168L261.046 268.248V267.911L259.468 268.817Z" fill="#C0CAED"/>
<path d="M258.942 268.818V269.168C259.088 269.256 259.337 269.256 259.483 269.168V268.818C259.337 268.905 259.088 268.905 258.942 268.818Z" fill="#C0CAED"/>
<path d="M258.182 268.072C258.036 268.16 258.036 268.292 258.182 268.379L258.942 268.818C259.088 268.905 259.336 268.905 259.482 268.818L261.06 267.912C261.206 267.824 261.206 267.693 261.06 267.605L260.301 267.167C260.154 267.079 259.906 267.079 259.76 267.167L258.182 268.072Z" fill="#F3F6FF"/>
<path d="M262.843 269.081V268.73C262.843 268.73 262.799 268.847 262.726 268.891V269.241C262.799 269.198 262.843 269.139 262.843 269.081Z" fill="#C0CAED"/>
<path d="M259.76 269.198V269.548C259.76 269.548 259.804 269.665 259.862 269.694V269.344C259.789 269.3 259.76 269.241 259.76 269.198Z" fill="#C0CAED"/>
<path d="M259.862 269.358V269.694L260.622 270.147V269.797L259.862 269.358Z" fill="#C0CAED"/>
<path d="M261.162 269.797V270.147L262.726 269.227V268.891L261.162 269.797Z" fill="#C0CAED"/>
<path d="M260.621 269.797V270.147C260.768 270.235 261.001 270.235 261.147 270.147V269.797C261.001 269.884 260.768 269.884 260.621 269.797Z" fill="#C0CAED"/>
<path d="M259.876 269.051C259.73 269.139 259.73 269.271 259.876 269.358L260.636 269.797C260.782 269.884 261.016 269.884 261.162 269.797L262.74 268.891C262.886 268.803 262.886 268.672 262.74 268.584L261.98 268.146C261.834 268.058 261.6 268.058 261.454 268.146L259.876 269.051Z" fill="#F3F6FF"/>
<path d="M260.169 270.629V270.279C260.169 270.279 260.125 270.396 260.052 270.439V270.79C260.125 270.746 260.169 270.688 260.169 270.629Z" fill="#C0CAED"/>
<path d="M257.086 270.746V271.097C257.086 271.097 257.13 271.214 257.188 271.243V270.892C257.188 270.892 257.086 270.79 257.086 270.746Z" fill="#C0CAED"/>
<path d="M257.188 270.907V271.243L257.948 271.681V271.345L257.188 270.907Z" fill="#C0CAED"/>
<path d="M258.474 271.345V271.681L260.052 270.775V270.439L258.474 271.345Z" fill="#C0CAED"/>
<path d="M257.948 271.345V271.696C258.094 271.784 258.328 271.784 258.474 271.696V271.345C258.328 271.433 258.094 271.433 257.948 271.345Z" fill="#C0CAED"/>
<path d="M257.188 270.6C257.042 270.688 257.042 270.819 257.188 270.907L257.948 271.345C258.094 271.433 258.328 271.433 258.474 271.345L260.052 270.439C260.198 270.352 260.198 270.22 260.052 270.133L259.292 269.694C259.146 269.607 258.912 269.607 258.766 269.694L257.188 270.6Z" fill="#F3F6FF"/>
<path d="M275.467 251.972C275.467 251.972 276.548 249.094 279.411 248.977C279.411 248.977 282.947 248.246 286.001 248.714C288.733 249.137 292.824 251.767 295.673 254.178C295.673 254.178 300.641 256.516 309.129 257.392C315.441 258.035 320.102 259.613 322.352 260.592C324.602 261.571 337.269 274.019 337.269 274.019C337.269 274.019 336.349 278.344 326.238 279.133C316.113 279.907 291.319 264.055 291.319 264.055C291.319 264.055 289.858 263.85 287.608 263.704C287.608 263.704 280.361 263.66 278.769 263.047C277.176 262.433 275.583 260.972 275.978 260.621C276.372 260.271 278.053 260.621 279.295 260.621C280.025 260.621 281.705 260.066 282.567 259.832C281.413 257.714 276.358 255.873 276.022 255.727C275.028 255.303 274.342 256.18 273.932 256.165C272.471 256.107 273.786 252.585 275.467 251.986V251.972Z" fill="#F9B9B7"/>
<path d="M237.713 401.423C237.713 401.423 229.779 399.728 227.661 402.913C225.542 406.098 226.477 410.569 227.953 412.644C229.429 414.704 231.956 418.181 240.62 421.425C249.284 424.668 251.461 427.561 257.481 427.254C263.5 426.962 265.268 421.761 263.734 417.699C262.2 413.637 237.713 401.423 237.713 401.423Z" fill="#45409B"/>
<path d="M247.297 349.424V403.687C247.297 408.056 248.977 411.577 253.2 412.687C257.115 413.725 259.599 414.353 262.551 409.678C263.164 399.465 269.038 380.851 269.038 352.404L247.297 349.424Z" fill="#F9B9B7"/>
<path d="M288.586 323.344L291.377 386.301C291.377 386.301 299.617 397.726 305.52 388.376L311.32 331.102L288.572 323.33L288.586 323.344Z" fill="#F9B9B7"/>
<path d="M247.823 403.22C247.823 403.22 240.839 401.554 235.974 401.291C228.245 400.868 228.187 402.752 228.493 406.113C228.8 409.473 230.334 412.132 233.154 414.192C235.974 416.238 239.232 418.371 245.953 420.738C252.659 423.09 252.791 424.507 256.911 424.244C261.031 423.981 266.247 421.512 262.755 407.589C259.263 393.679 247.838 403.22 247.838 403.22H247.823Z" fill="#F9B9B7"/>
<path d="M238.18 401.189C238.18 401.189 232.628 401.408 231.123 412.366C231.123 412.366 232.759 415.23 236.953 416.705C236.953 416.705 237.259 409.911 240.328 406.113C243.396 402.299 244.302 402.475 244.302 402.475C244.302 402.475 244.302 401.934 242.432 401.642C240.547 401.35 238.472 400.955 238.195 401.204L238.18 401.189Z" fill="#45409B"/>
<path d="M281.573 383.963C281.573 383.963 277.044 382.926 271.813 385.585C266.451 388.317 269.344 394.074 271.872 396.192C273.815 397.814 275.817 400.721 284.481 403.965C293.145 407.208 295.322 410.101 301.341 409.795C307.361 409.502 309.129 404.301 307.594 400.239C306.06 396.178 281.573 383.963 281.573 383.963Z" fill="#45409B"/>
<path d="M291.67 385.76C291.67 385.76 284.686 384.124 279.821 383.831C276.928 383.656 273.874 385.176 271.215 387.952C268.863 390.406 274.166 394.672 276.986 396.718C279.806 398.763 283.064 400.897 289.785 403.263C296.491 405.616 296.623 407.033 300.743 406.77C304.863 406.507 310.079 404.038 306.587 390.129C303.095 376.219 291.67 385.76 291.67 385.76Z" fill="#F9B9B7"/>
<path d="M282.041 383.729C282.041 383.729 276.489 383.948 274.984 394.906C274.984 394.906 276.62 397.77 280.814 399.246C280.814 399.246 281.12 392.452 284.189 388.653C287.257 384.84 288.163 385.015 288.163 385.015C288.163 385.015 288.163 384.474 286.292 384.182C284.408 383.89 282.333 383.495 282.055 383.744L282.041 383.729Z" fill="#45409B"/>
<path d="M322.103 378.922C322.001 379.419 318.158 454.02 318.158 454.02L314.681 456.037L316.405 381.012L322.088 378.922H322.103Z" fill="#6582E0"/>
<path d="M314.695 456.037L311.349 453.86L311.495 379.492L316.419 381.012L314.695 456.037Z" fill="#7D9FF4"/>
<path d="M265.225 352.521C265.122 353.018 247.59 427.838 247.59 427.838L244.112 429.855L259.527 354.625L265.21 352.536L265.225 352.521Z" fill="#6582E0"/>
<path d="M244.112 429.855L240.766 427.678L254.617 353.106L259.526 354.611L244.112 429.855Z" fill="#7D9FF4"/>
<path d="M358.659 354.508C358.557 355.005 367.367 425.267 367.367 425.267L363.889 427.283L352.975 356.598L358.659 354.508Z" fill="#6582E0"/>
<path d="M363.889 427.284L360.543 425.107L348.051 355.093L352.975 356.598L363.889 427.284Z" fill="#7D9FF4"/>
<path d="M274.546 330.737C274.589 331.058 274.619 331.365 274.662 331.687C276.445 345.83 278.271 359.183 278.271 359.183L305.301 355.093L309.582 324.25L301.721 315.98C301.721 315.98 296.184 311.948 288.689 310.531C283.75 309.595 278.374 312.371 275.831 318.537C274.502 321.722 273.932 325.798 274.546 330.737Z" fill="#363682"/>
<path d="M274.545 330.737C274.589 331.058 274.618 331.365 274.662 331.687C277.175 331.92 279.177 332.081 279.177 332.081C275.276 324.951 275.787 319.005 275.831 318.523C274.501 321.708 273.932 325.784 274.545 330.722V330.737Z" fill="#F9B9B7"/>
<path d="M230.232 278.315C230.232 278.315 230.933 283.107 234.528 286.35C239.115 290.485 244.726 288.63 246.289 286.219C247.852 283.808 234.761 273.902 230.232 278.315Z" fill="#7D9FF4"/>
<path d="M288.586 308.778C288.586 308.778 286.804 312.825 276.737 311.524C266.671 310.224 247.209 290.88 247.209 290.88C247.209 290.88 240.372 288.469 238.838 285.751C237.946 284.173 232.789 278.607 232.365 278.329C231.474 277.716 230.627 278.431 230.217 278.329C228.8 277.979 230.802 274.793 232.57 274.56C232.57 274.56 234.221 271.959 237.055 272.441C237.055 272.441 239.174 271.857 241.891 272.383C244.609 272.909 249.62 277.92 251.914 280.871C251.914 280.871 256.297 284.173 264.435 286.759C270.469 288.688 274.721 291.186 276.723 292.589C278.724 294.006 288.572 308.792 288.572 308.792L288.586 308.778Z" fill="#F9B9B7"/>
<path d="M250.38 364.035L299.69 393.942C302.349 395.564 305.388 396.309 308.398 396.178C310.005 396.119 311.612 395.798 313.147 395.228C313.921 394.936 314.695 394.585 315.426 394.161L359.579 368.871C363.509 366.621 366.519 363.041 368.111 358.789C373.225 345.099 378.134 327.304 380.603 305.651C381.144 300.844 376.001 297.454 371.808 299.894L331.863 323.184C327.231 325.886 324.061 330.533 323.228 335.836C323.023 337.151 322.819 338.452 322.6 339.723C322.57 339.942 322.527 340.161 322.497 340.38L303.533 329.203C299.836 327.026 295.263 326.997 291.538 329.145L252.06 351.922L250.482 352.828C249.722 353.267 249.08 353.836 248.554 354.523C247.867 355.429 247.429 356.51 247.282 357.664C246.961 360.207 248.174 362.69 250.365 364.02L250.38 364.035Z" fill="#7D9FF4"/>
<path d="M298.755 250.014C299.296 251.256 300.041 252.045 300.947 252.498C303.226 253.652 306.441 252.717 309.611 251.475L313.454 260.942C313.454 260.942 333.207 254.046 333.558 253.886C333.265 253.944 330.489 241.759 330.489 241.759C330.489 241.759 302.437 223.627 302.218 223.627C301.999 223.613 297.382 224.372 297.382 224.372C297.382 224.372 294.986 241.408 298.726 250.028L298.755 250.014Z" fill="#F9B9B7"/>
<path opacity="0.69" d="M300.961 252.498C303.065 252.264 308.091 249.561 311.948 245.12C311.948 245.12 311.992 249.839 309.625 251.49C309.625 251.49 304.964 254.149 300.961 252.512V252.498Z" fill="#EA8383"/>
<path d="M247.296 349.424C247.296 349.424 249.357 350.154 252.585 351.615C256.194 353.252 261.279 355.809 266.538 359.3C281.018 368.885 300.654 379.96 309.581 378.835C327.61 376.57 333.469 354.011 333.469 354.011L289.974 330.503C289.974 330.503 267.108 321.415 256.399 325.258C254.646 325.886 253.228 326.938 252.089 328.297C246.171 335.178 247.282 349.424 247.282 349.424H247.296Z" fill="#45409B"/>
<path d="M247.296 349.424C247.296 349.424 249.357 350.154 252.585 351.615C252.585 351.615 247.253 339.415 252.103 328.297C246.186 335.178 247.296 349.424 247.296 349.424Z" fill="#F9B9B7"/>
<path d="M300.158 299.807C300.45 300.406 300.582 301.794 300.582 303.591C300.582 304.935 300.538 306.513 300.435 308.149C300.099 313.891 298.668 320.656 297.659 321.05C293.934 322.584 285.007 326.471 284.159 329.071C282.421 334.463 283.283 340.219 292.254 349.409C292.955 350.125 293.685 350.841 294.474 351.601C305.505 362.106 330.665 355.75 341.389 354.012C352.142 352.258 355.853 330.079 356.584 316.886C357.416 302.466 359.126 283.998 354.421 270.863C350.944 261.103 345.246 250.818 334.916 251.738C328.531 252.308 320.7 255.405 315.82 256.691C304.205 259.788 293.832 265.822 290.354 270.308L274.312 294.678C276.766 301.472 282.917 306.498 290.354 310.867L300.172 299.777L300.158 299.807Z" fill="#0F8FCC"/>
<path d="M300.436 308.164C306.587 300.99 310.444 285.737 310.444 285.737L300.158 299.807C300.684 300.844 300.669 304.321 300.436 308.164Z" fill="#005C8A"/>
<path d="M292.239 349.424C290.209 345.084 285.416 333.571 289.975 330.518C295.644 326.734 307.829 343.77 309.582 338.817C311.335 333.864 301.371 325.316 301.371 325.316C301.371 325.316 315.952 329.539 317.282 326.003C318.611 322.467 313.352 322.526 305.929 321.299C298.493 320.057 304.98 300.8 304.98 300.8L300.567 303.605C300.567 304.949 300.524 306.527 300.421 308.164C300.085 313.906 298.653 320.67 297.645 321.065C293.92 322.599 284.993 326.485 284.145 329.086C282.407 334.477 283.269 340.234 292.239 349.424Z" fill="#005C8A"/>
<path d="M247.312 357.679C247.458 356.525 247.896 355.443 248.583 354.552C247.969 355.838 248.378 357.518 249.781 358.307L307.785 390.772C308.837 391.371 310.181 390.83 310.546 389.676C311.306 387.25 312.402 383.788 312.402 383.788C316.171 371.398 319.648 357.503 322.512 340.395C322.556 340.175 322.585 339.956 322.629 339.737C322.848 338.466 323.053 337.166 323.257 335.851C324.075 330.547 327.246 325.901 331.892 323.198L371.837 299.909C375.066 298.024 378.879 299.617 380.194 302.656C380.589 303.547 380.749 304.57 380.633 305.665C378.163 327.318 373.269 345.114 368.141 358.804C366.548 363.056 363.538 366.62 359.608 368.885L315.455 394.176C314.885 394.497 314.316 394.775 313.716 395.023C313.527 395.096 313.351 395.169 313.161 395.242H313.132C312.796 395.374 312.445 395.491 312.109 395.593C312.051 395.608 311.992 395.637 311.919 395.652C311.583 395.739 311.247 395.827 310.911 395.9C310.838 395.9 310.78 395.929 310.707 395.944C310.356 396.017 310.02 396.061 309.669 396.104C309.611 396.104 309.567 396.104 309.509 396.119C309.143 396.163 308.778 396.192 308.413 396.207C305.403 396.338 302.364 395.593 299.705 393.971L250.395 364.064C248.203 362.734 247.005 360.25 247.312 357.708V357.679Z" fill="#B7CDF9"/>
<path d="M313.702 395.009C314.286 394.76 314.871 394.483 315.44 394.161L359.593 368.871C363.524 366.621 366.533 363.041 368.126 358.789C373.24 345.099 378.149 327.304 380.618 305.651C380.735 304.555 380.574 303.532 380.18 302.641C378.748 302.232 377.126 302.349 375.636 303.226L335.691 326.515C331.059 329.218 327.889 333.864 327.056 339.167C326.851 340.482 326.647 341.783 326.428 343.054C326.384 343.273 326.355 343.492 326.311 343.711C322.833 364.531 318.436 380.603 313.702 395.009Z" fill="#7D9FF4"/>
<path d="M297.412 224.358C297.412 224.358 298.873 228.551 302.701 229.077C302.701 229.077 302.818 234.03 304.293 235.024L303.767 237.873L306.412 239.889C306.412 239.889 307.186 234.556 309.305 234.965C311.423 235.374 312.387 240.123 310.999 241.905C310.999 241.905 314.725 249.006 318.261 249.517C321.797 250.043 329.978 248.363 331.688 246.814C333.397 245.266 332.754 237.011 332.754 237.011C332.754 237.011 337.123 225.688 336.407 220.735C335.706 215.782 330.68 215.548 330.68 215.548C330.68 215.548 330.855 206.299 318.655 205.057C306.456 203.816 302.744 205.335 299.676 208.403C296.608 211.471 291.962 210.916 292.079 217.827C292.166 223.584 293.876 225.629 297.105 226.9L297.397 224.329L297.412 224.358Z" fill="#4056B9"/>
<path d="M5.50792 103.704L0.0436087 100.534L0.467326 248.597L5.93164 251.767L5.50792 103.704Z" fill="#B7CDF9"/>
<path d="M76.4272 62.7658L70.9629 59.5807L0.0435257 100.534L5.50784 103.704L76.4272 62.7658Z" fill="#B7CDF9"/>
<path d="M5.50743 103.705L5.93114 251.767L76.8359 210.829L76.4268 62.7659L5.50743 103.705Z" fill="#DCE9FF"/>
<path d="M73.8414 135.453L71.0215 137.075L43.6122 152.898L43.6268 158.523L71.0361 142.7L73.856 141.078L73.8414 135.453Z" fill="white"/>
<path d="M10.8407 177.458L11.0015 238.501L11.0161 243.06L38.4546 227.222L38.2646 161.635L34.3636 163.871L10.8407 177.458Z" fill="#7D9FF4"/>
<path d="M10.8252 171.833L8.66279 173.075L8.67742 178.715L10.8397 177.458L38.2637 161.62L38.2491 155.995L10.8252 171.833Z" fill="white"/>
<path d="M43.4218 87.3116L43.5971 148.354V152.898L71.021 137.075L70.8457 71.4884L66.9447 73.7384L43.4218 87.3116Z" fill="#7D9FF4"/>
<path d="M38.0594 90.3797L38.2493 155.995L38.2639 161.621L38.4539 227.222L43.8159 224.241L43.626 158.523L43.6114 152.898L43.4215 87.3115L38.0594 90.3797Z" fill="white"/>
<path d="M10.6357 106.247L10.811 167.289L10.8256 171.833L38.2495 155.995L38.0596 90.4089L34.1586 92.6589L10.6357 106.247Z" fill="#7D9FF4"/>
<path d="M76.1784 62.7659L5.25896 103.705L5.68263 251.767L76.6021 210.829L76.1784 62.7659ZM8.66319 178.715V173.09L10.8109 171.833L10.621 106.247L38.0449 90.409L43.407 87.2969L70.8163 71.4883L71.0062 137.075L73.8114 135.453V141.078L71.0208 142.7L71.2108 208.287L43.8015 224.11L38.4394 227.324L11.0155 243.045L10.8256 177.458L8.66319 178.715Z" fill="white"/>
<path d="M43.6263 158.523L43.8017 219.581L43.8163 224.124L71.2256 208.287L71.0502 142.7L67.1492 144.95L43.6263 158.523Z" fill="#7D9FF4"/>
<path d="M10.8403 177.458L11.0011 238.501L34.5386 224.913L34.3633 163.87L10.8403 177.458Z" fill="#B7CDF9"/>
<path d="M43.4219 87.3116L43.5972 148.354L67.1055 134.766L66.9448 73.7384L43.4219 87.3116Z" fill="#B7CDF9"/>
<path d="M10.6353 106.247L10.8106 167.289L34.3335 153.702L34.1582 92.6589L10.6353 106.247Z" fill="#B7CDF9"/>
<path d="M43.6269 158.523L43.8022 219.58L67.3105 205.993L67.1498 144.95L43.6269 158.523Z" fill="#B7CDF9"/>
<path d="M112.091 44.1227L106.641 40.9376L107.05 189.015L112.515 192.186L112.091 44.1227Z" fill="#B7CDF9"/>
<path d="M183.01 3.1695L177.561 -0.000976562L106.641 40.9377L112.091 44.1227L183.01 3.1695Z" fill="#B7CDF9"/>
<path d="M112.091 44.1228L112.515 192.186L183.435 151.247L183.011 3.16956L112.091 44.1228Z" fill="#DCE9FF"/>
<path d="M180.424 75.8568L177.619 77.4932L150.195 93.3164L150.224 98.9414L177.633 83.1182L180.438 81.4965L180.424 75.8568Z" fill="white"/>
<path d="M117.439 117.877L117.6 178.905L117.614 183.463L145.038 167.64L144.863 102.039L140.962 104.289L117.439 117.877Z" fill="#7D9FF4"/>
<path d="M117.423 112.237L115.246 113.493L115.261 119.118L117.438 117.877L144.862 102.039L144.847 96.4137L117.423 112.237Z" fill="white"/>
<path d="M150.02 27.7152L150.181 88.7725L150.195 93.3164L177.619 77.4932L177.429 11.9066L173.528 14.142L150.02 27.7152Z" fill="#7D9FF4"/>
<path d="M144.657 30.7981L144.847 96.4138L144.862 102.039L145.037 167.625L150.399 164.645L150.224 98.9415L150.195 93.3164L150.02 27.7299L144.657 30.7981Z" fill="white"/>
<path d="M117.234 46.6504L117.409 107.693L117.424 112.252L144.833 96.4138L144.658 30.8273L140.757 33.0627L117.234 46.6504Z" fill="#7D9FF4"/>
<path d="M182.776 3.16956L111.857 44.1082L112.281 192.171L183.2 151.232L182.776 3.16956ZM115.261 119.119V113.493L117.409 112.237L117.219 46.6504L144.643 30.8126L150.005 27.7006L177.414 11.892L177.604 77.4786L180.41 75.8568V81.4819L177.619 83.1036L177.809 148.69L150.4 164.513L145.038 167.728L117.614 183.449L117.424 117.862L115.261 119.119Z" fill="white"/>
<path d="M150.224 98.9412L150.385 159.984L150.4 164.542L177.824 148.705L177.634 83.1034L173.733 85.3534L150.224 98.9412Z" fill="#7D9FF4"/>
<path d="M117.438 117.876L117.599 178.905L141.137 165.317L140.961 104.289L117.438 117.876Z" fill="#B7CDF9"/>
<path d="M150.019 27.7152L150.18 88.7726L173.703 75.1848L173.528 14.1421L150.019 27.7152Z" fill="#B7CDF9"/>
<path d="M117.234 46.6504L117.41 107.693L140.918 94.1199L140.757 33.0626L117.234 46.6504Z" fill="#B7CDF9"/>
<path d="M150.225 98.9414L150.386 159.984L173.909 146.411L173.733 85.3536L150.225 98.9414Z" fill="#B7CDF9"/>
<g filter="url(#filter0_d_131_1563)">
<path opacity="0.82" d="M66.3756 224.402L142.701 181.988C146.368 179.942 149.349 175.004 149.349 170.957V109.183C149.349 105.122 146.368 103.558 142.701 105.662L66.3756 149.611C62.8544 151.642 60.02 156.478 60.02 160.437V220.749C60.02 224.709 62.869 226.33 66.3756 224.387V224.402Z" fill="white"/>
<path d="M110.777 130.281C110.777 130.281 115.54 125.708 117.395 132.502C119.236 139.31 118.345 145.768 119.879 146.382C121.413 146.995 124.408 146.791 123.459 150.94C122.494 155.104 123.838 152.606 124.993 155.586C126.147 158.567 125.256 161.986 125.051 162.161C124.861 162.336 89.0069 182.47 89.0069 182.47C89.0069 182.47 85.8657 177.078 89.3137 171.965C92.7618 166.836 92.2651 167.129 91.5784 163.856C90.8917 160.598 90.7017 159.999 92.6449 157.266C94.5881 154.534 96.02 148.164 96.692 143.343C97.3641 138.521 99.5703 133.802 103.734 131.055C108.307 128.031 110.762 130.266 110.762 130.266L110.777 130.281Z" fill="#7D9FF4"/>
<path d="M84.4194 182.85C86.8739 179.241 96.6922 171.585 96.6922 171.585L116.416 160.89C116.416 160.89 126.395 156.916 128.908 157.749C131.421 158.582 137.806 184.705 137.806 184.705L118.33 195.532L116.679 196.452L96.4584 207.687L75.7846 219.171C75.7846 219.171 81.9794 186.444 84.434 182.835L84.4194 182.85Z" fill="#1CB8FF"/>
<path d="M111.887 155.382C111.887 155.382 111.537 160.393 111.843 161.46C112.15 162.526 116.431 160.89 116.431 160.89C116.431 160.89 115.16 174.302 108.878 177.838C102.61 181.359 97.4959 172.988 96.707 171.585C96.707 171.585 98.4602 170.153 99.5999 168.824C100.754 167.509 99.7021 161.343 99.7021 161.343L111.887 155.382Z" fill="#EF9E9E"/>
<path d="M114.561 141.575C114.561 141.575 115.057 151.335 110.265 159.253C105.926 166.442 101.134 165.828 99.4387 163.038C97.7439 160.262 96.9549 154.3 96.9549 154.3C96.9549 154.3 101.031 151.028 105.035 144.877C108.556 139.471 109.695 133.86 109.695 133.86C110.265 139.252 111.974 140.917 114.561 141.56V141.575Z" fill="#F9B9B7"/>
<g style="mix-blend-mode:multiply" opacity="0.33">
<path d="M128.411 189.936L125.474 169.773L123.137 192.858L91.1105 210.653L88.1154 190.739L85.7338 213.648L128.411 189.936Z" fill="#FB700E"/>
</g>
</g>
<g filter="url(#filter1_d_131_1563)">
<path opacity="0.82" d="M98.0358 274.092L147.449 245.718C149.801 244.374 151.7 241.116 151.7 238.428V197.898C151.7 195.224 149.801 194.143 147.449 195.502L98.0358 224.036C95.7127 225.381 93.8134 228.639 93.8134 231.298V271.667C93.8134 274.326 95.6981 275.407 98.0358 274.077V274.092Z" fill="white"/>
<path d="M127.784 233.738C127.784 233.738 129.975 233.592 133.701 233.197C137.427 232.803 138.289 232.744 139.311 233.387C140.319 234.045 142.628 248.48 142.628 248.48L101.806 271.915C101.806 271.915 104.261 254.295 105.167 252.746C106.072 251.197 116.329 240.926 116.329 240.926L127.784 233.723V233.738Z" fill="#7D9FF4"/>
<path d="M126.994 233.051C126.994 233.051 128.806 234.556 129.157 235.184C129.507 235.813 129.639 242.84 129.639 242.84L126.132 242.314L122.275 246.829L121.544 247.253H117.892L114.561 252.235C114.561 252.235 115.072 242.913 115.35 242.124C115.627 241.335 117.468 237.96 117.468 237.96L126.994 233.051Z" fill="#F3F6FF"/>
<path opacity="0.69" d="M127.214 232.365L126.892 237.128C126.892 237.128 125.504 244.988 121.852 247.092C118.199 249.196 117.41 242.066 117.41 242.066L117.323 238.077L127.214 232.365Z" fill="#EA8383"/>
<path d="M129.771 222.561C129.771 222.561 130.457 218.163 130.092 216.498C129.742 214.832 128.558 215.402 128.558 215.402C128.558 215.402 128.66 212.363 126.016 212.611C126.016 212.611 122.991 211.413 119.178 215.972C117.118 218.426 115.978 220.691 115.233 222.356C114.59 223.774 114.59 225.322 115.189 224.986C115.189 224.986 114.211 226.257 114.254 228.507C114.284 230.743 115.394 232.569 115.394 232.569L116.154 235.024C116.154 235.024 123.693 231.079 123.795 230.933C123.897 230.787 129.259 226.681 129.259 226.681L129.785 222.561H129.771Z" fill="url(#paint1_linear_131_1563)"/>
<path d="M126.892 219.96L128.456 224.037C128.456 224.037 128.806 226.301 128.806 226.14C128.806 225.98 129.011 222.809 129.785 222.561C130.545 222.312 129.888 227.265 128.5 228.785C128.5 228.785 125.855 237.727 122.349 239.757C118.842 241.774 117.103 238.647 116.344 235.915C116.344 235.915 115.715 236.207 115.087 234.688C114.473 233.212 114.985 232.189 115.642 232.291L116.095 233.84L116.753 228.931L117.323 225.994C120.785 225.439 124.35 223.817 126.892 219.975V219.96Z" fill="#F9B9B7"/>
<path d="M136.097 252.235L134.139 240.999V253.374L136.097 252.235Z" fill="#6582E0"/>
<path d="M109.17 267.693L111.142 254.222V266.568L109.17 267.693Z" fill="#6582E0"/>
</g>
<g filter="url(#filter2_d_131_1563)">
<path opacity="0.82" d="M161.285 152.255V236.046C161.285 237.858 162.746 238.472 164.557 237.42L285.503 167.392C287.315 166.34 288.776 164.031 288.776 162.234V78.4282C288.776 74.235 285.386 72.8178 281.193 75.2431L168.867 140.289C164.674 142.714 161.285 148.062 161.285 152.255Z" fill="white"/>
<path d="M161.285 152.255V154.476L288.776 80.6636V78.4428C288.776 74.2495 285.386 72.8323 281.193 75.2577L168.867 140.304C164.674 142.729 161.285 148.076 161.285 152.27V152.255Z" fill="#7D9FF4"/>
<path d="M181.812 137.688C181.812 138.55 182.514 138.843 183.376 138.346C184.238 137.849 184.939 136.739 184.939 135.877C184.939 135.015 184.238 134.722 183.376 135.219C182.514 135.716 181.812 136.826 181.812 137.688Z" fill="#1CB8FF"/>
<path d="M175.734 141.209C175.734 142.072 176.435 142.364 177.298 141.867C178.16 141.37 178.861 140.26 178.861 139.398C178.861 138.536 178.16 138.244 177.298 138.74C176.435 139.237 175.734 140.347 175.734 141.209Z" fill="#1CB8FF"/>
<path d="M170.109 144.468C170.109 145.33 170.811 145.622 171.673 145.125C172.535 144.628 173.236 143.518 173.236 142.656C173.236 141.794 172.535 141.502 171.673 141.999C170.811 142.495 170.109 143.606 170.109 144.468Z" fill="#1CB8FF"/>
</g>
<path d="M203.158 205.058L281.383 159.765C282.187 159.298 282.83 158.275 282.83 157.471V95.6543C282.83 94.8507 282.187 94.5877 281.383 95.0406L203.158 140.333C202.355 140.801 201.712 141.823 201.712 142.627V204.444C201.712 205.248 202.355 205.511 203.158 205.058Z" fill="#1CB8FF"/>
<path d="M254.734 168.677L252.148 176.567C252.148 176.567 242.447 182.63 242.447 182.148C242.447 181.666 244.171 168.356 244.171 168.356L252.557 162.643L254.72 168.692L254.734 168.677Z" fill="#334BA0"/>
<path d="M250.015 164.981L251.666 170.796L253.098 176.026L265.911 168.648L265.049 156.974L250.015 164.981Z" fill="#4056B9"/>
<path d="M254.106 163.476C254.106 163.476 249.621 166.456 247.707 166.734C245.793 167.012 249.752 155.367 249.752 155.367L254.106 163.476Z" fill="#0F8FCC"/>
<path d="M247.707 134.737C247.707 134.737 245.135 137.031 242.987 140.903C240.854 144.774 235.828 152.182 235.434 152.533C235.039 152.883 228.727 155.206 227.661 156.215C227.179 156.667 227.252 164.309 227.807 164.703C228.362 165.098 237.143 158.406 238.911 156.755C240.694 155.089 246.845 147.361 246.845 147.361L247.707 134.752V134.737Z" fill="#A4BAED"/>
<path opacity="0.72" d="M229.02 160.13C228.99 160.744 228.947 161.299 228.874 161.781C228.698 163.082 228.435 163.856 228.245 164.002C228.041 164.148 227.836 163.33 227.749 162.161C227.719 161.81 227.705 161.416 227.705 161.021C227.69 159.283 227.705 157.194 227.705 157.194C227.705 157.194 227.705 156.916 227.822 156.624C227.909 156.405 228.07 156.185 228.362 156.098C228.494 156.054 228.611 156.098 228.713 156.229C229.078 156.711 229.122 158.333 229.049 160.145L229.02 160.13Z" fill="#7D9FF4"/>
<path d="M229.02 160.13C228.991 160.744 228.947 161.299 228.874 161.781L227.734 162.146L219.932 164.674C217.419 166.982 213.401 168.326 212.832 168.326C212.276 168.326 211.736 168.049 211.736 168.049C211.414 168.093 210.932 167.216 210.932 167.216C210.479 166.895 210.757 166.193 210.757 166.193C210.757 166.193 210.143 165.55 210.319 165.156C210.494 164.761 213.036 164.06 213.957 163.856C214.877 163.651 217.419 161.971 217.419 161.971C217.419 161.971 216.499 161.474 215.973 161.693C215.447 161.912 214.293 162.102 214.76 161.591C215.228 161.08 217.039 160.042 217.77 159.852C218.515 159.662 219.932 160.188 219.932 160.188L227.793 156.638L228.684 156.244C229.049 156.726 229.093 158.347 229.02 160.159V160.13Z" fill="#F9B9B7"/>
<path d="M262.828 145.432C262.828 145.432 266.32 156.463 265.531 158.377C265.166 159.268 262.244 161.766 259.248 164.177C255.815 166.924 252.265 169.568 252.265 169.568L249.883 157.865L249.401 171.205C249.401 171.205 243.82 171.497 243.703 170.065C243.586 168.633 246.464 155.951 246.274 153.818C246.07 151.685 244.375 151.48 243.776 149.026C243.177 146.571 246.304 136.037 247.692 134.722C249.08 133.407 252.25 131.318 252.25 131.318L262.667 124.349C262.667 124.349 267.27 122.698 267.46 124.042C267.562 124.714 266.393 130.076 265.21 135.263C264.026 140.435 262.813 145.432 262.813 145.432H262.828Z" fill="#B7CDF9"/>
<path opacity="0.72" d="M265.531 158.377C265.166 159.268 262.244 161.766 259.248 164.177C259.818 162.19 259.95 159.794 257.904 158.464C254.018 155.922 254.894 153.687 259.248 147.682C263.617 141.677 263.573 134.869 263.573 134.869L265.209 135.248C264.026 140.421 262.813 145.417 262.813 145.417C262.813 145.417 266.305 156.448 265.516 158.362L265.531 158.377Z" fill="#7D9FF4"/>
<path d="M262.682 124.349C262.682 124.349 259.716 128.308 256.838 132.633C255.026 135.38 253.258 138.273 252.309 140.421C249.854 145.973 249.81 150.926 249.81 151.042C249.737 150.969 247.999 146.615 248.656 143.576C249.153 141.253 251.169 135.38 252.163 132.56C252.499 131.61 252.703 131.011 252.703 131.011L262.682 124.349Z" fill="#0F8FCC"/>
<path d="M265.605 142.276C265.605 142.276 263.399 135.789 263.223 134.532C263.048 133.276 266.364 123.706 267.139 123.633C269.827 123.355 273.129 137.119 273.421 138.55C273.714 139.982 274.999 142.218 273.524 144.453C272.048 146.688 267.869 148.763 266.744 146.148C265.605 143.533 265.605 142.291 265.605 142.291V142.276Z" fill="#B7CDF9"/>
<path opacity="0.72" d="M273.625 143.08C273.26 144.512 272.018 145.359 271.36 145.724C271.127 145.856 270.966 145.914 270.966 145.914C270.966 145.914 267.416 145.812 266.627 144.322C266.071 143.226 266.919 141.692 268.38 140.654C268.964 140.231 269.651 139.88 270.396 139.69C272.208 139.208 273.348 140.143 273.669 141.443C273.8 141.955 273.8 142.524 273.669 143.08H273.625Z" fill="#7D9FF4"/>
<path d="M273.64 141.443C273.143 142.437 272.237 144.205 271.36 145.724C271.01 146.352 270.659 146.937 270.338 147.404C268.891 149.581 264.187 157.529 264.187 157.529C264.187 157.529 263.792 158.684 263.164 159.283C262.536 159.882 261.002 160.685 260.929 160.788C260.855 160.89 259.92 162.716 259.774 163.169C259.628 163.622 259.117 164.017 259.117 164.017C258.693 164.499 258.123 164.703 258.123 164.703C257.495 165.361 256.75 165.478 256.75 165.478C256.75 165.478 256.487 165.711 256.092 165.653C255.698 165.609 257.714 160.568 258.518 159.955C259.307 159.341 261.177 157.807 261.265 157.603C261.338 157.398 264.8 149.245 265.867 146.309C266.115 145.637 266.364 144.964 266.612 144.322C267.167 142.934 267.737 141.648 268.351 140.654C268.935 140.231 269.622 139.88 270.367 139.69C272.179 139.208 273.318 140.143 273.64 141.443Z" fill="#F9B9B7"/>
<path d="M255.274 126.482C255.274 126.482 252.411 129.828 248.101 131.245C248.101 131.245 249.138 128.104 248.934 122.99C248.729 117.877 250.117 113.391 252.542 110.966C254.968 108.541 256.882 109.154 256.882 109.154C256.882 109.154 260.169 105.034 261.908 106.553C263.661 108.073 264.333 120.521 264.333 120.521C264.333 120.521 263.106 122.61 259.322 125.109C255.552 127.622 255.274 126.482 255.274 126.482Z" fill="#45409B"/>
<path d="M262.682 124.349C262.682 124.349 259.716 128.308 256.838 132.633C256.268 133.145 255.698 133.568 255.114 133.875C252.645 135.161 252.177 133.744 252.148 132.56C252.484 131.61 252.689 131.011 252.689 131.011C252.689 131.011 253.594 130.047 254.091 129.273C254.252 129.024 254.383 128.761 254.471 128.498C254.939 127.154 254.544 125.81 254.544 125.81L261.221 117.088L261.426 116.825C261.426 116.825 261.426 116.883 261.396 117C261.338 117.351 261.221 118.198 261.119 119.206C260.943 120.842 260.827 122.917 261.163 123.911C261.426 124.7 262.317 124.466 262.682 124.349Z" fill="#F9B9B7"/>
<path opacity="0.69" d="M261.411 117C261.352 117.351 261.235 118.198 261.133 119.206C260.417 122.172 258.649 127.081 254.5 128.498C254.967 127.154 254.573 125.81 254.573 125.81L261.25 117.088C261.25 117.088 261.381 117.029 261.425 117H261.411Z" fill="#EA8383"/>
<path d="M250.935 121.427C250.935 121.427 251.037 124.071 252.776 124.992C254.515 125.912 254.734 127.052 256.21 125.883C257.685 124.714 260.9 121.295 261.426 116.81C261.426 116.81 262.624 115.67 262.799 114.224C262.974 112.777 261.951 112.982 261.382 114.297L261.163 115.846C261.163 115.846 261.177 113.975 259.263 113.815C257.335 113.654 256.867 111.214 256.867 111.214C256.867 111.214 256.955 113.391 254.033 115.86C251.11 118.315 250.921 121.441 250.921 121.441L250.935 121.427Z" fill="#F9B9B7"/>
<path d="M259.015 113.785C259.015 113.785 261.484 120.492 259.015 125.708C259.015 125.708 262.828 123.063 264.333 120.536C264.333 120.536 263.617 110.732 262.887 108.803C262.156 106.86 259.015 113.8 259.015 113.8V113.785Z" fill="#45409B"/>
<path d="M249.795 151.042C249.795 151.042 255.113 140.041 256.414 138.214C257.729 136.388 259.16 134.562 257.933 134.094C257.933 134.094 260.87 132.56 261.177 131.932C261.498 131.318 263.792 124.919 263.792 124.451C263.792 123.984 262.652 124.13 262.652 124.13C262.652 124.13 258.795 128.893 255.128 134.956C251.475 141.02 249.693 145.081 249.766 151.042H249.795Z" fill="#CBDCF7"/>
<path d="M252.702 131.011C252.702 131.011 249.357 140.596 248.874 143.299C248.392 146.002 249.81 151.057 249.81 151.057C249.81 151.057 247.399 147.565 247.063 145.505C246.741 143.445 246.829 140.698 247.063 140.201C247.297 139.705 249.649 137.06 249.649 137.06C249.649 137.06 247.779 137.834 247.691 137.601C247.603 137.352 250.818 131.829 251.168 131.347C251.519 130.88 254.12 129.287 254.12 129.287L252.717 131.026L252.702 131.011Z" fill="#CBDCF7"/>
<g filter="url(#filter3_d_131_1563)">
<path d="M180.805 149.786V153.614L223.175 129.156L223.161 125.328L180.805 149.786Z" fill="white"/>
<path d="M170.533 146.206L170.548 150.02L223.146 119.659L223.131 115.846L170.533 146.206Z" fill="white"/>
<path d="M170.519 137.236V141.063L223.117 110.688L223.102 106.875L170.519 137.236Z" fill="white"/>
<path d="M201.903 110.133L201.917 113.947L223.088 101.718V97.9042L201.903 110.133Z" fill="white"/>
<path d="M162.439 124.861C161.562 125.357 160.876 126.57 160.876 127.578L161.007 172.33C161.007 173.324 161.709 173.733 162.585 173.221L228.639 135.088C229.516 134.591 230.203 133.378 230.203 132.37L230.071 87.6184C230.071 86.6248 229.37 86.2157 228.493 86.7271L162.439 124.861ZM170.533 141.064V137.25L223.117 106.89V110.703L170.533 141.064ZM170.563 150.034V146.221L223.146 115.86V119.674L170.563 150.034ZM180.819 153.614V149.801L223.175 125.343V129.156L180.819 153.614ZM223.087 97.9041V101.717L201.917 113.946V110.133L223.087 97.9041Z" fill="#0F8FCC"/>
</g>
</g>
<defs>
<filter id="filter0_d_131_1563" x="55.1109" y="91.6363" width="108.965" height="140.118" filterUnits="userSpaceOnUse" color-interpolation-filters="sRGB">
<feFlood flood-opacity="0" result="BackgroundImageFix"/>
<feColorMatrix in="SourceAlpha" type="matrix" values="0 0 0 0 0 0 0 0 0 0 0 0 0 0 0 0 0 0 127 0" result="hardAlpha"/>
<feOffset dx="4.90913" dy="-3.27275"/>
<feGaussianBlur stdDeviation="4.90913"/>
<feColorMatrix type="matrix" values="0 0 0 0 0.647059 0 0 0 0 0.627451 0 0 0 0 0.980392 0 0 0 0.35 0"/>
<feBlend mode="normal" in2="BackgroundImageFix" result="effect1_dropShadow_131_1563"/>
<feBlend mode="normal" in="SourceGraphic" in2="effect1_dropShadow_131_1563" result="shape"/>
</filter>
<filter id="filter1_d_131_1563" x="88.9043" y="181.824" width="77.5232" height="99.3678" filterUnits="userSpaceOnUse" color-interpolation-filters="sRGB">
<feFlood flood-opacity="0" result="BackgroundImageFix"/>
<feColorMatrix in="SourceAlpha" type="matrix" values="0 0 0 0 0 0 0 0 0 0 0 0 0 0 0 0 0 0 127 0" result="hardAlpha"/>
<feOffset dx="4.90913" dy="-3.27275"/>
<feGaussianBlur stdDeviation="4.90913"/>
<feColorMatrix type="matrix" values="0 0 0 0 0.647059 0 0 0 0 0.627451 0 0 0 0 0.980392 0 0 0 0.35 0"/>
<feBlend mode="normal" in2="BackgroundImageFix" result="effect1_dropShadow_131_1563"/>
<feBlend mode="normal" in="SourceGraphic" in2="effect1_dropShadow_131_1563" result="shape"/>
</filter>
<filter id="filter2_d_131_1563" x="156.376" y="60.9681" width="147.128" height="183.511" filterUnits="userSpaceOnUse" color-interpolation-filters="sRGB">
<feFlood flood-opacity="0" result="BackgroundImageFix"/>
<feColorMatrix in="SourceAlpha" type="matrix" values="0 0 0 0 0 0 0 0 0 0 0 0 0 0 0 0 0 0 127 0" result="hardAlpha"/>
<feOffset dx="4.90913" dy="-3.27275"/>
<feGaussianBlur stdDeviation="4.90913"/>
<feColorMatrix type="matrix" values="0 0 0 0 0.647059 0 0 0 0 0.627451 0 0 0 0 0.980392 0 0 0 0.35 0"/>
<feBlend mode="normal" in2="BackgroundImageFix" result="effect1_dropShadow_131_1563"/>
<feBlend mode="normal" in="SourceGraphic" in2="effect1_dropShadow_131_1563" result="shape"/>
</filter>
<filter id="filter3_d_131_1563" x="155.967" y="73.4152" width="88.9632" height="106.572" filterUnits="userSpaceOnUse" color-interpolation-filters="sRGB">
<feFlood flood-opacity="0" result="BackgroundImageFix"/>
<feColorMatrix in="SourceAlpha" type="matrix" values="0 0 0 0 0 0 0 0 0 0 0 0 0 0 0 0 0 0 127 0" result="hardAlpha"/>
<feOffset dx="4.90913" dy="-3.27275"/>
<feGaussianBlur stdDeviation="4.90913"/>
<feColorMatrix type="matrix" values="0 0 0 0 0.647059 0 0 0 0 0.627451 0 0 0 0 0.980392 0 0 0 0.35 0"/>
<feBlend mode="normal" in2="BackgroundImageFix" result="effect1_dropShadow_131_1563"/>
<feBlend mode="normal" in="SourceGraphic" in2="effect1_dropShadow_131_1563" result="shape"/>
</filter>
<linearGradient id="paint0_linear_131_1563" x1="197.037" y1="320.67" x2="203.32" y2="332.622" gradientUnits="userSpaceOnUse">
<stop offset="0.03" stop-color="#8082AD"/>
<stop offset="0.49" stop-color="#A4A5C5"/>
<stop offset="1" stop-color="#C1B4D2"/>
</linearGradient>
<linearGradient id="paint1_linear_131_1563" x1="117.089" y1="236.762" x2="130.078" y2="205.861" gradientUnits="userSpaceOnUse">
<stop stop-color="#2E324D"/>
<stop offset="1" stop-color="#4D4F75"/>
</linearGradient>
<clipPath id="clip0_131_1563">
<rect width="410" height="481.738" fill="white" transform="matrix(-1 0 0 1 410.043 -0.000732422)"/>
</clipPath>
</defs>
</svg>
