<svg width="269" height="257" viewBox="0 0 269 257" fill="none" xmlns="http://www.w3.org/2000/svg">
<g clip-path="url(#clip0_846_1921)">
<mask id="mask0_846_1921" style="mask-type:luminance" maskUnits="userSpaceOnUse" x="0" y="0" width="267" height="183">
<path d="M246.107 0.486328L125.564 36.6365H52.4667V58.5581L18.5967 68.7177L0.357422 182.218H266.768L246.107 0.486328Z" fill="white"/>
</mask>
<g mask="url(#mask0_846_1921)">
<path d="M18.5944 68.7177L246.109 0.486328L266.771 182.218H0.357422L18.5944 68.7177Z" fill="#FFF974" fill-opacity="0.7"/>
<g filter="url(#filter0_i_846_1921)">
<path d="M52.4668 62.3687H222.8V182.22H52.4668V62.3687Z" fill="white"/>
</g>
<path d="M67.123 93.6323H137.798V100.799H67.123V93.6323ZM67.123 123.599H114.348V130.763H67.123V123.599ZM108.16 108.613H67.123V115.778H108.16V108.613Z" fill="#1F5F7B"/>
<g filter="url(#filter1_i_846_1921)">
<path d="M171.992 62.3685V150.628L188.855 132.065L205.212 146.557L203.605 62.3662L171.992 62.3685Z" fill="url(#paint0_linear_846_1921)"/>
</g>
<g filter="url(#filter2_di_846_1921)">
<path d="M52.4668 36.6387H222.8V62.3661H52.4668V36.6387Z" fill="url(#paint1_linear_846_1921)"/>
</g>
<path d="M76.7912 49.6142C76.8113 50.2615 76.7012 50.9062 76.4673 51.5101C76.2335 52.114 75.8807 52.6648 75.43 53.1298C74.9792 53.5948 74.4396 53.9644 73.8433 54.2169C73.2469 54.4694 72.6059 54.5995 71.9583 54.5995C71.3107 54.5995 70.6697 54.4694 70.0733 54.2169C69.4769 53.9644 68.9374 53.5948 68.4866 53.1298C68.0358 52.6648 67.6831 52.114 67.4492 51.5101C67.2154 50.9062 67.1053 50.2615 67.1254 49.6142C67.1644 48.3584 67.6906 47.1671 68.5927 46.2925C69.4948 45.418 70.7019 44.929 71.9583 44.929C73.2147 44.929 74.4218 45.418 75.3238 46.2925C76.2259 47.1671 76.7522 48.3584 76.7912 49.6142ZM92.6385 49.6142C92.6526 50.2579 92.538 50.898 92.3014 51.4969C92.0649 52.0957 91.7111 52.6413 91.2608 53.1016C90.8105 53.5619 90.2728 53.9276 89.6793 54.1772C89.0857 54.4269 88.4483 54.5555 87.8044 54.5555C87.1605 54.5555 86.5231 54.4269 85.9296 54.1772C85.336 53.9276 84.7984 53.5619 84.3481 53.1016C83.8978 52.6413 83.544 52.0957 83.3074 51.4969C83.0708 50.898 82.9562 50.2579 82.9703 49.6142C82.9981 48.3505 83.5196 47.1479 84.4231 46.2639C85.3266 45.38 86.5404 44.885 87.8044 44.885C89.0684 44.885 90.2822 45.38 91.1857 46.2639C92.0893 47.1479 92.6107 48.3505 92.6385 49.6142ZM103.653 54.4517C104.935 54.4517 106.165 53.9423 107.072 53.0355C107.979 52.1287 108.488 50.8989 108.488 49.6165C108.488 48.3341 107.979 47.1042 107.072 46.1975C106.165 45.2907 104.935 44.7812 103.653 44.7812C102.389 44.809 101.187 45.3305 100.303 46.234C99.4187 47.1376 98.9237 48.3513 98.9237 49.6153C98.9237 50.8793 99.4187 52.0931 100.303 52.9966C101.187 53.9002 102.389 54.424 103.653 54.4517Z" fill="#B6D7EE"/>
</g>
</g>
<path d="M39.5613 240.846C37.6153 240.846 36.1733 239.404 36.1733 237.43V237.234H37.3773V237.374C37.3773 238.69 38.3013 239.642 39.5613 239.642C40.7793 239.642 41.6893 238.69 41.6893 237.374V230.878H42.9073V237.43C42.9073 239.404 41.4933 240.846 39.5613 240.846ZM48.6451 240.846C46.3631 240.846 44.6411 239.166 44.6411 236.898C44.6411 234.616 46.3631 232.95 48.6451 232.95C50.9411 232.95 52.6631 234.63 52.6631 236.898C52.6631 239.166 50.9411 240.846 48.6451 240.846ZM48.6451 239.698C50.2691 239.698 51.4451 238.522 51.4451 236.898C51.4451 235.274 50.2691 234.098 48.6451 234.098C47.0351 234.098 45.8591 235.274 45.8591 236.898C45.8591 238.522 47.0351 239.698 48.6451 239.698ZM58.4616 232.95C60.7296 232.95 62.3536 234.63 62.3536 236.898C62.3536 239.152 60.7296 240.846 58.4616 240.846C57.2716 240.846 56.2496 240.37 55.5496 239.6L55.3956 240.678H54.4716V230.416H55.6616V234.07C56.3476 233.37 57.3276 232.95 58.4616 232.95ZM58.3636 239.698C59.9736 239.698 61.1356 238.508 61.1356 236.898C61.1356 235.288 59.9736 234.098 58.3636 234.098C56.7676 234.098 55.5776 235.302 55.5776 236.898C55.5776 238.48 56.7676 239.698 58.3636 239.698ZM66.5589 240.846C64.7529 240.846 63.5909 239.88 63.5349 238.354H64.6969C64.7669 239.264 65.5369 239.74 66.5869 239.74C67.6229 239.74 68.3649 239.306 68.3649 238.564C68.3649 237.682 67.4269 237.5 66.4049 237.332C65.1169 237.108 63.6749 236.842 63.6749 235.134C63.6749 233.832 64.8089 232.95 66.5169 232.95C68.2249 232.95 69.3309 233.86 69.3729 235.288H68.2529C68.1969 234.476 67.5529 234.014 66.5029 234.014C65.4669 234.014 64.8229 234.448 64.8229 235.106C64.8229 235.904 65.6909 236.044 66.6989 236.212C68.0149 236.422 69.5409 236.66 69.5409 238.508C69.5409 239.922 68.3509 240.846 66.5589 240.846ZM81.4549 233.118L77.8569 240.986C77.0309 242.778 76.3169 243.38 74.8889 243.38H74.1749V242.302H74.7909C75.7989 242.302 76.1629 241.994 76.7649 240.734L77.0309 240.16L73.6709 233.118H74.9729L77.6609 238.844L80.1809 233.118H81.4549ZM86.0103 240.846C83.7283 240.846 82.0063 239.166 82.0063 236.898C82.0063 234.616 83.7283 232.95 86.0103 232.95C88.3063 232.95 90.0283 234.63 90.0283 236.898C90.0283 239.166 88.3063 240.846 86.0103 240.846ZM86.0103 239.698C87.6343 239.698 88.8103 238.522 88.8103 236.898C88.8103 235.274 87.6343 234.098 86.0103 234.098C84.4003 234.098 83.2243 235.274 83.2243 236.898C83.2243 238.522 84.4003 239.698 86.0103 239.698ZM95.0568 240.846C93.0268 240.846 91.6968 239.516 91.6968 237.486V233.118H92.8868V237.29C92.8868 238.788 93.7268 239.698 95.0568 239.698C96.4008 239.698 97.2128 238.774 97.2128 237.29V233.118H98.4028V237.486C98.4028 239.516 97.1008 240.846 95.0568 240.846ZM106.741 240.846C104.935 240.846 103.773 239.88 103.717 238.354H104.879C104.949 239.264 105.719 239.74 106.769 239.74C107.805 239.74 108.547 239.306 108.547 238.564C108.547 237.682 107.609 237.5 106.587 237.332C105.299 237.108 103.857 236.842 103.857 235.134C103.857 233.832 104.991 232.95 106.699 232.95C108.407 232.95 109.513 233.86 109.555 235.288H108.435C108.379 234.476 107.735 234.014 106.685 234.014C105.649 234.014 105.005 234.448 105.005 235.106C105.005 235.904 105.873 236.044 106.881 236.212C108.197 236.422 109.723 236.66 109.723 238.508C109.723 239.922 108.533 240.846 106.741 240.846ZM118.916 233.118V240.678H117.922L117.796 239.53C117.11 240.342 116.06 240.846 114.828 240.846C112.602 240.846 110.922 239.152 110.922 236.898C110.922 234.63 112.602 232.95 114.828 232.95C116.074 232.95 117.124 233.454 117.81 234.28L117.964 233.118H118.916ZM114.926 239.698C116.522 239.698 117.698 238.508 117.698 236.898C117.698 235.288 116.522 234.098 114.926 234.098C113.33 234.098 112.14 235.302 112.14 236.898C112.14 238.494 113.33 239.698 114.926 239.698ZM127.865 233.118L124.673 240.678H123.595L120.319 233.118H121.565L124.127 239.138L126.647 233.118H127.865ZM136.176 236.926C136.176 237.066 136.162 237.22 136.148 237.36H129.694C129.89 238.76 130.926 239.684 132.354 239.684C133.404 239.684 134.244 239.194 134.72 238.368H135.966C135.336 239.936 134.006 240.846 132.354 240.846C130.17 240.846 128.504 239.152 128.504 236.898C128.504 234.644 130.17 232.95 132.354 232.95C134.65 232.95 136.176 234.714 136.176 236.926ZM132.354 234.084C130.982 234.084 129.974 234.938 129.722 236.254H134.972C134.72 234.91 133.698 234.084 132.354 234.084ZM149.008 233.118V240.678H148.014L147.888 239.53C147.202 240.342 146.152 240.846 144.92 240.846C142.694 240.846 141.014 239.152 141.014 236.898C141.014 234.63 142.694 232.95 144.92 232.95C146.166 232.95 147.216 233.454 147.902 234.28L148.056 233.118H149.008ZM145.018 239.698C146.614 239.698 147.79 238.508 147.79 236.898C147.79 235.288 146.614 234.098 145.018 234.098C143.422 234.098 142.232 235.302 142.232 236.898C142.232 238.494 143.422 239.698 145.018 239.698ZM155.409 232.95C157.663 232.95 159.301 234.63 159.301 236.898C159.301 239.152 157.663 240.846 155.409 240.846C154.275 240.846 153.281 240.398 152.595 239.67V243.38H151.405V233.118H152.217L152.455 234.28C153.155 233.454 154.205 232.95 155.409 232.95ZM155.325 239.698C156.935 239.698 158.097 238.508 158.097 236.898C158.097 235.288 156.935 234.098 155.325 234.098C153.729 234.098 152.539 235.302 152.539 236.898C152.539 238.494 153.729 239.698 155.325 239.698ZM165.116 232.95C167.37 232.95 169.008 234.63 169.008 236.898C169.008 239.152 167.37 240.846 165.116 240.846C163.982 240.846 162.988 240.398 162.302 239.67V243.38H161.112V233.118H161.924L162.162 234.28C162.862 233.454 163.912 232.95 165.116 232.95ZM165.032 239.698C166.642 239.698 167.804 238.508 167.804 236.898C167.804 235.288 166.642 234.098 165.032 234.098C163.436 234.098 162.246 235.302 162.246 236.898C162.246 238.494 163.436 239.698 165.032 239.698ZM177.889 236.926C177.889 237.066 177.875 237.22 177.861 237.36H171.407C171.603 238.76 172.639 239.684 174.067 239.684C175.117 239.684 175.957 239.194 176.433 238.368H177.679C177.049 239.936 175.719 240.846 174.067 240.846C171.883 240.846 170.217 239.152 170.217 236.898C170.217 234.644 171.883 232.95 174.067 232.95C176.363 232.95 177.889 234.714 177.889 236.926ZM174.067 234.084C172.695 234.084 171.687 234.938 171.435 236.254H176.685C176.433 234.91 175.411 234.084 174.067 234.084ZM187.057 233.118V240.678H186.063L185.937 239.53C185.251 240.342 184.201 240.846 182.969 240.846C180.743 240.846 179.063 239.152 179.063 236.898C179.063 234.63 180.743 232.95 182.969 232.95C184.215 232.95 185.265 233.454 185.951 234.28L186.105 233.118H187.057ZM183.067 239.698C184.663 239.698 185.839 238.508 185.839 236.898C185.839 235.288 184.663 234.098 183.067 234.098C181.471 234.098 180.281 235.302 180.281 236.898C180.281 238.494 181.471 239.698 183.067 239.698ZM193.57 233.076V234.21H192.8C191.414 234.21 190.644 235.106 190.644 236.576V240.678H189.454V233.118H190.294L190.49 234.266C191.022 233.496 191.82 233.076 192.898 233.076H193.57ZM201.902 232.95C203.694 232.95 204.814 234.182 204.814 236.156V240.678H203.624V236.436C203.624 234.896 202.91 234.042 201.594 234.042C200.306 234.042 199.312 235.134 199.312 236.548V240.678H198.122V230.416H199.312V234.14C199.886 233.398 200.81 232.95 201.902 232.95ZM214.174 236.926C214.174 237.066 214.16 237.22 214.146 237.36H207.692C207.888 238.76 208.924 239.684 210.352 239.684C211.402 239.684 212.242 239.194 212.718 238.368H213.964C213.334 239.936 212.004 240.846 210.352 240.846C208.168 240.846 206.502 239.152 206.502 236.898C206.502 234.644 208.168 232.95 210.352 232.95C212.648 232.95 214.174 234.714 214.174 236.926ZM210.352 234.084C208.98 234.084 207.972 234.938 207.72 236.254H212.97C212.718 234.91 211.696 234.084 210.352 234.084ZM220.066 233.076V234.21H219.296C217.91 234.21 217.14 235.106 217.14 236.576V240.678H215.95V233.118H216.79L216.986 234.266C217.518 233.496 218.316 233.076 219.394 233.076H220.066ZM228.188 236.926C228.188 237.066 228.174 237.22 228.16 237.36H221.706C221.902 238.76 222.938 239.684 224.366 239.684C225.416 239.684 226.256 239.194 226.732 238.368H227.978C227.348 239.936 226.018 240.846 224.366 240.846C222.182 240.846 220.516 239.152 220.516 236.898C220.516 234.644 222.182 232.95 224.366 232.95C226.662 232.95 228.188 234.714 228.188 236.926ZM224.366 234.084C222.994 234.084 221.986 234.938 221.734 236.254H226.984C226.732 234.91 225.71 234.084 224.366 234.084ZM229.507 239.194H230.879V240.678H229.507V239.194Z" fill="black"/>
<path d="M73.2598 206.286V217.486H71.2438L66.1718 210.494V217.486H63.7878V206.286H65.9798L70.8918 213.118V206.286H73.2598ZM79.6461 217.726C76.9581 217.726 74.9741 215.774 74.9741 213.166C74.9741 210.542 76.9581 208.606 79.6461 208.606C82.3021 208.606 84.3021 210.542 84.3021 213.166C84.3021 215.774 82.3021 217.726 79.6461 217.726ZM79.6461 215.534C80.9901 215.534 81.9341 214.558 81.9341 213.166C81.9341 211.774 80.9901 210.798 79.6461 210.798C78.2861 210.798 77.3421 211.774 77.3421 213.166C77.3421 214.558 78.2861 215.534 79.6461 215.534ZM90.0233 205.518H92.3433V207.694H90.0233V205.518ZM87.9913 218.462H88.7433C89.5753 218.462 90.0073 218.014 90.0073 217.182V208.846H92.3433V217.358C92.3433 219.262 90.9993 220.606 89.0953 220.606H87.9913V218.462ZM98.6929 217.726C96.0049 217.726 94.0209 215.774 94.0209 213.166C94.0209 210.542 96.0049 208.606 98.6929 208.606C101.349 208.606 103.349 210.542 103.349 213.166C103.349 215.774 101.349 217.726 98.6929 217.726ZM98.6929 215.534C100.037 215.534 100.981 214.558 100.981 213.166C100.981 211.774 100.037 210.798 98.6929 210.798C97.3329 210.798 96.3889 211.774 96.3889 213.166C96.3889 214.558 97.3329 215.534 98.6929 215.534ZM109.738 208.606C112.378 208.606 114.282 210.542 114.282 213.166C114.282 215.774 112.378 217.726 109.738 217.726C108.698 217.726 107.754 217.374 107.034 216.766L106.762 217.486H105.034V205.726H107.37V209.31C108.042 208.862 108.842 208.606 109.738 208.606ZM109.546 215.518C110.906 215.518 111.898 214.51 111.898 213.166C111.898 211.806 110.906 210.798 109.546 210.798C108.202 210.798 107.194 211.806 107.194 213.166C107.194 214.51 108.202 215.518 109.546 215.518ZM119.028 217.726C116.852 217.726 115.412 216.494 115.396 214.638H117.668C117.684 215.406 118.276 215.79 119.108 215.79C119.764 215.79 120.34 215.502 120.34 214.926C120.34 214.334 119.588 214.158 118.676 213.998C117.3 213.774 115.54 213.406 115.54 211.358C115.54 209.726 116.932 208.606 119.028 208.606C121.108 208.606 122.468 209.758 122.484 211.486H120.26C120.26 210.798 119.78 210.462 118.964 210.462C118.228 210.462 117.812 210.798 117.812 211.294C117.812 211.87 118.548 211.998 119.444 212.158C120.852 212.414 122.644 212.718 122.644 214.814C122.644 216.59 121.204 217.726 119.028 217.726ZM131.262 217.726C129.086 217.726 127.646 216.494 127.63 214.638H129.902C129.918 215.406 130.51 215.79 131.342 215.79C131.998 215.79 132.574 215.502 132.574 214.926C132.574 214.334 131.822 214.158 130.91 213.998C129.534 213.774 127.774 213.406 127.774 211.358C127.774 209.726 129.166 208.606 131.262 208.606C133.342 208.606 134.702 209.758 134.718 211.486H132.494C132.494 210.798 132.014 210.462 131.198 210.462C130.462 210.462 130.046 210.798 130.046 211.294C130.046 211.87 130.782 211.998 131.678 212.158C133.086 212.414 134.878 212.718 134.878 214.814C134.878 216.59 133.438 217.726 131.262 217.726ZM145.397 208.83V217.47H143.557L143.365 216.702C142.629 217.342 141.653 217.726 140.565 217.726C137.957 217.726 136.037 215.774 136.037 213.15C136.037 210.542 137.957 208.606 140.565 208.606C141.669 208.606 142.661 208.99 143.397 209.662L143.653 208.83H145.397ZM140.757 215.518C142.117 215.518 143.109 214.51 143.109 213.15C143.109 211.79 142.117 210.782 140.757 210.782C139.397 210.782 138.405 211.806 138.405 213.15C138.405 214.51 139.397 215.518 140.757 215.518ZM155.739 208.846L152.299 217.486H150.139L146.635 208.846H149.115L151.243 214.638L153.307 208.846H155.739ZM165.059 213.134C165.059 213.358 165.043 213.598 165.011 213.822H158.483C158.675 215.006 159.459 215.646 160.595 215.646C161.395 215.646 162.067 215.262 162.419 214.654H164.883C164.243 216.526 162.595 217.726 160.595 217.726C158.035 217.726 156.115 215.758 156.115 213.166C156.115 210.558 158.019 208.606 160.595 208.606C163.251 208.606 165.059 210.654 165.059 213.134ZM160.595 210.59C159.555 210.59 158.819 211.198 158.547 212.222H162.723C162.403 211.166 161.635 210.59 160.595 210.59ZM175.41 205.726V217.486H173.682L173.41 216.766C172.674 217.39 171.746 217.742 170.706 217.742C168.082 217.742 166.162 215.774 166.162 213.166C166.162 210.542 168.082 208.606 170.706 208.606C171.586 208.606 172.402 208.862 173.074 209.31V205.726H175.41ZM170.882 215.534C172.242 215.534 173.25 214.51 173.25 213.166C173.25 211.806 172.242 210.798 170.882 210.798C169.538 210.798 168.53 211.806 168.53 213.166C168.53 214.526 169.538 215.534 170.882 215.534ZM189.576 208.846L185.8 217.374C184.776 219.71 183.864 220.606 181.912 220.606H180.952V218.494H181.768C182.888 218.494 183.112 218.174 183.72 216.894L183.752 216.83L180.088 208.846H182.632L184.936 214.158L187.08 208.846H189.576ZM198.762 213.134C198.762 213.358 198.746 213.598 198.714 213.822H192.186C192.378 215.006 193.162 215.646 194.298 215.646C195.098 215.646 195.77 215.262 196.122 214.654H198.586C197.946 216.526 196.298 217.726 194.298 217.726C191.738 217.726 189.818 215.758 189.818 213.166C189.818 210.558 191.722 208.606 194.298 208.606C196.954 208.606 198.762 210.654 198.762 213.134ZM194.298 210.59C193.258 210.59 192.522 211.198 192.25 212.222H196.426C196.106 211.166 195.338 210.59 194.298 210.59ZM205.58 215.406V217.486H203.932C202.028 217.486 200.86 216.318 200.86 214.398V210.718H199.292V210.222L202.716 206.59H203.148V208.846H205.532V210.718H203.196V214.094C203.196 214.926 203.676 215.406 204.524 215.406H205.58Z" fill="black"/>
<defs>
<filter id="filter0_i_846_1921" x="52.4668" y="62.3687" width="171.497" height="121.016" filterUnits="userSpaceOnUse" color-interpolation-filters="sRGB">
<feFlood flood-opacity="0" result="BackgroundImageFix"/>
<feBlend mode="normal" in="SourceGraphic" in2="BackgroundImageFix" result="shape"/>
<feColorMatrix in="SourceAlpha" type="matrix" values="0 0 0 0 0 0 0 0 0 0 0 0 0 0 0 0 0 0 127 0" result="hardAlpha"/>
<feOffset dx="1.16456" dy="1.16456"/>
<feGaussianBlur stdDeviation="0.582278"/>
<feComposite in2="hardAlpha" operator="arithmetic" k2="-1" k3="1"/>
<feColorMatrix type="matrix" values="0 0 0 0 0 0 0 0 0 0 0 0 0 0 0 0 0 0 0.3 0"/>
<feBlend mode="normal" in2="shape" result="effect1_innerShadow_846_1921"/>
</filter>
<filter id="filter1_i_846_1921" x="171.992" y="62.3662" width="35.5498" height="90.5908" filterUnits="userSpaceOnUse" color-interpolation-filters="sRGB">
<feFlood flood-opacity="0" result="BackgroundImageFix"/>
<feBlend mode="normal" in="SourceGraphic" in2="BackgroundImageFix" result="shape"/>
<feColorMatrix in="SourceAlpha" type="matrix" values="0 0 0 0 0 0 0 0 0 0 0 0 0 0 0 0 0 0 127 0" result="hardAlpha"/>
<feOffset dx="2.32911" dy="2.32911"/>
<feGaussianBlur stdDeviation="1.16456"/>
<feComposite in2="hardAlpha" operator="arithmetic" k2="-1" k3="1"/>
<feColorMatrix type="matrix" values="0 0 0 0 0 0 0 0 0 0 0 0 0 0 0 0 0 0 0.3 0"/>
<feBlend mode="normal" in2="shape" result="effect1_innerShadow_846_1921"/>
</filter>
<filter id="filter2_di_846_1921" x="52.4668" y="36.6387" width="172.661" height="28.0567" filterUnits="userSpaceOnUse" color-interpolation-filters="sRGB">
<feFlood flood-opacity="0" result="BackgroundImageFix"/>
<feColorMatrix in="SourceAlpha" type="matrix" values="0 0 0 0 0 0 0 0 0 0 0 0 0 0 0 0 0 0 127 0" result="hardAlpha"/>
<feOffset dx="1.16456" dy="1.16456"/>
<feGaussianBlur stdDeviation="0.582278"/>
<feColorMatrix type="matrix" values="0 0 0 0 0 0 0 0 0 0 0 0 0 0 0 0 0 0 0.3 0"/>
<feBlend mode="normal" in2="BackgroundImageFix" result="effect1_dropShadow_846_1921"/>
<feBlend mode="normal" in="SourceGraphic" in2="effect1_dropShadow_846_1921" result="shape"/>
<feColorMatrix in="SourceAlpha" type="matrix" values="0 0 0 0 0 0 0 0 0 0 0 0 0 0 0 0 0 0 127 0" result="hardAlpha"/>
<feOffset dx="2.32911" dy="2.32911"/>
<feGaussianBlur stdDeviation="1.16456"/>
<feComposite in2="hardAlpha" operator="arithmetic" k2="-1" k3="1"/>
<feColorMatrix type="matrix" values="0 0 0 0 0 0 0 0 0 0 0 0 0 0 0 0 0 0 0.3 0"/>
<feBlend mode="normal" in2="shape" result="effect2_innerShadow_846_1921"/>
</filter>
<linearGradient id="paint0_linear_846_1921" x1="198.2" y1="63.1834" x2="169.099" y2="145.907" gradientUnits="userSpaceOnUse">
<stop stop-color="#00AFFF"/>
<stop offset="1" stop-color="#0082BD"/>
</linearGradient>
<linearGradient id="paint1_linear_846_1921" x1="138.742" y1="35.5743" x2="139.229" y2="65.1191" gradientUnits="userSpaceOnUse">
<stop stop-color="#2DC2FF"/>
<stop offset="1" stop-color="#1D465C"/>
</linearGradient>
<clipPath id="clip0_846_1921">
<rect width="268" height="184" fill="white" transform="translate(0.28125 0.486328)"/>
</clipPath>
</defs>
</svg>
