<svg width="500" height="500" viewBox="0 0 500 500" fill="none" xmlns="http://www.w3.org/2000/svg">
<path d="M122.21 213.92C135.89 153.79 198.41 117.71 257.11 136.59C258.29 136.97 259.48 137.36 260.68 137.78C337.42 164.16 312.24 242.09 350.61 266.08C388.98 290.06 416.56 324.83 399.77 370.39C382.98 415.95 281.07 459.12 200.73 409.96C137.58 371.32 104.81 290.44 122.21 213.93V213.92Z" stroke="#BFD9FF" stroke-width="1.11" stroke-miterlimit="10"/>
<path d="M140.151 142.648C144.492 115.511 126.013 89.9928 98.8769 85.6511C71.7403 81.3094 46.2221 99.7883 41.8804 126.925C37.5387 154.061 56.0176 179.58 83.1541 183.921C110.291 188.263 135.809 169.784 140.151 142.648Z" stroke="#BFD9FF" stroke-width="1.11" stroke-miterlimit="10"/>
<path d="M330.31 359.59H156.28C152.37 359.59 149.76 355.57 151.35 352L274.84 75.03C275.71 73.08 277.64 71.83 279.77 71.83H453.8C457.71 71.83 460.32 75.85 458.73 79.42L335.25 356.39C334.38 358.34 332.45 359.59 330.32 359.59H330.31Z" fill="url(#paint0_linear_86_3426)"/>
<path d="M383.06 164.22L439.22 38.25C440.58 35.19 438.35 31.75 435 31.75H277.41C271.56 31.75 266.26 35.19 263.88 40.53L206.86 168.42C205.5 171.48 207.73 174.92 211.08 174.92H366.57C373.69 174.92 380.15 170.73 383.05 164.23L383.06 164.22Z" fill="white"/>
<path d="M362.68 250.55L418.84 124.58C420.2 121.52 417.97 118.08 414.62 118.08H257.03C251.18 118.08 245.88 121.52 243.5 126.86L186.48 254.75C185.12 257.81 187.35 261.25 190.7 261.25H346.19C353.31 261.25 359.77 257.06 362.67 250.56L362.68 250.55Z" stroke="white" stroke-width="1.11" stroke-miterlimit="10"/>
<path opacity="0.39" d="M291.25 206.04H298.45L279.11 243.81H162.21L166.93 234.59" stroke="#A1C2FF" stroke-width="0.55" stroke-miterlimit="10"/>
<path d="M304.889 101.428C319.7 88.5898 323.885 69.1596 314.238 58.0297C304.59 46.8997 284.762 48.2848 269.951 61.1233C255.141 73.9617 250.955 93.392 260.603 104.522C270.251 115.652 290.079 114.267 304.889 101.428Z" fill="#E6F4FF"/>
<path d="M302.833 99.0556C315.899 87.7293 319.591 70.5871 311.079 60.7676C302.567 50.9481 285.075 52.1696 272.008 63.4959C258.942 74.8223 255.25 91.9645 263.762 101.784C272.274 111.604 289.766 110.382 302.833 99.0556Z" fill="#6ACFFF"/>
<path d="M287.91 86.7201C287.91 86.7201 273.65 89.0801 267.56 91.4801C263.42 93.9701 262.77 95.9501 261.78 98.9201V98.9501C265.08 104.75 271.39 108.43 279.63 108.43C290.28 108.43 301.23 102.29 308.23 93.3701C304.42 87.7701 287.91 86.7201 287.91 86.7201Z" fill="#005C8A"/>
<path d="M282.9 80.6501L280.44 91.0401C280.13 92.3401 280.78 93.4301 282.01 93.6301C283.93 93.9401 287 93.9201 290.27 91.8301C291.27 91.1901 291.92 90.1301 291.99 89.1201C292.34 84.2701 293.32 74.3301 293.32 74.3301L282.9 80.6601V80.6501Z" fill="#FF8D68"/>
<path d="M280.68 69.63C280.68 69.63 273.98 83.19 275.29 86.84C276.8 89.33 290.27 83.74 292.47 80.11C294.68 76.47 299.74 69.89 295.8 65.77C291.85 61.65 285.75 63.05 280.69 69.64L280.68 69.63Z" fill="#FF8D68"/>
<path d="M280.68 69.63C280.68 69.63 279.5 64.84 283.56 62.02C287.62 59.2 292.82 59.76 294.69 62.58C296.56 65.4 296.72 65.83 296.72 65.83C296.72 65.83 298.72 66.25 299.38 68.37C300.04 70.49 295.82 75.85 294.11 77.4C292.4 78.95 292.75 78.99 292.75 78.99L292.18 78.24C292.18 78.24 292.51 74.15 293.34 71.75C293.56 70.48 292.11 68.64 289.55 68.22C286.99 67.8 286.05 70.18 280.69 69.62L280.68 69.63Z" fill="#7E3636"/>
<path d="M293.74 75.8101C293.74 75.8101 294.67 74.0801 296.33 74.5701C297.98 75.1201 294.69 80.3001 292.95 79.9401C291.28 79.5101 293.75 75.8101 293.75 75.8101H293.74Z" fill="#FF8D68"/>
<path d="M292.11 87.14C292.11 87.14 288.53 91.09 285.01 92.22C284.39 92.41 283.48 93.63 283.48 93.63L282.84 91.94C282.84 91.94 280.42 90.53 281.12 88.08L280.64 88.46L279.35 91.66C279.35 91.66 278.39 94.67 278.45 95.8L281.69 94.01C281.69 94.01 283.67 94.67 285.24 94.1C285.24 94.1 285.91 96.36 286.51 96.55C287.11 96.74 292.01 92.13 292.75 90.53C293.59 88.93 293.39 87.33 293.39 87.33L292.13 87.14H292.11Z" fill="white"/>
<path opacity="0.39" d="M395.47 93.11H327.2C325.11 93.11 324.03 91.41 324.79 89.32L334.45 62.77C335.21 60.68 337.53 58.98 339.62 58.98H407.89C409.98 58.98 411.06 60.68 410.3 62.77L400.64 89.32C399.88 91.41 397.56 93.11 395.47 93.11Z" fill="#A1C2FF"/>
<path d="M399.42 70.99H340.63L341.67 68.14H400.45L399.42 70.99Z" fill="#94C3FF"/>
<path d="M373.61 77.63H338.22L339.25 74.78H374.65L373.61 77.63Z" fill="#94C3FF"/>
<path d="M345.2 83.63H336.03L337.07 80.79H346.23L345.2 83.63Z" fill="#94C3FF"/>
<path d="M330.37 105.32C329.42 107.68 326.73 109.59 324.37 109.59C322.01 109.59 320.87 107.68 321.82 105.32C322.77 102.96 325.46 101.05 327.82 101.05C330.18 101.05 331.32 102.96 330.37 105.32Z" fill="#94C3FF"/>
<path d="M345.21 105.32C344.26 107.68 341.57 109.59 339.21 109.59C336.85 109.59 335.71 107.68 336.66 105.32C337.61 102.96 340.3 101.05 342.66 101.05C345.02 101.05 346.16 102.96 345.21 105.32Z" fill="#94C3FF"/>
<path d="M360.04 105.32C359.09 107.68 356.4 109.59 354.04 109.59C351.68 109.59 350.54 107.68 351.49 105.32C352.44 102.96 355.13 101.05 357.49 101.05C359.85 101.05 360.99 102.96 360.04 105.32Z" fill="#94C3FF"/>
<path d="M374.88 105.32C373.93 107.68 371.24 109.59 368.88 109.59C366.52 109.59 365.38 107.68 366.33 105.32C367.28 102.96 369.97 101.05 372.33 101.05C374.69 101.05 375.83 102.96 374.88 105.32Z" fill="#1CB8FF"/>
<path opacity="0.39" d="M389.72 105.32C388.77 107.68 386.08 109.59 383.72 109.59C381.36 109.59 380.22 107.68 381.17 105.32C382.12 102.96 384.81 101.05 387.17 101.05C389.53 101.05 390.67 102.96 389.72 105.32Z" fill="#A1C2FF"/>
<path opacity="0.39" d="M354.47 118.31L335.63 137.88L316.11 145.62L338.23 161.86L360.47 142.89L354.47 118.31Z" fill="#A1C2FF"/>
<path opacity="0.7" d="M350 129.68L335.63 137.88L323.47 145.57L339.96 157.41L355.55 143.17L350 129.68Z" fill="#A1C2FF"/>
<path d="M354.47 118.31L335.63 137.88L316.11 145.62L338.17 162.01L360.47 142.89L354.47 118.31Z" stroke="#4361C4" stroke-width="0.28" stroke-miterlimit="10"/>
<path d="M345.62 144.71C345.32 145.46 344.46 146.08 343.7 146.08C342.94 146.08 342.58 145.47 342.89 144.71C343.19 143.96 344.05 143.34 344.81 143.34C345.57 143.34 345.93 143.95 345.62 144.71Z" fill="#4361C4"/>
<path d="M327.1 131.21L343.77 144.41L314.02 145.93" stroke="#4361C4" stroke-width="0.28" stroke-miterlimit="10"/>
<path d="M336.94 166.56L344.38 144.41L363.99 142.44" stroke="#4361C4" stroke-width="0.28" stroke-miterlimit="10"/>
<path d="M355.57 115.58L344.38 144.41" stroke="#4361C4" stroke-width="0.28" stroke-miterlimit="10"/>
<path d="M328.61 130.95C328.1 132.22 326.66 133.24 325.39 133.24C324.12 133.24 323.51 132.21 324.02 130.95C324.53 129.68 325.97 128.66 327.24 128.66C328.51 128.66 329.12 129.69 328.61 130.95Z" fill="#94C3FF"/>
<path d="M315.13 145.94C314.62 147.21 313.18 148.23 311.91 148.23C310.64 148.23 310.03 147.2 310.54 145.94C311.05 144.67 312.49 143.65 313.76 143.65C315.03 143.65 315.64 144.68 315.13 145.94Z" fill="#FF8D02"/>
<path d="M339.11 166.92C338.6 168.19 337.16 169.21 335.89 169.21C334.62 169.21 334.01 168.18 334.52 166.92C335.03 165.65 336.47 164.63 337.74 164.63C339.01 164.63 339.62 165.66 339.11 166.92Z" fill="#94C3FF"/>
<path d="M366.66 142.46C366.15 143.73 364.71 144.75 363.44 144.75C362.17 144.75 361.56 143.72 362.07 142.46C362.58 141.19 364.02 140.17 365.29 140.17C366.56 140.17 367.17 141.2 366.66 142.46Z" fill="#94C3FF"/>
<path d="M358.11 114.81C357.6 116.08 356.16 117.1 354.89 117.1C353.62 117.1 353.01 116.07 353.52 114.81C354.03 113.54 355.47 112.52 356.74 112.52C358.01 112.52 358.62 113.55 358.11 114.81Z" fill="#FF8D02"/>
<path d="M306.07 133.94H248.92L253.29 123.13H310.44L306.07 133.94Z" fill="#4361C4"/>
<path opacity="0.39" d="M271.66 158.26H239.09L240.97 153.63H273.53L271.66 158.26Z" fill="#A1C2FF"/>
<path opacity="0.39" d="M266.78 149H242.84L247.21 138.19H271.15L266.78 149Z" fill="#A1C2FF"/>
<path d="M393.69 264.34L421.65 201.62C422.33 200.1 421.21 198.38 419.55 198.38H341.09C338.18 198.38 335.54 200.09 334.35 202.75L305.96 266.42C305.28 267.94 306.4 269.66 308.06 269.66H385.48C389.03 269.66 392.24 267.57 393.68 264.34H393.69Z" fill="white"/>
<path opacity="0.39" d="M377.794 248.81C391.002 238.004 395.843 222.074 388.607 213.23C381.371 204.386 364.798 205.978 351.59 216.784C338.382 227.591 333.541 243.521 340.777 252.365C348.013 261.208 364.586 259.617 377.794 248.81Z" fill="#A1C2FF"/>
<mask id="mask0_86_3426" style="mask-type:luminance" maskUnits="userSpaceOnUse" x="337" y="207" width="55" height="52">
<path d="M377.794 248.81C391.002 238.004 395.843 222.074 388.607 213.23C381.371 204.386 364.798 205.978 351.59 216.784C338.382 227.591 333.541 243.521 340.777 252.365C348.013 261.208 364.586 259.617 377.794 248.81Z" fill="white"/>
</mask>
<g mask="url(#mask0_86_3426)">
<path d="M366.79 235.43C366.79 235.43 379.51 241.75 380.86 247.55C382.21 253.34 376.56 268.62 376.56 268.62H325.99C325.99 268.62 334.28 250.71 340.72 246.5C347.16 242.29 359.6 239.07 359.6 239.07L366.78 235.44L366.79 235.43Z" fill="#4385FF"/>
<path d="M361.571 231.32L357.601 239.89C357.101 240.96 357.401 241.94 358.321 242.22C359.771 242.66 362.181 242.91 365.161 241.43C366.071 240.98 366.791 240.14 367.041 239.29C368.261 235.22 370.991 226.89 370.991 226.89L361.571 231.31V231.32Z" fill="#94C3FF"/>
<path d="M361.99 221.8C361.99 221.8 354.07 232.68 354.38 235.88C355.07 238.12 366.74 234.6 369.18 231.72C371.62 228.84 376.89 223.72 374.6 219.88C372.31 216.04 367.25 216.68 361.98 221.8H361.99Z" fill="#94C3FF"/>
<path d="M362.33 220.2C362.33 220.2 362.2 220.37 362.05 220.63C361.59 221.4 360.91 222.96 362.81 223.07L365.35 223.21C365.35 223.21 369.42 220.89 371.02 223.35C372.21 225.8 368.33 227.31 368.65 228.53C368.97 229.76 368.81 229.48 368.26 230.17C367.71 230.85 367.27 231.94 365.44 232.76C363.61 233.58 362.16 233.44 360.41 234.4C358.66 235.35 355.28 234.26 354.93 233.45C354.11 232.77 353.64 234.27 353.12 235.22C352.6 236.17 350.99 236.45 352.54 237.67C354.09 238.9 355.23 239.44 357.94 237.81C360.65 236.17 360.73 236.31 363.46 235.63C366.19 234.95 368.22 233.57 369.26 231.87C370.3 230.17 370.64 227.99 371.51 227.17C372.38 226.35 372.87 227.17 372.49 228.12C372.11 229.07 375.82 227.3 376.71 224.44C377.59 221.58 376.04 221.71 375.88 220.08C375.72 218.44 377.59 216.53 375.6 215.03C373.61 213.53 371.75 215.44 371.05 214.48C370.34 213.53 367.26 213.39 364.8 215.43C362.34 217.48 362.2 220.37 362.2 220.37" fill="#4361C4"/>
<path d="M371.06 227.38C371.06 227.38 372.13 226 373.33 226.56C374.51 227.17 370.92 231.27 369.62 230.81C368.39 230.3 371.06 227.38 371.06 227.38Z" fill="#94C3FF"/>
<path d="M354.09 233.84C354.09 233.84 355.25 229.61 358.2 229.07C361.15 228.52 362.48 230.3 362.28 231.8C362.08 233.3 363.39 234.12 363.39 234.12C363.39 234.12 355.96 237.67 354.09 233.85V233.84Z" fill="#4361C4"/>
</g>
<path d="M358.52 349.01L386.48 286.29C387.16 284.77 386.04 283.05 384.38 283.05H305.92C303.01 283.05 300.37 284.76 299.18 287.42L270.79 351.09C270.11 352.61 271.23 354.33 272.89 354.33H350.31C353.86 354.33 357.07 352.24 358.51 349.01H358.52Z" fill="white"/>
<path opacity="0.39" d="M342.712 333.386C356.211 322.342 361.16 306.063 353.767 297.027C346.373 287.991 329.437 289.619 315.938 300.664C302.44 311.708 297.491 327.987 304.884 337.023C312.277 346.059 329.213 344.431 342.712 333.386Z" fill="#A1C2FF"/>
<mask id="mask1_86_3426" style="mask-type:luminance" maskUnits="userSpaceOnUse" x="301" y="291" width="57" height="52">
<path d="M342.712 333.386C356.211 322.342 361.16 306.063 353.767 297.027C346.373 287.991 329.437 289.619 315.938 300.664C302.44 311.708 297.491 327.987 304.884 337.023C312.277 346.059 329.213 344.431 342.712 333.386Z" fill="white"/>
</mask>
<g mask="url(#mask1_86_3426)">
<path d="M336.489 309.68C336.489 309.68 340.339 307.85 340.859 310.07C341.379 312.29 339.679 313.88 339.679 313.88C339.679 313.88 343.159 312.92 344.089 315.89C345.019 318.86 342.219 320.28 343.379 321.33C344.539 322.38 346.939 324.65 343.579 328.42C340.219 332.18 335.309 336.5 329.619 333.72C323.929 330.94 325.739 317.41 325.739 317.41L327.129 313.46L336.489 309.68Z" fill="#4361C4"/>
<path d="M332.78 298.33C332.78 298.33 324.2 299.05 321.5 305.06C318.79 311.07 324.18 311.49 324.18 311.49L332.79 298.33H332.78Z" fill="#4361C4"/>
<path d="M277.04 339.17L277.59 340.17C277.59 340.17 284.2 348.05 290.08 353.1H302.33C308.72 347.28 317.44 337.13 317.48 336.72C317.54 336.13 325.16 327.84 323.48 324.46C321.8 321.08 319.62 321.62 319.62 321.62C319.62 321.62 317.14 321.96 314.35 324.85C311.56 327.74 297.8 349.08 297.8 349.08C297.8 349.08 296.04 345.89 292.78 343.46C289.53 341.03 280.01 335.9 280.01 335.9C280.01 335.9 280.59 331.78 280.54 330.99C280.49 330.2 278.12 326.61 277.4 327.38C276.68 328.15 278.36 331.53 278.36 331.53C278.36 331.53 276.5 338.18 277.06 339.17H277.04Z" fill="#94C3FF"/>
<path d="M307.69 347.12C307.69 347.12 308.05 349.74 308.76 353.1H333.08C333.62 347.61 334.76 336.58 335.43 333.96C336.34 330.44 335.54 322.95 335.83 320.89C336.12 318.83 330.24 319.59 330.24 319.59L322.58 319.72L321.34 320.25C319.64 320.98 318.1 322.26 317.1 323.79C316.15 325.24 314.75 327.35 312.88 330.13C309.86 332.42 303.19 336.41 303.68 341.44C304.17 346.47 307.69 347.13 307.69 347.13V347.12Z" fill="#4385FF"/>
<path d="M325.149 315.04C325.149 315.04 318.349 323.45 316.479 334.03C318.699 333.35 325.439 327.16 329.419 323.39C331.099 321.8 331.249 320.93 330.939 319.3C330.789 318.5 331.489 316.27 332.439 313.73C333.059 310.2 325.149 315.05 325.149 315.05V315.04Z" fill="#94C3FF"/>
<path d="M346.479 349.44C346.479 349.44 347.539 350.9 349.279 353.09H360.159C358.059 350.31 356.399 348.07 355.879 347.28C354.099 344.59 341.659 317.46 334.079 320.84C332.679 321.46 327.619 325.72 329.679 330.48C331.749 335.25 346.469 349.44 346.469 349.44H346.479Z" fill="#94C3FF"/>
<path d="M324.84 303.95C323.78 305.3 321.08 308.82 319.49 311.92C318.09 314.63 319.05 317.12 321.65 317.39C325.39 317.79 331.09 316.86 332.97 314.72C335.75 311.54 341.72 305.9 339.3 301.53C336.95 297.28 331.59 297.72 325.81 302.91C325.45 303.23 325.13 303.58 324.84 303.95Z" fill="#94C3FF"/>
<path d="M327.37 301.17C327.37 301.17 323.62 307.31 334.28 311.23L335.62 311.84C335.62 311.84 340.28 308.14 340.35 304.23C340.42 300.32 338.4 298.89 336.36 298.04C334.32 297.19 328.8 299.72 327.37 301.18V301.17Z" fill="#4361C4"/>
<path d="M333.98 312.11C333.98 312.11 336.68 310.25 336.65 311.97C336.62 313.69 332.83 315.53 332.43 314.81C332.03 314.09 333.98 312.11 333.98 312.11Z" fill="#94C3FF"/>
</g>
<path d="M273.26 297.03H186.84C184.19 297.03 182.91 294.88 183.98 292.23L190.12 277.03C191.19 274.38 194.21 272.23 196.86 272.23H283.28C285.93 272.23 287.21 274.38 286.14 277.03L280 292.23C278.93 294.88 275.91 297.03 273.26 297.03Z" fill="#005C8A"/>
<path d="M272.58 285.83H198.17L199.62 282.23H274.04L272.58 285.83Z" fill="white"/>
<path d="M203.37 46.65H200.45C199.93 46.65 199.68 46.23 199.89 45.71L201.07 42.79C201.28 42.27 201.87 41.85 202.39 41.85H205.31C205.83 41.85 206.08 42.27 205.87 42.79L204.69 45.71C204.48 46.23 203.89 46.65 203.37 46.65Z" fill="#F9FBFC"/>
<path d="M233.34 46.65H230.42C229.9 46.65 229.65 46.23 229.86 45.71L231.04 42.79C231.25 42.27 231.84 41.85 232.36 41.85H235.28C235.8 41.85 236.05 42.27 235.84 42.79L234.66 45.71C234.45 46.23 233.86 46.65 233.34 46.65Z" fill="#BFD9FF"/>
<path d="M197.799 60.44H194.879C194.359 60.44 194.109 60.02 194.319 59.5L195.499 56.58C195.709 56.06 196.299 55.64 196.819 55.64H199.739C200.259 55.64 200.509 56.06 200.299 56.58L199.119 59.5C198.909 60.02 198.319 60.44 197.799 60.44Z" fill="#BFD9FF"/>
<path d="M212.779 60.44H209.859C209.339 60.44 209.089 60.02 209.299 59.5L210.479 56.58C210.689 56.06 211.279 55.64 211.799 55.64H214.719C215.239 55.64 215.489 56.06 215.279 56.58L214.099 59.5C213.889 60.02 213.299 60.44 212.779 60.44Z" fill="#F9FBFC"/>
<path d="M227.77 60.44H224.85C224.33 60.44 224.08 60.02 224.29 59.5L225.47 56.58C225.68 56.06 226.27 55.64 226.79 55.64H229.71C230.23 55.64 230.48 56.06 230.27 56.58L229.09 59.5C228.88 60.02 228.29 60.44 227.77 60.44Z" fill="#F9FBFC"/>
<path d="M239.759 60.44H236.839C236.319 60.44 236.069 60.02 236.279 59.5L237.459 56.58C237.669 56.06 238.259 55.64 238.779 55.64H241.699C242.219 55.64 242.469 56.06 242.259 56.58L241.079 59.5C240.869 60.02 240.279 60.44 239.759 60.44Z" fill="#F9FBFC"/>
<path d="M192.22 74.2199H189.3C188.78 74.2199 188.53 73.7999 188.74 73.2799L189.92 70.3599C190.13 69.8399 190.72 69.4199 191.24 69.4199H194.16C194.68 69.4199 194.93 69.8399 194.72 70.3599L193.54 73.2799C193.33 73.7999 192.74 74.2199 192.22 74.2199Z" fill="#F9FBFC"/>
<path d="M180.23 74.2199H177.31C176.79 74.2199 176.54 73.7999 176.75 73.2799L177.93 70.3599C178.14 69.8399 178.73 69.4199 179.25 69.4199H182.17C182.69 69.4199 182.94 69.8399 182.73 70.3599L181.55 73.2799C181.34 73.7999 180.75 74.2199 180.23 74.2199Z" fill="#F9FBFC"/>
<path d="M207.21 74.2199H204.29C203.77 74.2199 203.52 73.7999 203.73 73.2799L204.91 70.3599C205.12 69.8399 205.71 69.4199 206.23 69.4199H209.15C209.67 69.4199 209.92 69.8399 209.71 70.3599L208.53 73.2799C208.32 73.7999 207.73 74.2199 207.21 74.2199Z" fill="#F9FBFC"/>
<path d="M222.2 74.2199H219.28C218.76 74.2199 218.51 73.7999 218.72 73.2799L219.9 70.3599C220.11 69.8399 220.7 69.4199 221.22 69.4199H224.14C224.66 69.4199 224.91 69.8399 224.7 70.3599L223.52 73.2799C223.31 73.7999 222.72 74.2199 222.2 74.2199Z" fill="#BFD9FF"/>
<path d="M186.65 88.01H183.73C183.21 88.01 182.96 87.59 183.17 87.07L184.35 84.15C184.56 83.63 185.15 83.21 185.67 83.21H188.59C189.11 83.21 189.36 83.63 189.15 84.15L187.97 87.07C187.76 87.59 187.17 88.01 186.65 88.01Z" fill="#F9FBFC"/>
<path d="M204.56 317.33H200.44C199.71 317.33 199.36 316.74 199.65 316.01L201.31 311.89C201.6 311.16 202.43 310.57 203.16 310.57H207.28C208.01 310.57 208.36 311.16 208.07 311.89L206.41 316.01C206.12 316.74 205.29 317.33 204.56 317.33Z" fill="#4385FF"/>
<path d="M246.81 317.33H242.69C241.96 317.33 241.61 316.74 241.9 316.01L243.56 311.89C243.85 311.16 244.68 310.57 245.41 310.57H249.53C250.26 310.57 250.61 311.16 250.32 311.89L248.66 316.01C248.37 316.74 247.54 317.33 246.81 317.33Z" fill="#4385FF"/>
<path d="M196.7 336.77H192.58C191.85 336.77 191.5 336.18 191.79 335.45L193.45 331.33C193.74 330.6 194.57 330.01 195.3 330.01H199.42C200.15 330.01 200.5 330.6 200.21 331.33L198.55 335.45C198.26 336.18 197.43 336.77 196.7 336.77Z" fill="#BFD9FF"/>
<path d="M217.83 336.77H213.71C212.98 336.77 212.63 336.18 212.92 335.45L214.58 331.33C214.87 330.6 215.7 330.01 216.43 330.01H220.55C221.28 330.01 221.63 330.6 221.34 331.33L219.68 335.45C219.39 336.18 218.56 336.77 217.83 336.77Z" fill="#FFA500"/>
<path d="M238.95 336.77H234.83C234.1 336.77 233.75 336.18 234.04 335.45L235.7 331.33C235.99 330.6 236.82 330.01 237.55 330.01H241.67C242.4 330.01 242.75 330.6 242.46 331.33L240.8 335.45C240.51 336.18 239.68 336.77 238.95 336.77Z" fill="#BFD9FF"/>
<path d="M255.85 336.77H251.73C251 336.77 250.65 336.18 250.94 335.45L252.6 331.33C252.89 330.6 253.72 330.01 254.45 330.01H258.57C259.3 330.01 259.65 330.6 259.36 331.33L257.7 335.45C257.41 336.18 256.58 336.77 255.85 336.77Z" fill="#BFD9FF"/>
<path d="M188.85 356.2H184.73C184 356.2 183.65 355.61 183.94 354.88L185.6 350.76C185.89 350.03 186.72 349.44 187.45 349.44H191.57C192.3 349.44 192.65 350.03 192.36 350.76L190.7 354.88C190.41 355.61 189.58 356.2 188.85 356.2Z" fill="#BFD9FF"/>
<path d="M171.95 356.2H167.83C167.1 356.2 166.75 355.61 167.04 354.88L168.7 350.76C168.99 350.03 169.82 349.44 170.55 349.44H174.67C175.4 349.44 175.75 350.03 175.46 350.76L173.8 354.88C173.51 355.61 172.68 356.2 171.95 356.2Z" fill="#BFD9FF"/>
<path d="M209.98 356.2H205.86C205.13 356.2 204.78 355.61 205.07 354.88L206.73 350.76C207.02 350.03 207.85 349.44 208.58 349.44H212.7C213.43 349.44 213.78 350.03 213.49 350.76L211.83 354.88C211.54 355.61 210.71 356.2 209.98 356.2Z" fill="#BFD9FF"/>
<path d="M231.1 356.2H226.98C226.25 356.2 225.9 355.61 226.19 354.88L227.85 350.76C228.14 350.03 228.97 349.44 229.7 349.44H233.82C234.55 349.44 234.9 350.03 234.61 350.76L232.95 354.88C232.66 355.61 231.83 356.2 231.1 356.2Z" fill="#FFA500"/>
<path d="M181 375.64H176.88C176.15 375.64 175.8 375.05 176.09 374.32L177.75 370.2C178.04 369.47 178.87 368.88 179.6 368.88H183.72C184.45 368.88 184.8 369.47 184.51 370.2L182.85 374.32C182.56 375.05 181.73 375.64 181 375.64Z" fill="#FFA500"/>
<path opacity="0.39" d="M276.41 235.49H159.51L178.84 197.72H295.75L276.41 235.49Z" fill="#A1C2FF"/>
<path d="M266.601 226.598C273.8 220.24 275.617 210.536 270.659 204.923C265.702 199.309 255.847 199.913 248.649 206.271C241.45 212.628 239.633 222.333 244.591 227.946C249.548 233.559 259.402 232.956 266.601 226.598Z" fill="#1CB8FF"/>
<path d="M253.67 224.26C253.19 224.26 252.75 224.08 252.47 223.71L248.5 218.42C247.95 217.68 248.24 216.49 249.17 215.75C250.09 215.01 251.29 215.01 251.84 215.75L254.81 219.7L265.41 211.22C266.33 210.48 267.53 210.48 268.08 211.22C268.63 211.96 268.34 213.15 267.41 213.89L255.14 223.71C254.68 224.08 254.15 224.26 253.67 224.26Z" fill="white"/>
<path d="M165.49 125.86C165.49 128.83 163.32 131.23 160.65 131.23C157.98 131.23 155.81 128.83 155.81 125.86C155.81 122.89 157.98 120.49 160.65 120.49C163.32 120.49 165.49 122.89 165.49 125.86Z" stroke="#505E83" stroke-width="0.52" stroke-miterlimit="10"/>
<path d="M114.67 154.87C114.67 154.87 106.94 155.39 101.15 163.19C95.3696 171 103.75 199.62 128.62 211.19C144.81 217.55 145.97 203.09 141.92 192.97C137.87 182.85 126.16 157.24 114.67 154.86V154.87Z" fill="white"/>
<path d="M225.2 461.35C225.2 465.02 189.73 468 145.98 468C102.23 468 66.7598 465.02 66.7598 461.35C66.7598 457.68 102.23 454.7 145.98 454.7C189.73 454.7 225.2 457.68 225.2 461.35Z" fill="#BFD9FF"/>
<path d="M117.04 439.82C117.04 439.82 118.72 436.22 124.96 437.18C131.2 438.14 131.92 439.34 132.64 442.46C133.36 445.58 135.52 448.94 136.96 449.66C138.4 450.38 143.68 453.98 148 454.7C152.32 455.42 152.8 458.06 151.84 459.26C150.88 460.46 134.55 461.42 130.95 460.94C130.95 460.94 118.71 460.7 115.82 459.74C112.94 458.78 116.78 441.01 117.02 439.81L117.04 439.82Z" fill="#16142A"/>
<path d="M148.319 439.82C148.319 439.82 149.999 436.22 156.239 437.18C162.479 438.14 163.199 439.34 163.919 442.46C164.639 445.58 166.799 448.94 168.239 449.66C169.679 450.38 174.959 453.98 179.279 454.7C183.599 455.42 184.079 458.06 183.119 459.26C182.159 460.46 165.829 461.42 162.229 460.94C162.229 460.94 149.989 460.7 147.099 459.74C144.219 458.78 148.059 441.01 148.299 439.81L148.319 439.82Z" fill="#16142A"/>
<path d="M111.26 350.43C111.26 350.43 109.43 340.49 119.93 337.15C130.43 333.81 132.42 338.67 135.6 347.73C138.78 356.79 132.91 442.43 132.91 442.43C132.91 442.43 120.12 442.72 117.01 440.89C117.01 440.89 108.46 384.07 109.1 370.23C109.74 356.39 111.25 350.43 111.25 350.43H111.26Z" fill="#074665"/>
<path d="M160.43 129.51C160.43 129.51 162.89 132.84 162.89 134.57C162.89 136.3 159.56 136.3 159.56 136.3L160.43 129.5V129.51Z" fill="#FF7759"/>
<path d="M148.59 95.65C148.59 95.65 155.69 97.47 159.72 108.37C163.74 119.28 161.06 142.45 158.38 145.18C155.7 147.91 147.55 146.86 136.25 143.14C124.31 139.2 120.28 126.79 118.14 118.6C114.05 102.92 127.69 86.79 148.59 95.65Z" fill="#FF8D68"/>
<path d="M123.12 155.85L128.88 135.2C128.88 135.2 140.4 131.84 147.61 139.52L150.01 142.88V156.32C150.01 156.32 138.01 158.72 123.12 155.84V155.85Z" fill="#FF8D68"/>
<path d="M107.03 267.01C107.03 267.01 102.71 292.22 107.03 321.03C111.35 349.84 119.99 352.72 127.92 352.72C135.85 352.72 138 329.67 139.44 319.59C140.88 309.51 146.64 274.94 135.84 267.01C125.04 259.09 112.79 258.37 107.03 267.01Z" fill="#074665"/>
<path d="M137.28 300.86C137.28 300.86 128.64 277.81 143.76 267.73C158.88 257.65 170.41 259.09 174.01 275.65C177.61 292.22 178.33 349.11 173.29 360.64C168.25 372.16 150.24 354.16 137.28 300.86Z" fill="#005C8A"/>
<path d="M120.07 155.74C120.07 155.74 121.68 150.09 123.12 149.61C124.56 149.13 142.33 147.21 151.93 152.97C156.25 156.33 155.77 158.73 155.77 158.73C155.77 158.73 127.11 153.23 120.07 155.74Z" fill="white"/>
<path d="M172.86 267.01C172.86 267.01 174.31 270.48 173.44 271.64C172.28 272.8 139.61 284.36 105.2 275.98C104.62 275.98 106.07 270.2 106.07 270.2L172.87 267.02L172.86 267.01Z" fill="#6060E7"/>
<path d="M104.87 214.91C103.91 208.19 101.03 175.06 101.99 170.26C102.89 165.77 106.72 157.51 114.67 154.88C115.23 154.7 115.8 154.54 116.4 154.41C116.4 154.41 146.17 152.49 167.3 161.61C167.3 161.61 174.53 167.62 175.87 198.23C175.87 198.23 175.47 203.39 174.32 214.38C173.16 225.37 174.9 233.46 176.63 244.45C178.36 255.44 181.83 266.43 169.11 268.74C156.97 271.05 123.42 276.84 103.76 271.05C99.7096 268.16 105.49 254.86 105.49 244.45C105.49 234.04 104.87 214.91 104.87 214.91Z" fill="#1CB8FF"/>
<path d="M150.97 351.99C150.97 351.99 150.25 341.91 161.05 339.75C171.85 337.59 173.29 342.63 175.45 351.99C177.61 361.35 164.8 443.01 164.8 443.01C164.8 443.01 150.66 443.82 147.78 441.66C147.78 441.66 144.48 385.12 146.64 371.43C148.8 357.75 150.96 351.98 150.96 351.98L150.97 351.99Z" fill="#005C8A"/>
<path d="M134.4 295.46C134.4 295.46 144.48 327.87 152.05 343.72" stroke="#2A2E59" stroke-width="0.67" stroke-miterlimit="10"/>
<path d="M154.93 350.19C154.93 350.19 161.05 346.59 167.17 350.19" stroke="#2A2E59" stroke-width="0.67" stroke-miterlimit="10"/>
<path d="M153.85 354.15C153.85 354.15 158.89 351.27 167.53 357.39" stroke="#2A2E59" stroke-width="0.67" stroke-miterlimit="10"/>
<path d="M116.03 345.87C116.03 345.87 119.99 342.27 128.99 346.23" stroke="#2A2E59" stroke-width="0.67" stroke-miterlimit="10"/>
<path d="M118.92 349.47C118.92 349.47 124.68 346.59 130.08 350.91" stroke="#2A2E59" stroke-width="0.67" stroke-miterlimit="10"/>
<path d="M132.24 355.24L130.08 428.7" stroke="#2A2E59" stroke-width="0.67" stroke-miterlimit="10"/>
<path d="M162.01 293.65C162.01 293.65 170.17 298.45 173.53 290.77" stroke="#2A2E59" stroke-width="0.67" stroke-miterlimit="10"/>
<path d="M170.17 294.61C170.17 294.61 174.01 324.38 173.05 344.07" stroke="#2A2E59" stroke-width="0.67" stroke-miterlimit="10"/>
<path d="M145.38 140.42C145.38 140.42 147.9 146.9 156.36 145.82" stroke="#E66657" stroke-width="0.67" stroke-miterlimit="10"/>
<path d="M156.25 100.41C156.25 100.41 160.35 106.05 160.61 109.38C160.87 112.71 155.48 116.05 154.71 118.1C153.94 120.15 155.7 122.73 154.93 124.01C154.16 125.29 153.92 127.91 153.92 127.91L154.18 130.81C154.28 131.87 153.56 132.84 152.51 133.04L151.89 133.16C151.01 133.34 150.12 132.86 149.79 132.03C148.87 129.71 146.96 125.39 145.47 125.01C143.42 124.5 141.37 128.09 140.6 129.88C140.17 130.89 139.08 133.63 138.21 135.82C137.45 137.74 135.66 139.04 133.6 139.19C131.38 139.35 128.72 139.46 127.74 139.19C125.95 138.68 116.75 121.69 116.49 113.48C116.23 105.28 121.87 97.0701 127.77 94.5101C133.67 91.9501 145.2 89.6401 156.23 100.41H156.25Z" fill="#7E3636"/>
<path d="M114.71 171.69C114.71 174 124.37 208.8 122.83 214.96C121.29 221.11 117.05 264.12 117.05 264.12" stroke="#6060E7" stroke-width="0.67" stroke-miterlimit="10"/>
<path d="M141.49 89.24C141.49 89.24 147.13 89.4601 149.08 86.6401C151.03 83.8201 157.32 83.1701 161.88 87.7201C166.43 92.2701 166.22 100.73 162.31 103.77C162.31 103.77 166.86 102.9 167.51 106.16C168.16 109.41 162.52 114.4 155.8 115.92C155.8 115.92 144.96 112.88 141.7 114.84C138.45 116.79 116.54 114.62 116.54 114.62C116.54 114.62 111.77 110.28 113.07 106.38C114.37 102.48 115.67 106.6 115.67 106.6C115.67 106.6 114.59 101.18 121.74 93.3701C128.9 85.5601 138.87 89.9001 141.48 89.2501L141.49 89.24Z" fill="#7E3636"/>
<path d="M247.97 205.49L263.37 206.14C263.37 206.14 262.94 207.66 260.55 208.09C258.16 208.52 249.27 209.61 249.27 209.61L247.97 205.49Z" fill="#EB7754"/>
<path d="M249.92 208.74C249.92 208.74 255.12 207.87 256.21 208.09C257.29 208.31 258.38 214.6 258.38 214.6L254.26 218.94C254.26 218.94 252.74 218.29 254.26 215.9L255.13 214.38L248.84 211.99L249.92 208.74Z" fill="#FF8D68"/>
<path d="M234.96 212.43L241.47 211.56C241.47 211.56 246.89 206.14 247.98 205.49C249.06 204.84 254.49 213.3 255.14 214.38C255.14 215.25 251.89 218.07 248.63 218.5C245.38 218.93 244.29 218.07 244.29 218.07L237.13 220.89L234.96 212.43Z" fill="#FF8D68"/>
<path d="M167.29 161.61C167.29 161.61 152.76 161.46 153.2 179.24C153.63 197.02 184 226.08 192.24 229.55C200.48 233.02 235.61 223.48 238.65 221.74C241.69 220.01 240.82 212.63 236.05 210.9L200.05 209.17C200.05 209.17 177.49 163.06 167.3 161.61H167.29Z" fill="white"/>
<path d="M200.62 212.06C200.62 212.06 204.96 216.69 203.8 222.76" stroke="#A6D0F4" stroke-width="0.53" stroke-miterlimit="10"/>
<path d="M202.93 211.2C202.93 211.2 210.16 213.51 210.74 221.32" stroke="#A6D0F4" stroke-width="0.53" stroke-miterlimit="10"/>
<path d="M165.49 125.86H150.45" stroke="#505E83" stroke-width="0.52" stroke-miterlimit="10"/>
<path d="M152.23 127.65C152.23 127.65 151.21 123.22 147.46 125.26C143.71 127.31 148.14 137.87 151.21 137.19C154.28 136.51 152.91 129.35 152.23 127.65Z" fill="#FF7759"/>
<path d="M120.89 106.81C120.89 106.81 131.3 104.42 138.67 112.23" stroke="#663136" stroke-width="0.53" stroke-miterlimit="10"/>
<path d="M122.26 105.22C122.26 105.22 126.74 100.45 134.4 102.47" stroke="#663136" stroke-width="0.53" stroke-miterlimit="10"/>
<path d="M121.25 108.83C121.25 108.83 124.43 109.12 126.6 112.73" stroke="#663136" stroke-width="0.53" stroke-miterlimit="10"/>
<path d="M152.77 88.16C152.77 88.16 163.18 91.41 160.79 100.96" stroke="#663136" stroke-width="0.53" stroke-miterlimit="10"/>
<defs>
<linearGradient id="paint0_linear_86_3426" x1="150.88" y1="215.71" x2="459.2" y2="215.71" gradientUnits="userSpaceOnUse">
<stop stop-color="white" stop-opacity="0.2"/>
<stop offset="1" stop-color="white" stop-opacity="0.7"/>
</linearGradient>
</defs>
</svg>
