<svg width="97" height="87" viewBox="0 0 97 87" fill="none" xmlns="http://www.w3.org/2000/svg">
<g clip-path="url(#clip0_78_2318)">
<path d="M96.063 66.4246H0.788168C0.35 66.4246 0 66.7752 0 67.2127C0 67.6509 0.35 68.0009 0.788168 68.0009H96.063C96.5011 68.0009 96.8511 67.6509 96.8511 67.2127C96.8511 66.7752 96.5011 66.4246 96.063 66.4246Z" fill="url(#paint0_linear_78_2318)"/>
<path d="M88.9702 68.0889C89.5833 68.0889 90.109 67.5639 90.109 66.9507V14.76C90.109 13.9718 89.5833 13.3586 88.8827 13.3586H8.7567C8.0567 13.3586 7.53104 13.9718 7.53104 14.76V66.8632C7.53104 67.4764 8.0567 68.0014 8.66987 68.0014H88.9695V68.0889H88.9702Z" fill="#9AAA97"/>
<path d="M88.1819 68.0889C88.7944 68.0889 89.3201 67.5639 89.3201 66.9507V14.76C89.3201 13.9718 88.7945 13.3586 88.0938 13.3586H7.9685C7.26783 13.3586 6.74283 13.9718 6.74283 14.76V66.8632C6.74283 67.4764 7.26783 68.0014 7.881 68.0014H88.1819V68.0889Z" fill="url(#paint1_linear_78_2318)"/>
<path d="M88.0938 13.3586H7.9685C7.26783 13.3586 6.74283 13.8843 6.74283 14.5843V16.5113H89.4076V14.5843C89.3201 13.9718 88.7945 13.3586 88.0938 13.3586Z" fill="#C5D1C3"/>
<path d="M57.4454 52.2402H38.6182C37.9175 52.2402 37.3918 51.7152 37.3918 51.0145V47.6868C37.3918 46.9862 37.9175 46.4612 38.6182 46.4612H57.4454C58.146 46.4612 58.671 46.9862 58.671 47.6868V51.0145C58.671 51.7152 58.146 52.2402 57.4454 52.2402Z" fill="url(#paint2_linear_78_2318)"/>
<path d="M31.4378 52.2403H12.5225C11.8225 52.2403 11.2968 51.7153 11.2968 51.0146V47.687C11.2968 46.9863 11.8225 46.4613 12.5225 46.4613H31.3503C32.0503 46.4613 32.576 46.9863 32.576 47.687V51.0146C32.6635 51.7153 32.0503 52.2403 31.4378 52.2403ZM84.3286 52.2403H65.4139C64.7132 52.2403 64.1882 51.7153 64.1882 51.0146V47.687C64.1882 46.9863 64.7132 46.4613 65.4139 46.4613H84.3286C85.0293 46.4613 85.5549 46.9863 85.5549 47.687V51.0146C85.4674 51.7153 84.9418 52.2403 84.3286 52.2403ZM47.988 43.0434C54.0816 43.0434 59.0224 38.104 59.0224 32.0098C59.0224 25.9162 54.0816 20.9761 47.988 20.9761C41.8944 20.9761 36.9544 25.9162 36.9544 32.0104C36.9544 38.104 41.8938 43.0434 47.988 43.0434Z" fill="#C3D2C3"/>
<path d="M50.6151 34.0242L50.0894 30.6965H45.9742L45.4485 34.0242H50.6151Z" fill="url(#paint3_linear_78_2318)"/>
<path d="M47.988 32.7109C49.3012 32.7109 50.4394 33.3234 50.4394 33.3234L50.2644 32.0103H47.6374L47.988 32.7109Z" fill="url(#paint4_linear_78_2318)"/>
<path d="M45.4486 31.9234L45.5354 32.0109C46.2367 32.449 47.1117 32.799 47.9874 32.799C48.9512 32.799 49.8269 32.449 50.6151 31.9234C51.7532 31.1352 52.4539 29.8214 52.4539 28.3332C52.4539 25.8812 50.5269 23.8667 48.0756 23.8667C45.6235 23.8667 43.609 25.7937 43.5215 28.2457C43.5215 29.7339 44.3097 31.0477 45.4486 31.9234Z" fill="url(#paint5_radial_78_2318)"/>
<path d="M57.533 35.2513C56.658 33.8499 55.0816 33.0618 53.4178 33.0618C52.9796 33.0618 52.5415 33.1493 52.104 33.2368L50.9658 33.5874C49.0751 34.1129 47.0768 34.1129 45.1861 33.5874L44.0473 33.2368C43.6098 33.1499 43.1723 33.0618 42.7341 33.0618C41.0703 33.0618 39.4946 33.9374 38.6183 35.2513C38.3558 35.6013 38.1808 36.0394 38.0051 36.4769C39.7571 40.3303 43.6098 43.0448 48.1631 43.0448C52.7171 43.0448 56.5698 40.3303 58.3211 36.4769C57.9711 36.0394 57.7961 35.6013 57.533 35.2513Z" fill="url(#paint6_radial_78_2318)"/>
<path d="M21.9798 43.0434C28.0734 43.0434 33.0135 38.104 33.0135 32.0098C33.0135 25.9162 28.0734 20.9761 21.9792 20.9761C15.8862 20.9761 10.9461 25.9162 10.9461 32.0104C10.9461 38.104 15.8855 43.0434 21.9798 43.0434Z" fill="#C3D2C3"/>
<path d="M24.52 34.0242L24.0818 30.6965H19.8778L19.4403 34.0242H24.5187H24.52Z" fill="url(#paint7_linear_78_2318)"/>
<path d="M21.9799 32.7109C23.2938 32.7109 24.4319 33.3234 24.4319 33.3234L24.2569 32.0103H21.6299L21.9799 32.7109Z" fill="url(#paint8_linear_78_2318)"/>
<path d="M19.4403 31.9234L19.5278 32.0109C20.2285 32.449 21.1041 32.799 21.9798 32.799C22.943 32.799 23.8187 32.449 24.6068 31.9234C25.745 31.1352 26.4457 29.8214 26.4457 28.3332C26.4457 25.8812 24.5193 23.8667 22.0673 23.8667C19.616 23.8667 17.6015 25.7937 17.514 28.2457C17.514 29.7339 18.2146 31.0477 19.4403 31.9234Z" fill="url(#paint9_radial_78_2318)"/>
<path d="M31.5247 35.2513C30.6491 33.8499 29.0727 33.0618 27.4089 33.0618C26.9714 33.0618 26.5332 33.1493 26.0957 33.2368L24.9569 33.5874C23.0662 34.1129 21.068 34.1129 19.1772 33.5874L18.0391 33.2368C17.6016 33.1499 17.1634 33.0618 16.7259 33.0618C15.0614 33.0618 13.4857 33.9374 12.6101 35.2513C12.3469 35.6013 12.1719 36.0394 11.9969 36.4769C13.7482 40.3303 17.6009 43.0448 22.1549 43.0448C26.7082 43.0448 30.5616 40.3303 32.3129 36.4769C31.9622 36.0394 31.7872 35.6013 31.5247 35.2513Z" fill="url(#paint10_radial_78_2318)"/>
<path d="M74.8713 43.0434C80.9649 43.0434 85.905 38.104 85.905 32.0098C85.905 25.9162 80.9649 20.9761 74.8713 20.9761C68.7777 20.9761 63.8376 25.9162 63.8376 32.0104C63.8376 38.104 68.7777 43.0434 74.8713 43.0434Z" fill="#C3D2C3"/>
<path d="M77.4115 34.0242L76.9733 30.6965H72.7706L72.3325 34.0242H77.4115Z" fill="url(#paint11_linear_78_2318)"/>
<path d="M74.8719 32.7109C76.1851 32.7109 77.3239 33.3234 77.3239 33.3234L77.1482 32.0103H74.5212L74.8719 32.7109Z" fill="url(#paint12_linear_78_2318)"/>
<path d="M72.2449 31.9234L72.3324 32.0109C73.0331 32.449 73.9088 32.799 74.7844 32.799C75.7476 32.799 76.6233 32.449 77.4114 31.9234C78.5496 31.1352 79.2503 29.8214 79.2503 28.3332C79.2503 25.8812 77.3239 23.8667 74.8719 23.8667C72.4199 23.8667 70.4054 25.7937 70.3179 28.2457C70.4054 29.7339 71.1061 31.0477 72.2449 31.9234Z" fill="url(#paint13_radial_78_2318)"/>
<path d="M84.4168 35.2513C83.5411 33.8499 81.9654 33.0618 80.3016 33.0618C79.8634 33.0618 79.4259 33.1493 78.9878 33.2368L77.8496 33.5874C75.9589 34.1128 73.9607 34.1128 72.0699 33.5874L70.9318 33.2368C70.4936 33.1499 70.0561 33.0618 69.6179 33.0618C67.9541 33.0618 66.3784 33.9374 65.5021 35.2513C65.2396 35.6013 65.0646 36.0394 64.8889 36.4769C66.6409 40.3303 70.4936 43.0448 75.0469 43.0448C79.6009 43.0448 83.4536 40.3303 85.2049 36.4769C84.8549 36.0394 84.6799 35.6013 84.4168 35.2513Z" fill="url(#paint14_radial_78_2318)"/>
<path d="M11.2961 15.022C11.2961 15.3726 11.0336 15.7233 10.5955 15.7233C10.2455 15.7233 9.89548 15.4601 9.89548 15.022C9.89548 14.5845 10.158 14.3213 10.5955 14.3213C10.9461 14.3213 11.2968 14.5845 11.2968 15.0226L11.2961 15.022Z" fill="url(#paint15_radial_78_2318)"/>
<path d="M9.10733 15.022C9.10733 15.3726 8.84416 15.7233 8.40599 15.7233C8.05599 15.7233 7.70599 15.4601 7.70599 15.022C7.70599 14.5845 7.96849 14.3213 8.40666 14.3213C8.84416 14.3213 9.10733 14.5838 9.10733 15.022Z" fill="url(#paint16_radial_78_2318)"/>
<path d="M52.3658 65.724H53.5039V67.9135H54.5553V70.1023H55.6934V72.2918H57.8823V70.1023H56.8316V67.9135H55.6934V65.724H54.5553V62.3963H57.8823V61.2581H56.8316V60.2075H55.6934V59.0686H54.5553V58.018H53.5039V56.8798H52.3664V55.8291H51.3158V54.6903H50.1756V53.6396H49.1249V52.5015H47.9868V66.774H49.1249V65.7233H50.1756V64.5852H51.3144V63.5345H52.3651V65.7233L52.3658 65.724Z" fill="white"/>
<path d="M47.9881 66.7751H49.1263V67.9133H47.9881V69.0515H46.8499V50.3118H47.9881V51.4506H49.1263V52.5888H47.9881V66.7751ZM50.1776 52.5013H49.0388V53.6394H50.1769L50.1776 52.5013ZM51.3158 54.6901V53.5519H50.1776V54.6901H51.3158ZM52.3664 54.6901H51.2283V55.8289H52.3664V54.6901ZM52.3664 56.8796H53.5046V55.7414H52.3664V56.8796ZM56.8323 60.2073V61.3455H57.9711V60.208L56.8323 60.2073ZM54.5559 56.8796H53.4171V58.0178H54.5559V56.8796ZM56.8323 60.2073V59.0691H55.6941V60.2073H56.8323ZM54.5559 58.0178V59.0684L55.6941 59.0691V57.9303H54.5559V58.0178ZM53.5053 68.614V70.1028H54.5559V67.8258H53.4171V68.614H53.5053ZM57.8836 67.9133H56.7448V70.1903H57.8836V67.9133ZM49.1263 66.7751H50.1776V65.6363H49.0388V66.7751H49.1263ZM56.8323 66.7751V65.6363H55.6941V67.9133H56.8323V66.7751ZM59.0218 62.3961V61.258H57.8836V62.3961H54.5559V65.812H55.6941V63.5356H60.0724V62.3968L59.0218 62.3961ZM57.8836 70.8028V72.3791H59.0218V70.1028H57.8836V70.8028ZM51.3158 64.5856H50.1776V65.7238H52.4539V63.4475H51.3158V64.5856ZM53.5053 66.512V65.7238H52.3664V67.9133H53.5046V66.512H53.5053ZM55.6941 72.2916V73.4298H57.9711V72.2916H55.6941ZM55.6941 70.9785V70.1028H54.5559V72.3791H55.6941V70.9785Z" fill="#13544E"/>
</g>
<defs>
<linearGradient id="paint0_linear_78_2318" x1="-0.0146947" y1="67.2388" x2="96.8658" y2="67.2388" gradientUnits="userSpaceOnUse">
<stop stop-color="#C3D2C3" stop-opacity="0"/>
<stop offset="0.309" stop-color="#C3D2C3"/>
<stop offset="0.374" stop-color="#C3D2C3"/>
<stop offset="0.75" stop-color="#C3D2C3"/>
<stop offset="1" stop-color="#C3D2C3" stop-opacity="0.014"/>
</linearGradient>
<linearGradient id="paint1_linear_78_2318" x1="48.0074" y1="68.1684" x2="48.0074" y2="13.388" gradientUnits="userSpaceOnUse">
<stop stop-color="#E4EBE4"/>
<stop offset="0.61" stop-color="#E2E9E2"/>
<stop offset="0.89" stop-color="#DBE4DB"/>
<stop offset="1" stop-color="#D5E0D5"/>
</linearGradient>
<linearGradient id="paint2_linear_78_2318" x1="37.3838" y1="49.3841" x2="58.661" y2="49.3841" gradientUnits="userSpaceOnUse">
<stop stop-color="#F7B0B2"/>
<stop offset="1" stop-color="#F66DBC"/>
</linearGradient>
<linearGradient id="paint3_linear_78_2318" x1="45.4693" y1="32.3437" x2="50.575" y2="32.3437" gradientUnits="userSpaceOnUse">
<stop offset="0.52" stop-color="#F7B0B2"/>
<stop offset="0.642" stop-color="#EEA5A8"/>
<stop offset="0.856" stop-color="#D5878D"/>
<stop offset="1" stop-color="#C17078"/>
</linearGradient>
<linearGradient id="paint4_linear_78_2318" x1="49.0855" y1="33.3869" x2="49.0855" y2="32.1004" gradientUnits="userSpaceOnUse">
<stop stop-color="#A06069" stop-opacity="0"/>
<stop offset="1" stop-color="#A06069"/>
</linearGradient>
<radialGradient id="paint5_radial_78_2318" cx="0" cy="0" r="1" gradientUnits="userSpaceOnUse" gradientTransform="translate(46.9995 26.8177) scale(5.29388)">
<stop offset="0.677" stop-color="#F7B0B2"/>
<stop offset="0.797" stop-color="#E69B9F"/>
<stop offset="1" stop-color="#C17078"/>
</radialGradient>
<radialGradient id="paint6_radial_78_2318" cx="0" cy="0" r="1" gradientUnits="userSpaceOnUse" gradientTransform="translate(47.407 33.0598) scale(13.4158 13.4158)">
<stop offset="0.677" stop-color="#1CB8FF"/>
<stop offset="0.802" stop-color="#005E93"/>
<stop offset="1" stop-color="#002B6B"/>
</radialGradient>
<linearGradient id="paint7_linear_78_2318" x1="19.4363" y1="32.3437" x2="24.5421" y2="32.3437" gradientUnits="userSpaceOnUse">
<stop offset="0.52" stop-color="#D5E0D5"/>
<stop offset="0.645" stop-color="#CAD6CA"/>
<stop offset="0.865" stop-color="#AEBDAC"/>
<stop offset="1" stop-color="#9AAA97"/>
</linearGradient>
<linearGradient id="paint8_linear_78_2318" x1="23.0526" y1="33.3869" x2="23.0526" y2="32.1004" gradientUnits="userSpaceOnUse">
<stop stop-color="#65735B" stop-opacity="0"/>
<stop offset="1" stop-color="#65735B"/>
</linearGradient>
<radialGradient id="paint9_radial_78_2318" cx="0" cy="0" r="1" gradientUnits="userSpaceOnUse" gradientTransform="translate(20.9666 26.8177) scale(5.29389 5.29389)">
<stop offset="0.677" stop-color="#D5E0D5"/>
<stop offset="0.801" stop-color="#C1CEC0"/>
<stop offset="1" stop-color="#9AAA97"/>
</radialGradient>
<radialGradient id="paint10_radial_78_2318" cx="0" cy="0" r="1" gradientUnits="userSpaceOnUse" gradientTransform="translate(21.3741 33.0598) scale(13.4158)">
<stop offset="0.677" stop-color="#9AAA97"/>
<stop offset="0.804" stop-color="#889782"/>
<stop offset="1" stop-color="#65735B"/>
</radialGradient>
<linearGradient id="paint11_linear_78_2318" x1="72.3091" y1="32.3437" x2="77.4148" y2="32.3437" gradientUnits="userSpaceOnUse">
<stop offset="0.52" stop-color="#D5E0D5"/>
<stop offset="0.645" stop-color="#CAD6CA"/>
<stop offset="0.865" stop-color="#AEBDAC"/>
<stop offset="1" stop-color="#9AAA97"/>
</linearGradient>
<linearGradient id="paint12_linear_78_2318" x1="75.9252" y1="33.3869" x2="75.9252" y2="32.1004" gradientUnits="userSpaceOnUse">
<stop stop-color="#65735B" stop-opacity="0"/>
<stop offset="1" stop-color="#65735B"/>
</linearGradient>
<radialGradient id="paint13_radial_78_2318" cx="0" cy="0" r="1" gradientUnits="userSpaceOnUse" gradientTransform="translate(73.84 26.8177) scale(5.29388)">
<stop offset="0.677" stop-color="#D5E0D5"/>
<stop offset="0.801" stop-color="#C1CEC0"/>
<stop offset="1" stop-color="#9AAA97"/>
</radialGradient>
<radialGradient id="paint14_radial_78_2318" cx="0" cy="0" r="1" gradientUnits="userSpaceOnUse" gradientTransform="translate(74.2467 33.0598) scale(13.4157)">
<stop offset="0.677" stop-color="#9AAA97"/>
<stop offset="0.804" stop-color="#889782"/>
<stop offset="1" stop-color="#65735B"/>
</radialGradient>
<radialGradient id="paint15_radial_78_2318" cx="0" cy="0" r="1" gradientUnits="userSpaceOnUse" gradientTransform="translate(10.4332 14.8136) scale(0.683128)">
<stop stop-color="#14A800"/>
<stop offset="0.334" stop-color="#14A500"/>
<stop offset="0.557" stop-color="#149C00"/>
<stop offset="0.747" stop-color="#138D00"/>
<stop offset="0.918" stop-color="#127800"/>
<stop offset="1" stop-color="#126B00"/>
</radialGradient>
<radialGradient id="paint16_radial_78_2318" cx="0" cy="0" r="1" gradientUnits="userSpaceOnUse" gradientTransform="translate(8.32183 14.8136) scale(0.683128)">
<stop stop-color="#01CDBE"/>
<stop offset="0.265" stop-color="#02CABE"/>
<stop offset="0.441" stop-color="#04C1BE"/>
<stop offset="0.592" stop-color="#08B2BF"/>
<stop offset="0.728" stop-color="#0D9DC0"/>
<stop offset="0.855" stop-color="#1481C1"/>
<stop offset="0.972" stop-color="#1D60C3"/>
<stop offset="1" stop-color="#1F57C3"/>
</radialGradient>
<clipPath id="clip0_78_2318">
<rect width="96.8511" height="86.8321" fill="white"/>
</clipPath>
</defs>
</svg>
