<svg width="100" height="101" viewBox="0 0 100 101" fill="none" xmlns="http://www.w3.org/2000/svg">
<mask id="mask0_131_150" style="mask-type:alpha" maskUnits="userSpaceOnUse" x="0" y="0" width="100" height="101">
<rect y="0.155762" width="100" height="100" rx="50" fill="black"/>
</mask>
<g mask="url(#mask0_131_150)">
<path d="M82.8139 52.9104C81.9464 52.0477 80.8681 51.4265 79.686 51.1086C78.5039 50.7908 77.2591 50.7874 76.0752 51.0986C74.8914 51.4098 73.8096 52.0248 72.9372 52.8827C72.0649 53.7406 71.4323 54.8114 71.1023 55.989C70.1579 59.5946 68.2773 62.8873 65.6507 65.5343C63.0241 68.1814 59.7446 70.089 56.1434 71.0643C52.5423 72.0397 48.7473 72.0483 45.1418 71.0892C41.5363 70.1301 38.2481 68.2373 35.6096 65.6021C31.7362 61.6525 29.5632 56.3462 29.555 50.8173C29.5468 45.2885 31.7041 39.9757 35.5657 36.0146C39.4273 32.0536 44.6868 29.7585 50.2201 29.6199C55.7535 29.4814 61.1215 31.5104 65.1769 35.2732L74.8206 25.1438C69.2506 19.8677 62.1056 16.5564 54.4757 15.7153C46.8458 14.8741 39.1499 16.5492 32.5621 20.4849C25.9742 24.4207 20.8561 30.4011 17.9887 37.5137C15.1212 44.6263 14.6618 52.4807 16.6805 59.8785C18.6992 67.2763 23.0852 73.8113 29.1693 78.4866C35.2534 83.162 42.7017 85.721 50.3777 85.7732C58.0538 85.8254 65.5362 83.3678 71.6835 78.7755C77.8307 74.1833 82.3053 67.7084 84.4245 60.3387C84.9019 59.0773 85.0038 57.7048 84.7181 56.3868C84.4323 55.0688 83.771 53.8616 82.8139 52.9104Z" fill="url(#paint0_linear_131_150)"/>
<path style="mix-blend-mode:darken" d="M65.0163 35.1623L74.6276 25.0978C68.9361 19.7233 61.6015 16.401 53.7933 15.6607C45.9851 14.9203 38.1527 16.8044 31.5449 21.0127L36.519 34.6689C40.4572 31.1596 45.5809 29.2608 50.8648 29.3523C56.1487 29.4438 61.203 31.5188 65.0163 35.1623Z" fill="url(#paint1_radial_131_150)"/>
<path d="M82.7924 52.8893C81.9245 52.027 80.8458 51.4062 79.6632 51.0885C78.4807 50.7708 77.2354 50.7674 76.0511 51.0784C74.8668 51.3895 73.7846 52.0041 72.9119 52.8616C72.0392 53.719 71.4064 54.7893 71.0763 55.9663C69.9009 60.5051 67.2498 64.5266 63.5386 67.4005C59.8274 70.2744 55.2657 71.8384 50.5683 71.8474H49.9517L54.9245 85.5648C61.7668 84.707 68.2066 81.8651 73.4464 77.3909C78.6863 72.9167 82.4959 67.0068 84.4036 60.3932C84.8979 59.122 85.0088 57.7341 84.7225 56.4008C84.4362 55.0674 83.7653 53.8468 82.7924 52.8893Z" fill="url(#paint2_linear_131_150)"/>
<path d="M75.4995 25.6727C76.2972 26.4782 76.8908 27.4638 77.2305 28.5468C77.5702 29.6298 77.6461 30.7787 77.4518 31.8972C77.2575 33.0157 76.7987 34.0711 76.1139 34.9751C75.429 35.8791 74.5381 36.6053 73.5157 37.0928C72.8074 37.4396 72.0401 37.6488 71.2542 37.7095C70.2028 37.8289 68.7149 37.6101 67.4056 37.8488C65.9529 38.1217 64.59 38.7504 63.4381 39.6792C62.0326 40.8123 61.0134 42.3558 60.5219 44.0959C60.1787 46.2405 60.2123 48.4288 60.6211 50.5619C60.6564 51.7976 60.4751 53.0299 60.0855 54.2028C59.4926 55.8128 58.5052 57.2472 57.2143 58.3739C55.9234 59.5007 54.3705 60.2834 52.6986 60.6501C51.0268 61.0167 49.2899 60.9555 47.6479 60.472C46.0058 59.9885 44.5116 59.0982 43.3027 57.8834C42.0968 56.6673 41.2146 55.1672 40.7368 53.5204C40.2591 51.8737 40.2012 50.133 40.5684 48.4579C40.9356 46.7829 41.7162 45.2271 42.8386 43.9332C43.961 42.6392 45.3893 41.6486 46.9926 41.0519C48.1549 40.6599 49.3773 40.478 50.603 40.5147C52.7357 40.8914 54.9176 40.8914 57.0503 40.5147C58.7834 40.0284 60.3225 39.0132 61.4543 37.61C62.3811 36.4552 63.0081 35.0881 63.2794 33.6309C63.5174 32.3178 63.2794 30.8256 63.4183 29.7712C63.5005 28.9869 63.7081 28.2212 64.0332 27.5032C64.5193 26.4779 65.2433 25.5842 66.1447 24.8974C67.0461 24.2106 68.0985 23.7504 69.2137 23.5556C70.329 23.3607 71.4745 23.4369 72.5544 23.7776C73.6343 24.1182 74.6169 24.7136 75.4201 25.5137L75.4995 25.6727Z" fill="#FF003B"/>
</g>
<defs>
<linearGradient id="paint0_linear_131_150" x1="31.9509" y1="82.6236" x2="68.1587" y2="20.2227" gradientUnits="userSpaceOnUse">
<stop stop-color="#FF003B"/>
<stop offset="0.37" stop-color="#FF003B"/>
<stop offset="1" stop-color="#C60039"/>
</linearGradient>
<radialGradient id="paint1_radial_131_150" cx="0" cy="0" r="1" gradientUnits="userSpaceOnUse" gradientTransform="translate(70.8029 31.2351) scale(32.0247 31.8908)">
<stop offset="0.02" stop-color="#720031"/>
<stop offset="0.13" stop-color="#830032" stop-opacity="0.88"/>
<stop offset="0.72" stop-color="#DC0039" stop-opacity="0.25"/>
<stop offset="1" stop-color="#FF003B" stop-opacity="0"/>
</radialGradient>
<linearGradient id="paint2_linear_131_150" x1="80.3855" y1="60.0756" x2="54.6602" y2="78.0897" gradientUnits="userSpaceOnUse">
<stop stop-color="#FF003B"/>
<stop offset="0.09" stop-color="#FF003B" stop-opacity="0.97"/>
<stop offset="0.22" stop-color="#FF003B" stop-opacity="0.9"/>
<stop offset="0.37" stop-color="#FF003B" stop-opacity="0.77"/>
<stop offset="0.54" stop-color="#FF003B" stop-opacity="0.59"/>
<stop offset="0.73" stop-color="#FF003B" stop-opacity="0.37"/>
<stop offset="0.93" stop-color="#FF003B" stop-opacity="0.1"/>
<stop offset="1" stop-color="#FF003B" stop-opacity="0"/>
</linearGradient>
</defs>
</svg>
