<svg width="174" height="157" viewBox="0 0 174 157" fill="none" xmlns="http://www.w3.org/2000/svg">
<g clip-path="url(#clip0_309_849)">
<path d="M47.2466 123.271C72.7548 123.271 93.4334 106.516 93.4334 85.848C93.4334 65.1801 72.756 48.4266 47.2466 48.4266C21.7373 48.4266 1.05859 65.1801 1.05859 85.848C1.05859 106.516 21.7373 123.271 47.2454 123.271H47.2466Z" fill="url(#paint0_radial_309_849)"/>
<path d="M47.2459 56.8555L10.3299 59.3828C4.42842 64.9477 1.05664 73.5443 1.05664 85.8504C1.05664 95.7956 3.2486 103.045 6.95696 108.607L50.4476 105.572L47.2447 56.8566L47.2459 56.8555ZM93.4327 85.848C93.4327 94.2756 91.9151 100.85 89.05 105.907C72.53 100.85 61.4049 89.2186 61.4049 64.7764C61.4049 59.045 62.0793 53.9879 63.2591 49.6052C80.79 52.6392 93.4327 62.079 93.4327 85.848Z" fill="#02496A"/>
<path d="M60.5603 122.43C62.5845 128.33 66.7984 133.555 72.6975 136.421C73.5407 136.927 73.2029 138.275 72.3609 138.275C63.5943 138.275 55.6721 133.387 51.6271 125.801C50.7839 124.284 49.2675 123.273 47.4121 123.273C51.796 123.273 56.3464 122.935 60.5603 122.43Z" fill="#00AFFF"/>
<path d="M47.2461 123.273C51.7977 123.273 56.3493 123.104 60.3954 122.43C60.732 123.441 61.2375 124.453 61.5753 125.464C60.5631 123.104 50.449 124.284 51.2922 125.633C50.6179 124.115 48.9326 123.273 47.2461 123.273Z" fill="url(#paint1_linear_309_849)"/>
<path d="M51.0531 56.7751L0.160156 57.955L1.29686 106.993L52.1886 105.814L51.0531 56.7751Z" fill="#95DF00"/>
<path d="M1.39414 106.918L39.9965 106.076C39.4911 91.5795 27.6916 79.9478 13.0259 79.9478C8.64317 79.9478 4.42934 80.9599 0.888672 82.8129L1.39534 106.918H1.39414Z" fill="url(#paint2_radial_309_849)"/>
<path d="M23.4746 102.874C23.4746 104.053 23.6423 105.233 23.8112 106.245L52.2994 105.571L51.794 84.1628C49.2654 83.1507 46.568 82.4763 43.7029 82.4763C32.5766 82.6452 23.4746 91.746 23.4746 102.874Z" fill="url(#paint3_radial_309_849)"/>
<path d="M41.6818 89.8953L38.6478 62.0825C38.4531 60.2434 37.8969 58.4608 37.0112 56.8372C36.1255 55.2136 34.9277 53.7811 33.4867 52.6219C32.0456 51.4626 30.3897 50.5996 28.6141 50.0823C26.8385 49.565 24.9781 49.4037 23.14 49.6075C18.0829 50.113 13.8691 53.3159 12.0137 57.6986H14.7111C15.6584 56.1554 16.9356 54.8411 18.4512 53.8501C19.9667 52.8592 21.6829 52.2161 23.4765 51.9672C29.8823 51.2928 35.6137 56.0133 36.457 62.4191L39.491 90.2318C39.8276 93.7725 37.299 96.8077 33.9285 97.1431C30.3878 97.4809 27.3538 94.9523 27.0172 91.5817L23.982 63.2612C23.982 62.588 23.3088 62.2502 22.6345 62.2502C21.9601 62.2502 21.6224 62.9246 21.6224 63.5989L24.6564 91.9183C24.7752 93.0374 25.1141 94.1219 25.6534 95.1096C26.1928 96.0973 26.9221 96.9686 27.7993 97.6736C28.6765 98.3785 29.6844 98.9031 30.765 99.2172C31.8457 99.5313 32.9777 99.6288 34.0961 99.5039C38.8166 98.9985 42.1884 94.6157 41.6818 89.8953Z" fill="url(#paint4_linear_309_849)"/>
<path d="M6.95626 73.0375C7.12395 73.0375 7.12395 73.2063 6.95626 73.0375C7.9672 73.7118 9.14822 74.0496 10.328 74.0496C11.5079 74.0496 12.6877 73.7118 13.6986 73.0375C15.2162 72.0265 16.0583 70.34 16.0583 68.4858C16.0583 65.2841 13.5309 62.7556 10.4957 62.7556C7.46173 62.7556 4.7643 65.283 4.7643 68.3182C4.59661 70.34 5.60755 72.0265 6.95626 73.0375Z" fill="url(#paint5_radial_309_849)"/>
<path d="M119.055 105.735C149.311 105.735 173.84 85.8876 173.84 61.4023C173.84 36.9171 149.311 17.0685 119.055 17.0685C88.7991 17.0685 64.2695 36.9171 64.2695 61.4023C64.2695 85.8864 88.7979 105.735 119.055 105.735Z" fill="url(#paint6_radial_309_849)"/>
<path d="M103.378 104.891C101.018 111.971 95.9611 118.04 89.0499 121.41C88.0389 121.916 88.3755 123.602 89.5554 123.602C100.006 123.602 109.446 117.702 114.166 108.768C115.177 106.914 117.031 105.734 119.223 105.734C113.661 105.901 108.435 105.566 103.378 104.891Z" fill="url(#paint7_radial_309_849)"/>
<path d="M119.056 105.903C113.661 105.903 108.267 105.565 103.379 105.059C103.041 106.239 102.536 107.587 101.861 108.768C103.041 105.903 115.009 107.419 113.999 108.935C115.178 107.082 117.033 105.903 119.056 105.903Z" fill="url(#paint8_linear_309_849)"/>
<path d="M108.436 62.9211C108.442 63.6755 108.298 64.4237 108.012 65.1219C107.727 65.8202 107.305 66.4546 106.771 66.9881C106.238 67.5215 105.603 67.9435 104.905 68.2292C104.207 68.515 103.459 68.6589 102.704 68.6525C101.95 68.6589 101.202 68.515 100.503 68.2292C99.8052 67.9435 99.1708 67.5215 98.6373 66.9881C98.1038 66.4546 97.6819 65.8202 97.3961 65.1219C97.1104 64.4237 96.9665 63.6755 96.9729 62.9211C96.9665 62.1666 97.1104 61.4185 97.3961 60.7202C97.6819 60.022 98.1038 59.3876 98.6373 58.8541C99.1708 58.3206 99.8052 57.8987 100.503 57.6129C101.202 57.3272 101.95 57.1833 102.704 57.1897C103.459 57.1833 104.207 57.3272 104.905 57.6129C105.603 57.8987 106.238 58.3206 106.771 58.8541C107.305 59.3876 107.727 60.022 108.012 60.7202C108.298 61.4185 108.442 62.1666 108.436 62.9211ZM119.055 57.1897C118.301 57.1833 117.553 57.3272 116.854 57.6129C116.156 57.8987 115.522 58.3206 114.988 58.8541C114.455 59.3876 114.033 60.022 113.747 60.7202C113.461 61.4185 113.318 62.1666 113.324 62.9211C113.318 63.6755 113.461 64.4237 113.747 65.1219C114.033 65.8202 114.455 66.4546 114.988 66.9881C115.522 67.5215 116.156 67.9435 116.854 68.2292C117.553 68.515 118.301 68.6589 119.055 68.6525C119.81 68.6589 120.558 68.515 121.256 68.2292C121.954 67.9435 122.589 67.5215 123.122 66.9881C123.656 66.4546 124.078 65.8202 124.364 65.1219C124.649 64.4237 124.793 63.6755 124.787 62.9211C124.793 62.1666 124.649 61.4185 124.364 60.7202C124.078 60.022 123.656 59.3876 123.122 58.8541C122.589 58.3206 121.954 57.8987 121.256 57.6129C120.558 57.3272 119.81 57.1833 119.055 57.1897ZM135.575 57.1897C134.821 57.1833 134.073 57.3272 133.374 57.6129C132.676 57.8987 132.042 58.3206 131.508 58.8541C130.975 59.3876 130.553 60.022 130.267 60.7202C129.981 61.4185 129.837 62.1666 129.844 62.9211C129.837 63.6755 129.981 64.4237 130.267 65.1219C130.553 65.8202 130.975 66.4546 131.508 66.9881C132.042 67.5215 132.676 67.9435 133.374 68.2292C134.073 68.515 134.821 68.6589 135.575 68.6525C136.33 68.6589 137.078 68.515 137.776 68.2292C138.474 67.9435 139.109 67.5215 139.642 66.9881C140.176 66.4546 140.598 65.8202 140.883 65.1219C141.169 64.4237 141.313 63.6755 141.307 62.9211C141.307 59.7182 138.609 57.1897 135.575 57.1897Z" fill="url(#paint9_linear_309_849)"/>
</g>
<defs>
<radialGradient id="paint0_radial_309_849" cx="0" cy="0" r="1" gradientUnits="userSpaceOnUse" gradientTransform="translate(48.7607 71.0633) rotate(-17.759) scale(61.2357 46.0812)">
<stop offset="0.77" stop-color="#00AFFF"/>
<stop offset="0.826" stop-color="#04A8F3"/>
<stop offset="0.902" stop-color="#138CC2"/>
<stop offset="0.991" stop-color="#405FC5"/>
<stop offset="1" stop-color="#024A6A"/>
</radialGradient>
<linearGradient id="paint1_linear_309_849" x1="54.4927" y1="125.732" x2="54.4927" y2="121.664" gradientUnits="userSpaceOnUse">
<stop stop-color="#746493" stop-opacity="0"/>
<stop offset="1" stop-color="#746493"/>
</linearGradient>
<radialGradient id="paint2_radial_309_849" cx="0" cy="0" r="1" gradientUnits="userSpaceOnUse" gradientTransform="translate(8.17004 98.4728) scale(24.7133 24.7133)">
<stop offset="0.677" stop-color="#14A800"/>
<stop offset="0.802" stop-color="#139300"/>
<stop offset="1" stop-color="#126B00"/>
</radialGradient>
<radialGradient id="paint3_radial_309_849" cx="0" cy="0" r="1" gradientUnits="userSpaceOnUse" gradientTransform="translate(32.4293 101.973) rotate(35.0568) scale(23.1358 25.6903)">
<stop offset="0.677" stop-color="#14A800"/>
<stop offset="0.802" stop-color="#139300"/>
<stop offset="1" stop-color="#126B00"/>
</radialGradient>
<linearGradient id="paint4_linear_309_849" x1="12.064" y1="74.4725" x2="41.7476" y2="74.4725" gradientUnits="userSpaceOnUse">
<stop stop-color="#D5E0D5"/>
<stop offset="0.305" stop-color="#DBE4DB"/>
<stop offset="1" stop-color="#E4EBE4"/>
</linearGradient>
<radialGradient id="paint5_radial_309_849" cx="0" cy="0" r="1" gradientUnits="userSpaceOnUse" gradientTransform="translate(9.03323 66.5718) scale(6.75807 6.75807)">
<stop offset="0.677" stop-color="#DEBE1A"/>
<stop offset="0.753" stop-color="#D8A91A"/>
<stop offset="0.907" stop-color="#C77419"/>
<stop offset="1" stop-color="#BC5118"/>
</radialGradient>
<radialGradient id="paint6_radial_309_849" cx="0" cy="0" r="1" gradientUnits="userSpaceOnUse" gradientTransform="translate(113.926 42.1335) scale(64.964 60.561)">
<stop offset="0.77" stop-color="#F2F7F2"/>
<stop offset="0.855" stop-color="#ECF2EC"/>
<stop offset="0.972" stop-color="#DAE4DA"/>
<stop offset="1" stop-color="#D5E0D5"/>
</radialGradient>
<radialGradient id="paint7_radial_309_849" cx="0" cy="0" r="1" gradientUnits="userSpaceOnUse" gradientTransform="translate(97.7614 108.901) rotate(38.9157) scale(12.7256 27.9639)">
<stop offset="0.449" stop-color="white"/>
<stop offset="0.594" stop-color="#FBFCFB"/>
<stop offset="0.744" stop-color="#EEF3EE"/>
<stop offset="0.895" stop-color="#DAE4DA"/>
<stop offset="0.924" stop-color="#D5E0D5"/>
</radialGradient>
<linearGradient id="paint8_linear_309_849" x1="110.541" y1="108.844" x2="110.541" y2="96.5299" gradientUnits="userSpaceOnUse">
<stop stop-color="#9AAA97" stop-opacity="0"/>
<stop offset="1" stop-color="#9AAA97"/>
</linearGradient>
<linearGradient id="paint9_linear_309_849" x1="99.3038" y1="70.1354" x2="138.975" y2="55.696" gradientUnits="userSpaceOnUse">
<stop stop-color="#1CB8FF"/>
<stop offset="1" stop-color="#45409B"/>
</linearGradient>
<clipPath id="clip0_309_849">
<rect width="173.68" height="156.312" fill="white" transform="translate(0.160156)"/>
</clipPath>
</defs>
</svg>
