<svg width="66" height="67" viewBox="0 0 66 67" fill="none" xmlns="http://www.w3.org/2000/svg">
<rect x="3.40686" y="-6.10352e-05" width="55.4011" height="55.4011" rx="12.6287" transform="rotate(3.2351 3.40686 -6.10352e-05)" fill="#133FA0"/>
<rect x="14.8152" y="0.606148" width="45.4278" height="45.4278" rx="6.16278" transform="rotate(17.8551 14.8152 0.606148)" fill="white"/>
<rect x="12.606" y="12.3255" width="33.8448" height="33.8448" rx="6.46587" fill="#00AFFF"/>
<circle cx="53.7197" cy="54.0392" r="7" fill="white"/>
<path fill-rule="evenodd" clip-rule="evenodd" d="M53.7197 46.0392C49.3015 46.0392 45.7197 49.621 45.7197 54.0392C45.7197 58.4574 49.3015 62.0392 53.7197 62.0392C58.1378 62.0392 61.7197 58.4574 61.7197 54.0392C61.7197 49.621 58.1378 46.0392 53.7197 46.0392ZM57.1873 52.6865C57.2512 52.6135 57.2998 52.5284 57.3303 52.4364C57.3608 52.3443 57.3726 52.2471 57.365 52.1504C57.3573 52.0538 57.3305 51.9596 57.2859 51.8735C57.2413 51.7873 57.18 51.711 57.1055 51.6489C57.031 51.5868 56.9449 51.5402 56.8521 51.512C56.7593 51.4837 56.6619 51.4742 56.5654 51.4842C56.4689 51.4941 56.3754 51.5232 56.2904 51.5698C56.2053 51.6164 56.1305 51.6796 56.0702 51.7555L52.9429 55.5075L51.3248 53.8886C51.1876 53.7562 51.0039 53.6829 50.8132 53.6845C50.6225 53.6862 50.4401 53.7627 50.3053 53.8975C50.1704 54.0323 50.0939 54.2148 50.0923 54.4054C50.0906 54.5961 50.1639 54.7798 50.2964 54.917L52.4782 57.0988C52.5497 57.1702 52.6352 57.226 52.7294 57.2625C52.8236 57.299 52.9244 57.3155 53.0253 57.3109C53.1262 57.3063 53.2251 57.2808 53.3156 57.2359C53.4061 57.191 53.4862 57.1277 53.5509 57.0501L57.1873 52.6865Z" fill="#4CB375"/>
</svg>
