<svg width="268" height="46" viewBox="0 0 268 46" fill="none" xmlns="http://www.w3.org/2000/svg">
<rect x="2.95691" width="43.5367" height="43.5367" rx="9.92418" transform="rotate(3.2351 2.95691 0)" fill="#133FA0"/>
<rect x="11.9221" y="0.476318" width="35.6992" height="35.6992" rx="4.843" transform="rotate(17.8551 11.9221 0.476318)" fill="white"/>
<rect x="10.186" y="9.68604" width="26.5968" height="26.5968" rx="5.08118" fill="#00AFFF"/>
<path d="M61.2752 34.6359C55.5372 34.6359 51.4712 30.6459 51.4712 24.9839V24.0339H57.1712V24.6799C57.1712 27.4159 58.7672 29.2019 61.2752 29.2019C63.6312 29.2019 65.2272 27.4539 65.2272 24.6799V7.46592H70.9272V24.9839C70.9272 30.6459 67.0512 34.6359 61.2752 34.6359ZM85.9197 34.6359C79.5357 34.6359 74.8237 29.9999 74.8237 23.8059C74.8237 17.5739 79.5357 12.9759 85.9197 12.9759C92.2277 12.9759 96.9777 17.5739 96.9777 23.8059C96.9777 29.9999 92.2277 34.6359 85.9197 34.6359ZM85.9197 29.4299C89.1117 29.4299 91.3537 27.1119 91.3537 23.8059C91.3537 20.4999 89.1117 18.1819 85.9197 18.1819C82.6897 18.1819 80.4477 20.4999 80.4477 23.8059C80.4477 27.1119 82.6897 29.4299 85.9197 29.4299ZM112.152 12.9759C118.422 12.9759 122.944 17.5739 122.944 23.8059C122.944 29.9999 118.422 34.6359 112.152 34.6359C109.682 34.6359 107.44 33.7999 105.73 32.3559L105.084 34.0659H100.98V6.13592H106.528V14.6479C108.124 13.5839 110.024 12.9759 112.152 12.9759ZM111.696 29.3919C114.926 29.3919 117.282 26.9979 117.282 23.8059C117.282 20.5759 114.926 18.1819 111.696 18.1819C108.504 18.1819 106.11 20.5759 106.11 23.8059C106.11 26.9979 108.504 29.3919 111.696 29.3919ZM148.51 7.46592V34.0659H142.772V23.0839H132.778V34.0659H127.002V7.46592H132.778V17.7259H142.772V7.46592H148.51ZM163.284 34.6359C157.47 34.6359 153.632 30.9499 153.632 25.4019V13.5459H159.18V24.7559C159.18 27.6819 160.7 29.4299 163.284 29.4299C165.83 29.4299 167.35 27.6439 167.35 24.7559V13.5459H172.898V25.4019C172.898 30.9499 169.098 34.6359 163.284 34.6359ZM189.649 13.0519C194.323 13.0519 197.211 16.4339 197.211 21.6399V34.0659H191.663V22.5139C191.663 19.4359 190.485 17.9159 188.091 17.9159C185.241 17.9159 183.493 19.9679 183.493 23.2739V34.0659H177.945V13.5459H181.745L182.847 16.0919C184.405 14.2299 186.837 13.0519 189.649 13.0519ZM214.68 29.1259V34.0659H210.766C206.244 34.0659 203.47 31.2919 203.47 26.7319V17.9919H199.746V16.8139L207.878 8.18792H208.904V13.5459H214.566V17.9919H209.018V26.0099C209.018 27.9859 210.158 29.1259 212.172 29.1259H214.68ZM238.195 23.7299C238.195 24.2619 238.157 24.8319 238.081 25.3639H222.577C223.033 28.1759 224.895 29.6959 227.593 29.6959C229.493 29.6959 231.089 28.7839 231.925 27.3399H237.777C236.257 31.7859 232.343 34.6359 227.593 34.6359C221.513 34.6359 216.953 29.9619 216.953 23.8059C216.953 17.6119 221.475 12.9759 227.593 12.9759C233.901 12.9759 238.195 17.8399 238.195 23.7299ZM227.593 17.6879C225.123 17.6879 223.375 19.1319 222.729 21.5639H232.647C231.887 19.0559 230.063 17.6879 227.593 17.6879ZM254.456 13.4319V18.6759H252.062C248.946 18.6759 247.692 20.0439 247.692 23.3879V34.0659H242.144V13.5459H245.716L246.704 16.0539C248.148 14.2299 250.01 13.4319 252.632 13.4319H254.456Z" fill="#00AFFF"/>
</svg>
